G04*
G04 #@! TF.GenerationSoftware,Altium Limited,Altium Designer,21.3.1 (25)*
G04*
G04 Layer_Physical_Order=2*
G04 Layer_Color=13010237*
%FSLAX25Y25*%
%MOIN*%
G70*
G04*
G04 #@! TF.SameCoordinates,28642905-D900-4296-AB16-E10C3E418D5C*
G04*
G04*
G04 #@! TF.FilePolarity,Positive*
G04*
G01*
G75*
%ADD60C,0.02500*%
%ADD61C,0.01500*%
%ADD62C,0.19685*%
%ADD63C,0.06299*%
%ADD64R,0.06299X0.06299*%
%ADD65C,0.07874*%
%ADD66R,0.08268X0.08268*%
%ADD67C,0.08268*%
%ADD68C,0.02400*%
%ADD69C,0.02362*%
%ADD70C,0.08000*%
G36*
X357980Y-97421D02*
X1020D01*
X1020Y-1020D01*
X357980D01*
Y-97421D01*
D02*
G37*
%LPC*%
G36*
X228500Y-8806D02*
X227156Y-8983D01*
X225903Y-9502D01*
X224827Y-10327D01*
X224002Y-11403D01*
X223750Y-12011D01*
X223250D01*
X222998Y-11403D01*
X222173Y-10327D01*
X221097Y-9502D01*
X219844Y-8983D01*
X218500Y-8806D01*
X217156Y-8983D01*
X215903Y-9502D01*
X214827Y-10327D01*
X214002Y-11403D01*
X213750Y-12011D01*
X213250D01*
X212998Y-11403D01*
X212173Y-10327D01*
X211097Y-9502D01*
X209844Y-8983D01*
X208500Y-8806D01*
X207156Y-8983D01*
X205903Y-9502D01*
X204827Y-10327D01*
X204002Y-11403D01*
X203750Y-12011D01*
X203250D01*
X202998Y-11403D01*
X202173Y-10327D01*
X201097Y-9502D01*
X199844Y-8983D01*
X198500Y-8806D01*
X197156Y-8983D01*
X195903Y-9502D01*
X194827Y-10327D01*
X194002Y-11403D01*
X193483Y-12656D01*
X193306Y-14000D01*
X193483Y-15344D01*
X194002Y-16597D01*
X194827Y-17673D01*
X195710Y-18350D01*
X195541Y-18850D01*
X193350D01*
Y-26136D01*
X186663D01*
X186240Y-25713D01*
X185326Y-24963D01*
X184284Y-24406D01*
X183153Y-24063D01*
X181976Y-23947D01*
X162524D01*
X161347Y-24063D01*
X160216Y-24406D01*
X159174Y-24963D01*
X158261Y-25713D01*
X157511Y-26627D01*
X156954Y-27669D01*
X156610Y-28800D01*
X156495Y-29976D01*
X156610Y-31153D01*
X156954Y-32284D01*
X157511Y-33326D01*
X158261Y-34240D01*
X159174Y-34989D01*
X160216Y-35546D01*
X161347Y-35890D01*
X162524Y-36005D01*
X179479D01*
X179902Y-36428D01*
X180816Y-37178D01*
X181858Y-37736D01*
X182989Y-38079D01*
X184165Y-38194D01*
X228016D01*
X228208Y-38656D01*
X226642Y-40222D01*
X187000D01*
X186152Y-40334D01*
X185361Y-40661D01*
X184682Y-41182D01*
X184161Y-41861D01*
X183834Y-42652D01*
X183722Y-43500D01*
X183834Y-44348D01*
X184161Y-45139D01*
X184682Y-45818D01*
X185361Y-46339D01*
X186152Y-46666D01*
X187000Y-46778D01*
X228000D01*
X228424Y-46722D01*
X228848Y-46666D01*
X229639Y-46339D01*
X230318Y-45818D01*
X234442Y-41693D01*
X234471D01*
X234895Y-41638D01*
X235319Y-41582D01*
X236110Y-41254D01*
X236789Y-40733D01*
X237124Y-40398D01*
X247349D01*
X247923Y-40839D01*
X248714Y-41166D01*
X249562Y-41278D01*
X257500D01*
X258348Y-41166D01*
X259139Y-40839D01*
X259818Y-40318D01*
X260339Y-39639D01*
X260666Y-38848D01*
X260778Y-38000D01*
X260666Y-37152D01*
X260408Y-36529D01*
X260660Y-36029D01*
X339025D01*
X339324Y-36529D01*
X338988Y-37158D01*
X338649Y-38277D01*
X338534Y-39441D01*
X338649Y-40605D01*
X338988Y-41724D01*
X339540Y-42755D01*
X340282Y-43659D01*
X341186Y-44401D01*
X342217Y-44953D01*
X343336Y-45292D01*
X344500Y-45407D01*
X345664Y-45292D01*
X346783Y-44953D01*
X347814Y-44401D01*
X348718Y-43659D01*
X349460Y-42755D01*
X350012Y-41724D01*
X350351Y-40605D01*
X350466Y-39441D01*
X350351Y-38277D01*
X350012Y-37158D01*
X349460Y-36127D01*
X348718Y-35223D01*
X347814Y-34481D01*
X346783Y-33929D01*
X345772Y-33623D01*
X345551Y-33137D01*
X348763Y-29925D01*
X349513Y-29011D01*
X350070Y-27969D01*
X350413Y-26838D01*
X350529Y-25661D01*
X350413Y-24485D01*
X350070Y-23354D01*
X349513Y-22312D01*
X348763Y-21398D01*
X347849Y-20649D01*
X346807Y-20091D01*
X345676Y-19748D01*
X344500Y-19632D01*
X343324Y-19748D01*
X342193Y-20091D01*
X341150Y-20649D01*
X340237Y-21398D01*
X337664Y-23971D01*
X234165D01*
X234048Y-23971D01*
X233851Y-23990D01*
X233694Y-24000D01*
X233694Y-24000D01*
X233517Y-22656D01*
X232998Y-21403D01*
X232173Y-20327D01*
X231097Y-19502D01*
X230489Y-19250D01*
Y-18750D01*
X231097Y-18498D01*
X232173Y-17673D01*
X232998Y-16597D01*
X233517Y-15344D01*
X233694Y-14000D01*
X233517Y-12656D01*
X232998Y-11403D01*
X232173Y-10327D01*
X231097Y-9502D01*
X229844Y-8983D01*
X228500Y-8806D01*
D02*
G37*
G36*
X15650Y-36401D02*
Y-40610D01*
X19858D01*
X19762Y-39875D01*
X19285Y-38723D01*
X18526Y-37734D01*
X17537Y-36975D01*
X16385Y-36498D01*
X15650Y-36401D01*
D02*
G37*
G36*
X14649D02*
X13914Y-36498D01*
X12762Y-36975D01*
X11773Y-37734D01*
X11015Y-38723D01*
X10537Y-39875D01*
X10441Y-40610D01*
X14649D01*
Y-36401D01*
D02*
G37*
G36*
X19858Y-41610D02*
X15650D01*
Y-45819D01*
X16385Y-45722D01*
X17537Y-45245D01*
X18526Y-44486D01*
X19285Y-43498D01*
X19762Y-42346D01*
X19858Y-41610D01*
D02*
G37*
G36*
X14649D02*
X10441D01*
X10537Y-42346D01*
X11015Y-43498D01*
X11773Y-44486D01*
X12762Y-45245D01*
X13914Y-45722D01*
X14649Y-45819D01*
Y-41610D01*
D02*
G37*
G36*
X344500Y-47255D02*
X343336Y-47369D01*
X342217Y-47709D01*
X341186Y-48260D01*
X340282Y-49002D01*
X339540Y-49906D01*
X338988Y-50937D01*
X338649Y-52057D01*
X338534Y-53220D01*
X338649Y-54384D01*
X338988Y-55503D01*
X339540Y-56535D01*
X340282Y-57439D01*
X341186Y-58181D01*
X342217Y-58732D01*
X343336Y-59072D01*
X344500Y-59186D01*
X345664Y-59072D01*
X346783Y-58732D01*
X347814Y-58181D01*
X348718Y-57439D01*
X349460Y-56535D01*
X350012Y-55503D01*
X350351Y-54384D01*
X350466Y-53220D01*
X350351Y-52057D01*
X350012Y-50937D01*
X349460Y-49906D01*
X348718Y-49002D01*
X347814Y-48260D01*
X346783Y-47709D01*
X345664Y-47369D01*
X344500Y-47255D01*
D02*
G37*
G36*
X21283Y-48756D02*
X9016D01*
Y-61024D01*
X21283D01*
Y-48756D01*
D02*
G37*
G36*
X229000Y-59791D02*
X228170Y-59901D01*
X227396Y-60221D01*
X226731Y-60731D01*
X226221Y-61396D01*
X225901Y-62170D01*
X225791Y-63000D01*
X225901Y-63830D01*
X226221Y-64604D01*
X226731Y-65269D01*
X227396Y-65779D01*
X228014Y-66035D01*
X228726Y-66747D01*
Y-69608D01*
X228500Y-69806D01*
X227156Y-69983D01*
X225903Y-70502D01*
X225322Y-70948D01*
X221274Y-66900D01*
Y-66611D01*
X221279Y-66604D01*
X221599Y-65830D01*
X221709Y-65000D01*
X221599Y-64170D01*
X221279Y-63396D01*
X220769Y-62731D01*
X220104Y-62221D01*
X219330Y-61901D01*
X218500Y-61791D01*
X217670Y-61901D01*
X216896Y-62221D01*
X216231Y-62731D01*
X215721Y-63396D01*
X215401Y-64170D01*
X215291Y-65000D01*
X215401Y-65830D01*
X215721Y-66604D01*
X215726Y-66611D01*
Y-68049D01*
X215821Y-68766D01*
X216098Y-69436D01*
X216357Y-69773D01*
X216231Y-70366D01*
X215903Y-70502D01*
X215322Y-70948D01*
X212497Y-68123D01*
X211923Y-67682D01*
X211634Y-67563D01*
X211709Y-67000D01*
X211599Y-66170D01*
X211279Y-65396D01*
X210769Y-64731D01*
X210104Y-64221D01*
X209330Y-63901D01*
X208500Y-63791D01*
X207670Y-63901D01*
X206896Y-64221D01*
X206231Y-64731D01*
X205721Y-65396D01*
X205401Y-66170D01*
X205291Y-67000D01*
X205401Y-67830D01*
X205721Y-68604D01*
X205726Y-68611D01*
Y-69206D01*
X205821Y-69924D01*
X206037Y-70446D01*
X205903Y-70502D01*
X204827Y-71327D01*
X204002Y-72403D01*
X203750Y-73011D01*
X203250D01*
X202998Y-72403D01*
X202173Y-71327D01*
X201097Y-70502D01*
X199844Y-69983D01*
X198500Y-69806D01*
X197156Y-69983D01*
X195903Y-70502D01*
X194827Y-71327D01*
X194002Y-72403D01*
X193870Y-72722D01*
X187000D01*
X186152Y-72834D01*
X185361Y-73161D01*
X184682Y-73682D01*
X184161Y-74361D01*
X183834Y-75152D01*
X183722Y-76000D01*
X183834Y-76848D01*
X184161Y-77639D01*
X184682Y-78318D01*
X185361Y-78839D01*
X186152Y-79166D01*
X187000Y-79278D01*
X195136D01*
X195210Y-79268D01*
X195278Y-79350D01*
X195041Y-79850D01*
X193350D01*
Y-90150D01*
X203650D01*
Y-87959D01*
X204150Y-87790D01*
X204827Y-88673D01*
X205903Y-89498D01*
X207156Y-90017D01*
X208500Y-90194D01*
X209844Y-90017D01*
X211097Y-89498D01*
X212173Y-88673D01*
X212998Y-87597D01*
X213250Y-86989D01*
X213750D01*
X214002Y-87597D01*
X214827Y-88673D01*
X215903Y-89498D01*
X217156Y-90017D01*
X218500Y-90194D01*
X219844Y-90017D01*
X221097Y-89498D01*
X222173Y-88673D01*
X222998Y-87597D01*
X223250Y-86989D01*
X223750D01*
X224002Y-87597D01*
X224827Y-88673D01*
X225903Y-89498D01*
X227156Y-90017D01*
X228500Y-90194D01*
X229844Y-90017D01*
X231097Y-89498D01*
X232173Y-88673D01*
X232998Y-87597D01*
X233517Y-86344D01*
X233694Y-85000D01*
X233517Y-83656D01*
X232998Y-82403D01*
X232552Y-81822D01*
X235377Y-78997D01*
X235818Y-78423D01*
X236095Y-77754D01*
X236189Y-77036D01*
Y-72964D01*
X236095Y-72246D01*
X235818Y-71577D01*
X235377Y-71003D01*
X234274Y-69900D01*
Y-65598D01*
X234179Y-64880D01*
X233902Y-64211D01*
X233461Y-63637D01*
X232115Y-62290D01*
X232099Y-62170D01*
X231779Y-61396D01*
X231269Y-60731D01*
X230604Y-60221D01*
X229830Y-59901D01*
X229000Y-59791D01*
D02*
G37*
G36*
X344500Y-61034D02*
X343336Y-61149D01*
X342217Y-61488D01*
X341186Y-62040D01*
X340282Y-62782D01*
X339540Y-63686D01*
X338988Y-64717D01*
X338649Y-65836D01*
X338534Y-67000D01*
X338649Y-68164D01*
X338988Y-69283D01*
X339540Y-70314D01*
X340282Y-71218D01*
X341186Y-71960D01*
X342217Y-72512D01*
X343336Y-72851D01*
X344500Y-72966D01*
X345664Y-72851D01*
X346783Y-72512D01*
X347814Y-71960D01*
X348718Y-71218D01*
X349460Y-70314D01*
X350012Y-69283D01*
X350351Y-68164D01*
X350466Y-67000D01*
X350351Y-65836D01*
X350012Y-64717D01*
X349460Y-63686D01*
X348718Y-62782D01*
X347814Y-62040D01*
X346783Y-61488D01*
X345664Y-61149D01*
X344500Y-61034D01*
D02*
G37*
%LPD*%
D60*
X228000Y-43500D02*
X233085Y-38415D01*
X234471D02*
X235766Y-37120D01*
X248682D01*
X233085Y-38415D02*
X234471D01*
X248682Y-37120D02*
X249562Y-38000D01*
X257500D01*
X187000Y-43500D02*
X228000D01*
X197773Y-75727D02*
X198500Y-75000D01*
X195409Y-75727D02*
X197773D01*
X195136Y-76000D02*
X195409Y-75727D01*
X187000Y-76000D02*
X195136D01*
D61*
X229000Y-63098D02*
Y-63000D01*
Y-63098D02*
X231500Y-65598D01*
Y-71049D02*
Y-65598D01*
Y-71049D02*
X233415Y-72964D01*
X229000Y-80794D02*
X229879Y-79915D01*
X230536D01*
X233415Y-77036D01*
Y-72964D01*
X228500Y-85000D02*
X229000Y-84500D01*
Y-80794D01*
X218930Y-84570D02*
Y-80794D01*
X219809Y-79915D02*
X220536D01*
X218500Y-68049D02*
X223415Y-72964D01*
X218500Y-68049D02*
Y-65000D01*
Y-85000D02*
X218930Y-84570D01*
Y-80794D02*
X219809Y-79915D01*
X220536D02*
X223415Y-77036D01*
Y-72964D01*
X208500Y-69206D02*
Y-67000D01*
Y-69206D02*
X209379Y-70085D01*
X208930Y-80794D02*
X209809Y-79915D01*
X210536D01*
X208930Y-84570D02*
Y-80794D01*
X208500Y-85000D02*
X208930Y-84570D01*
X213415Y-77036D02*
Y-72964D01*
X210536Y-79915D02*
X213415Y-77036D01*
X210536Y-70085D02*
X213415Y-72964D01*
X209379Y-70085D02*
X210536D01*
D62*
X38949Y-49213D02*
D03*
X243673D02*
D03*
D63*
X228500Y-14000D02*
D03*
X218500D02*
D03*
X228500Y-24000D02*
D03*
X218500D02*
D03*
X208500Y-14000D02*
D03*
Y-24000D02*
D03*
X198500Y-14000D02*
D03*
X228500Y-75000D02*
D03*
X218500D02*
D03*
X228500Y-85000D02*
D03*
X218500D02*
D03*
X208500Y-75000D02*
D03*
Y-85000D02*
D03*
X198500Y-75000D02*
D03*
D64*
X198500Y-24000D02*
D03*
X198500Y-85000D02*
D03*
D65*
X344500Y-67000D02*
D03*
Y-53220D02*
D03*
Y-39441D02*
D03*
Y-25661D02*
D03*
D66*
X15149Y-54890D02*
D03*
D67*
Y-41110D02*
D03*
D68*
X315827Y-80681D02*
D03*
D69*
X287500Y-32000D02*
D03*
X166000Y-30000D02*
D03*
X170000D02*
D03*
X162524Y-29976D02*
D03*
X187000Y-43500D02*
D03*
Y-76000D02*
D03*
X229000Y-63000D02*
D03*
X218500Y-65000D02*
D03*
X208500Y-67000D02*
D03*
X257500Y-38000D02*
D03*
X120999Y-48756D02*
D03*
X71012Y-47751D02*
D03*
X28310Y-8817D02*
D03*
X107500Y-83000D02*
D03*
X128500Y-91000D02*
D03*
X125000Y-5500D02*
D03*
X110500D02*
D03*
X97000D02*
D03*
X82500D02*
D03*
X70000Y-31000D02*
D03*
Y-20500D02*
D03*
Y-10000D02*
D03*
X62000Y-57000D02*
D03*
X20500Y-84000D02*
D03*
X30000Y-71000D02*
D03*
X12500Y-91000D02*
D03*
X54500Y-93000D02*
D03*
D70*
X234048Y-30000D02*
X340161D01*
X162524Y-29976D02*
X181976D01*
X340161Y-30000D02*
X344500Y-25661D01*
X231882Y-32165D02*
X234048Y-30000D01*
X184165Y-32165D02*
X231882D01*
X181976Y-29976D02*
X184165Y-32165D01*
M02*
