G04*
G04 #@! TF.GenerationSoftware,Altium Limited,Altium Designer,21.3.1 (25)*
G04*
G04 Layer_Color=32896*
%FSLAX25Y25*%
%MOIN*%
G70*
G04*
G04 #@! TF.SameCoordinates,28642905-D900-4296-AB16-E10C3E418D5C*
G04*
G04*
G04 #@! TF.FilePolarity,Positive*
G04*
G01*
G75*
%ADD71C,0.00127*%
G36*
X92771Y-33978D02*
X92804Y-34056D01*
X93291Y-36600D01*
X93288Y-36601D01*
X93321Y-36679D01*
X93373Y-36701D01*
X95504Y-37583D01*
X95556Y-37605D01*
X95634Y-37572D01*
X97778Y-36119D01*
X97776Y-36116D01*
X97855Y-36084D01*
X97959Y-36127D01*
X97959Y-36127D01*
X99784Y-37968D01*
X99792Y-37960D01*
X99792Y-37960D01*
X99836Y-38065D01*
X99803Y-38143D01*
X98349Y-40287D01*
X98347Y-40285D01*
X98315Y-40363D01*
X98336Y-40416D01*
X99219Y-42546D01*
X99219D01*
X99240Y-42599D01*
X99319Y-42631D01*
X101863Y-43119D01*
X101863Y-43116D01*
X101941Y-43148D01*
X101985Y-43253D01*
X101985D01*
X101973Y-45845D01*
X101985D01*
X101941Y-45950D01*
X101863Y-45983D01*
X99319Y-46470D01*
X99319Y-46468D01*
X99240Y-46500D01*
X99219Y-46552D01*
X98336Y-48683D01*
Y-48683D01*
X98315Y-48735D01*
X98347Y-48813D01*
X99801Y-50957D01*
X99803Y-50955D01*
X99836Y-51034D01*
X99792Y-51138D01*
X99792Y-51138D01*
X97951Y-52963D01*
X97959Y-52971D01*
X97855Y-53015D01*
X97776Y-52982D01*
X95633Y-51529D01*
X95634Y-51526D01*
X95556Y-51494D01*
X95504Y-51515D01*
X94528Y-51920D01*
Y-51920D01*
X94476Y-51941D01*
X94371Y-51898D01*
X94349Y-51845D01*
X92553Y-47447D01*
X92553Y-47447D01*
X92532Y-47395D01*
X92575Y-47290D01*
X92623Y-47270D01*
X92638Y-47305D01*
X93530Y-46709D01*
X94192Y-45718D01*
X94424Y-44549D01*
X94192Y-43380D01*
X93530Y-42390D01*
X92539Y-41728D01*
X91370Y-41495D01*
X90201Y-41728D01*
X89211Y-42390D01*
X88548Y-43380D01*
X88316Y-44549D01*
X88548Y-45718D01*
X89211Y-46709D01*
X90102Y-47305D01*
X90118Y-47270D01*
X90165Y-47290D01*
X90209Y-47395D01*
X90187Y-47447D01*
X88391Y-51845D01*
Y-51845D01*
X88370Y-51898D01*
X88265Y-51941D01*
X88212Y-51920D01*
X87237Y-51515D01*
X87237D01*
X87185Y-51494D01*
X87106Y-51526D01*
X84962Y-52980D01*
X84964Y-52982D01*
X84886Y-53015D01*
X84781Y-52971D01*
X82956Y-51130D01*
X82948Y-51138D01*
X82905Y-51034D01*
X82937Y-50955D01*
X84391Y-48812D01*
X84393Y-48813D01*
X84426Y-48735D01*
X84404Y-48683D01*
X83522Y-46552D01*
X83500Y-46500D01*
X83422Y-46468D01*
X80878Y-45980D01*
X80877Y-45983D01*
X80799Y-45950D01*
X80756Y-45845D01*
X80767Y-43253D01*
X80756D01*
X80799Y-43148D01*
X80877Y-43116D01*
X83421Y-42628D01*
X83422Y-42631D01*
X83500Y-42599D01*
X83522Y-42546D01*
X84404Y-40416D01*
Y-40416D01*
X84426Y-40363D01*
X84393Y-40285D01*
X82940Y-38142D01*
X82937Y-38143D01*
X82905Y-38065D01*
X82948Y-37960D01*
X84789Y-36135D01*
X84781Y-36127D01*
X84781Y-36127D01*
X84886Y-36084D01*
X84964Y-36116D01*
X87108Y-37570D01*
X87106Y-37572D01*
X87185Y-37605D01*
X87237Y-37583D01*
X89367Y-36701D01*
X89420Y-36679D01*
X89452Y-36601D01*
X89940Y-34057D01*
X89937Y-34056D01*
X89969Y-33978D01*
X90074Y-33935D01*
X92666Y-33946D01*
Y-33935D01*
X92771Y-33978D01*
D02*
G37*
G36*
X81635Y-55389D02*
X81643Y-55369D01*
X81676Y-55375D01*
X82062Y-55634D01*
X82086Y-55606D01*
X82164Y-55638D01*
X82243Y-55829D01*
X82246Y-55827D01*
X82354Y-56089D01*
X82367Y-56084D01*
X82429Y-56395D01*
X82430Y-56395D01*
X82500Y-56744D01*
X82497Y-56757D01*
X82500Y-56769D01*
X82430Y-57118D01*
X82429Y-57118D01*
X82367Y-57429D01*
X82354Y-57424D01*
X82246Y-57685D01*
X82243Y-57683D01*
X82166Y-57869D01*
X82084Y-57903D01*
X82062Y-57876D01*
X81681Y-58131D01*
X81642Y-58138D01*
X81635Y-58119D01*
X81173Y-58311D01*
X81167Y-58308D01*
X81168Y-58307D01*
X81161Y-58311D01*
X80858Y-58185D01*
X80859Y-58182D01*
X80587Y-58070D01*
X80586Y-58071D01*
X80200Y-57813D01*
X80139Y-57722D01*
X80547Y-57357D01*
X80592Y-57466D01*
X80830Y-57564D01*
X80831Y-57563D01*
X81139Y-57691D01*
X81146Y-57688D01*
X81144Y-57699D01*
X81163Y-57707D01*
X81468Y-57581D01*
X81468Y-57581D01*
X81698Y-57485D01*
X81719Y-57434D01*
X81722Y-57435D01*
X81843Y-57143D01*
X81838Y-57142D01*
X81910Y-56780D01*
X81906Y-56757D01*
X81906Y-56757D01*
X81911Y-56734D01*
X81838Y-56370D01*
X81843Y-56369D01*
X81722Y-56076D01*
X81719Y-56078D01*
X81697Y-56024D01*
X81468Y-55930D01*
X81468Y-55929D01*
X81163Y-55803D01*
X81144Y-55811D01*
X81146Y-55821D01*
X81140Y-55819D01*
X80832Y-55947D01*
X80832Y-55945D01*
X80587Y-56046D01*
X80544Y-56151D01*
X80149Y-55796D01*
X80139Y-55787D01*
X80200Y-55696D01*
X80587Y-55437D01*
X80587Y-55439D01*
X80859Y-55326D01*
X80858Y-55323D01*
X81161Y-55198D01*
X81168Y-55201D01*
X81167Y-55200D01*
X81173Y-55198D01*
X81635Y-55389D01*
D02*
G37*
G36*
X83408Y-55389D02*
X83408Y-55388D01*
X83704Y-55511D01*
X83735Y-55586D01*
Y-55640D01*
X83750Y-55621D01*
X83735Y-55586D01*
Y-55338D01*
X84305D01*
Y-58169D01*
X83735D01*
Y-56468D01*
X83790Y-56469D01*
X83798Y-56450D01*
X83694Y-56198D01*
X83693Y-56199D01*
X83617Y-56016D01*
X83578Y-55999D01*
X83584Y-55992D01*
X83184Y-55826D01*
X83184Y-55827D01*
X83184Y-55831D01*
X82994Y-55909D01*
X82791Y-55994D01*
X82396Y-55524D01*
X82369Y-55490D01*
X82684Y-55359D01*
X82684Y-55359D01*
X82987Y-55234D01*
X82988Y-55234D01*
X82986Y-55230D01*
X83006Y-55222D01*
X83408Y-55389D01*
D02*
G37*
G36*
X91595Y-55266D02*
X91594Y-55279D01*
X91609Y-55276D01*
X92009Y-55356D01*
X92010Y-55354D01*
X92365Y-55501D01*
X92358Y-55511D01*
X92475Y-55559D01*
X92575Y-55800D01*
X92574Y-55800D01*
X92723Y-56159D01*
X92715Y-56180D01*
X92720Y-56193D01*
X92592Y-56503D01*
X92592Y-56503D01*
X92486Y-56757D01*
X92442Y-56776D01*
X92451Y-56786D01*
X92156Y-56909D01*
X92156Y-56909D01*
X91838Y-57041D01*
X91333Y-57027D01*
X91330Y-56990D01*
X91180Y-57052D01*
X91180Y-57054D01*
X91065Y-57101D01*
X91067Y-57104D01*
X91040Y-57116D01*
X91007Y-57194D01*
X91007Y-57194D01*
X90964Y-57299D01*
X90966Y-57305D01*
X90963Y-57304D01*
X90960Y-57311D01*
X91023Y-57464D01*
X91022Y-57464D01*
X91054Y-57541D01*
X91143Y-57578D01*
X91142Y-57581D01*
X91321Y-57655D01*
X91320Y-57661D01*
X91536Y-57750D01*
X91545Y-57746D01*
X91544Y-57767D01*
X91556Y-57773D01*
X92028Y-57577D01*
X92028Y-57577D01*
X92510Y-57377D01*
X92835Y-57698D01*
X92855Y-57719D01*
X92270Y-58110D01*
X92268Y-58110D01*
X92265Y-58104D01*
X91601Y-58237D01*
X91589Y-58234D01*
X91589Y-58233D01*
X91574Y-58236D01*
X91135Y-58149D01*
X91133Y-58157D01*
X90744Y-57995D01*
X90751Y-57986D01*
X90586Y-57917D01*
X90498Y-57703D01*
X90499Y-57703D01*
X90352Y-57347D01*
X90359Y-57331D01*
X90338Y-57332D01*
X90335Y-57323D01*
X90461Y-57019D01*
X90462Y-57019D01*
X90580Y-56734D01*
X90586Y-56738D01*
X90615Y-56668D01*
X90859Y-56566D01*
Y-56566D01*
X91029Y-56496D01*
X91028Y-56489D01*
X91232Y-56404D01*
X91706Y-56451D01*
X91708Y-56498D01*
X91889Y-56423D01*
X91888Y-56421D01*
X92013Y-56369D01*
X92016Y-56371D01*
X92021Y-56369D01*
X92061Y-56273D01*
X92060Y-56273D01*
X92098Y-56183D01*
X92103Y-56184D01*
X92106Y-56176D01*
X92006Y-55934D01*
X91985Y-55925D01*
X91984Y-55926D01*
X91826Y-55861D01*
X91828Y-55853D01*
X91612Y-55764D01*
X91593Y-55771D01*
X91596Y-55762D01*
X91576Y-55754D01*
X91185Y-55916D01*
X91171Y-55882D01*
X91170Y-55882D01*
X90836Y-56105D01*
X90484Y-55690D01*
X90478Y-55683D01*
X90913Y-55392D01*
X90949Y-55385D01*
X90951Y-55390D01*
X91250Y-55330D01*
X91250Y-55330D01*
X91583Y-55264D01*
X91595Y-55266D01*
D02*
G37*
G36*
X100891Y-55221D02*
X100890Y-55230D01*
X100901Y-55226D01*
X101291Y-55387D01*
X101291Y-55387D01*
X101637Y-55530D01*
X101665Y-55598D01*
X101622Y-55338D01*
X102192D01*
Y-62676D01*
X101622D01*
Y-60990D01*
X101679Y-60991D01*
X101685Y-60977D01*
X101584Y-60734D01*
X101583Y-60734D01*
X101492Y-60514D01*
X101492Y-60513D01*
X101490Y-60507D01*
X101282Y-60421D01*
X101282Y-60421D01*
X101066Y-60332D01*
X101058Y-60335D01*
X101059Y-60337D01*
X101052Y-60334D01*
X100840Y-60421D01*
X100840Y-60421D01*
X100634Y-60507D01*
X100631Y-60513D01*
X100631Y-60514D01*
X100540Y-60734D01*
X100539Y-60734D01*
X100438Y-60977D01*
X100444Y-60991D01*
X100501Y-62676D01*
X99931D01*
Y-60794D01*
X99830Y-60794D01*
X99827Y-60787D01*
X99920Y-60562D01*
X99928Y-60564D01*
X100008Y-60370D01*
X100132Y-60071D01*
X100217Y-60036D01*
X100202Y-60019D01*
X100551Y-59874D01*
Y-59874D01*
X100875Y-59740D01*
X100874Y-59737D01*
X100893Y-59729D01*
X101295Y-59895D01*
X101295Y-59895D01*
X101591Y-60018D01*
X101622Y-60093D01*
Y-60147D01*
X101637Y-60128D01*
X101622Y-60093D01*
Y-57980D01*
X101699Y-57948D01*
X101622Y-57870D01*
Y-57980D01*
X101290Y-58117D01*
X101289Y-58114D01*
X100905Y-58273D01*
X100890Y-58267D01*
X100891Y-58288D01*
X100883Y-58291D01*
X100646Y-58193D01*
X100647Y-58188D01*
X100442Y-58104D01*
X100441Y-58104D01*
X100159Y-57987D01*
X100105Y-57858D01*
X100109Y-57855D01*
X99956Y-57486D01*
X99973Y-57482D01*
X99916Y-57200D01*
X99917Y-57200D01*
X99863Y-56792D01*
X99868Y-56757D01*
X99867Y-56757D01*
X99863Y-56721D01*
X99917Y-56311D01*
X99916Y-56311D01*
X99973Y-56029D01*
X99956Y-56026D01*
X100109Y-55655D01*
X100102Y-55649D01*
X100154Y-55524D01*
X100441Y-55405D01*
X100441Y-55405D01*
X100647Y-55320D01*
X100646Y-55316D01*
X100883Y-55218D01*
X100891Y-55221D01*
D02*
G37*
G36*
X103881Y-55196D02*
X103880Y-55280D01*
X103894Y-55277D01*
X104181Y-55334D01*
X104184Y-55319D01*
X104421Y-55418D01*
X104421Y-55418D01*
X104604Y-55540D01*
X104622Y-55516D01*
X104772Y-55578D01*
X104791Y-55622D01*
X104793Y-55620D01*
X104980Y-56071D01*
X104982Y-56070D01*
X105038Y-56352D01*
X105049Y-56351D01*
X105123Y-56724D01*
X105118Y-56750D01*
X105120Y-56750D01*
X105126Y-56778D01*
X105050Y-57157D01*
X105039Y-57156D01*
X104982Y-57440D01*
X104980Y-57439D01*
X104793Y-57890D01*
X104786Y-57882D01*
X104764Y-57935D01*
X104621Y-57994D01*
X104604Y-57971D01*
X104421Y-58093D01*
X104421Y-58092D01*
X104184Y-58190D01*
X104181Y-58174D01*
X103894Y-58231D01*
X103880Y-58228D01*
X103880Y-58227D01*
X103867Y-58230D01*
X103583Y-58174D01*
X103579Y-58189D01*
X103343Y-58091D01*
X103342Y-58093D01*
X103159Y-57971D01*
X103142Y-57994D01*
X102993Y-57932D01*
X102973Y-57885D01*
X102968Y-57889D01*
X102782Y-57440D01*
X102780Y-57440D01*
X102724Y-57156D01*
X102711Y-57157D01*
X102636Y-56778D01*
X102642Y-56750D01*
X102644Y-56751D01*
X102638Y-56724D01*
X102713Y-56351D01*
X102724Y-56352D01*
X102780Y-56070D01*
X102782Y-56070D01*
X102968Y-55620D01*
X102969Y-55620D01*
X102985Y-55581D01*
X103141Y-55516D01*
X103159Y-55540D01*
X103343Y-55418D01*
X103343Y-55418D01*
X103580Y-55319D01*
X103578Y-55310D01*
X103867Y-55190D01*
X103881Y-55196D01*
D02*
G37*
G36*
X88897Y-55196D02*
X88895Y-55280D01*
X88910Y-55277D01*
X89197Y-55334D01*
X89200Y-55319D01*
X89437Y-55418D01*
X89437Y-55418D01*
X89620Y-55540D01*
X89638Y-55516D01*
X89788Y-55578D01*
X89806Y-55622D01*
X89809Y-55620D01*
X89996Y-56071D01*
X89998Y-56070D01*
X90054Y-56352D01*
X90065Y-56351D01*
X90139Y-56725D01*
X90134Y-56750D01*
X90136Y-56750D01*
X90141Y-56777D01*
X90066Y-57157D01*
X90054Y-57156D01*
X89998Y-57440D01*
X89996Y-57439D01*
X89809Y-57890D01*
X89802Y-57882D01*
X89780Y-57935D01*
X89637Y-57994D01*
X89620Y-57971D01*
X89437Y-58093D01*
X89437Y-58092D01*
X89200Y-58190D01*
X89197Y-58174D01*
X88910Y-58231D01*
X88895Y-58228D01*
X88896Y-58227D01*
X88883Y-58230D01*
X88598Y-58174D01*
X88595Y-58189D01*
X88359Y-58091D01*
X88358Y-58093D01*
X88175Y-57971D01*
X88157Y-57994D01*
X88009Y-57932D01*
X87989Y-57885D01*
X87984Y-57889D01*
X87798Y-57440D01*
X87796Y-57440D01*
X87739Y-57156D01*
X87727Y-57157D01*
X87652Y-56778D01*
X87657Y-56750D01*
X87660Y-56751D01*
X87654Y-56724D01*
X87728Y-56351D01*
X87740Y-56352D01*
X87796Y-56070D01*
X87798Y-56070D01*
X87984Y-55620D01*
X87984Y-55620D01*
X88000Y-55581D01*
X88156Y-55516D01*
X88174Y-55540D01*
X88358Y-55418D01*
X88358Y-55418D01*
X88595Y-55319D01*
X88593Y-55310D01*
X88883Y-55190D01*
X88897Y-55196D01*
D02*
G37*
G36*
X98337Y-55212D02*
X98336Y-55217D01*
X98740Y-55384D01*
X98750Y-55358D01*
X98751Y-55358D01*
X99133Y-55613D01*
X99152Y-55590D01*
X99225Y-55620D01*
X99301Y-55805D01*
X99305Y-55803D01*
X99413Y-56064D01*
X99420Y-56062D01*
X99484Y-56383D01*
X99487Y-56382D01*
X99560Y-56750D01*
X99557Y-56765D01*
X99557Y-56764D01*
X99560Y-56782D01*
X99484Y-57165D01*
X99482Y-57165D01*
X99416Y-57495D01*
X99403Y-57491D01*
X99294Y-57756D01*
X99288Y-57752D01*
X99236Y-57880D01*
X99104Y-57934D01*
X99095Y-57920D01*
X98789Y-58125D01*
X98684Y-58146D01*
X98680Y-58135D01*
X98250Y-58313D01*
X98250Y-58230D01*
X98245Y-58231D01*
X97690Y-58121D01*
X97700Y-58097D01*
X97429Y-57985D01*
X97424Y-57992D01*
X97223Y-57909D01*
X97174Y-57791D01*
X97638Y-57394D01*
X97588Y-57442D01*
X97597Y-57463D01*
X97928Y-57600D01*
X97929Y-57600D01*
X98255Y-57735D01*
X98260Y-57733D01*
X98259Y-57728D01*
X98270Y-57733D01*
X98529Y-57626D01*
X98529Y-57625D01*
X98773Y-57524D01*
X98769Y-57520D01*
X98790Y-57512D01*
X98888Y-57275D01*
X98889Y-57275D01*
X99008Y-56986D01*
X99001Y-56968D01*
X97171Y-56969D01*
Y-56500D01*
X97072Y-56502D01*
X97062Y-56480D01*
X97258Y-56008D01*
X97258Y-56008D01*
X97428Y-55599D01*
X97475Y-55579D01*
X97462Y-55567D01*
X97899Y-55386D01*
X97899Y-55386D01*
X98327Y-55208D01*
X98337Y-55212D01*
D02*
G37*
G36*
X78815D02*
X78814Y-55217D01*
X79218Y-55384D01*
X79228Y-55358D01*
X79229Y-55359D01*
X79611Y-55613D01*
X79630Y-55590D01*
X79703Y-55620D01*
X79779Y-55805D01*
X79783Y-55803D01*
X79891Y-56064D01*
X79898Y-56062D01*
X79962Y-56383D01*
X79965Y-56382D01*
X80038Y-56750D01*
X80035Y-56765D01*
X80035Y-56764D01*
X80035Y-56765D01*
X80035Y-56765D01*
X80038Y-56782D01*
X79962Y-57165D01*
X79960Y-57165D01*
X79894Y-57495D01*
X79881Y-57491D01*
X79772Y-57756D01*
X79766Y-57752D01*
X79713Y-57880D01*
X79582Y-57934D01*
X79573Y-57920D01*
X79267Y-58125D01*
X79162Y-58146D01*
X79158Y-58135D01*
X78728Y-58313D01*
X78728Y-58230D01*
X78723Y-58231D01*
X78168Y-58121D01*
X78178Y-58097D01*
X77907Y-57985D01*
X77901Y-57992D01*
X77701Y-57909D01*
X77652Y-57791D01*
X78116Y-57394D01*
X78066Y-57442D01*
X78075Y-57463D01*
X78406Y-57600D01*
X78406Y-57600D01*
X78733Y-57735D01*
X78738Y-57733D01*
X78737Y-57728D01*
X78748Y-57733D01*
X79007Y-57626D01*
X79007Y-57625D01*
X79251Y-57524D01*
X79247Y-57520D01*
X79268Y-57512D01*
X79366Y-57275D01*
X79366Y-57275D01*
X79486Y-56986D01*
X79479Y-56968D01*
X77649Y-56969D01*
Y-56500D01*
X77550Y-56502D01*
X77540Y-56480D01*
X77736Y-56008D01*
X77736Y-56008D01*
X77906Y-55599D01*
X77953Y-55579D01*
X77940Y-55567D01*
X78377Y-55386D01*
X78377Y-55386D01*
X78805Y-55208D01*
X78815Y-55212D01*
D02*
G37*
G36*
X95776Y-55389D02*
X95776Y-55388D01*
X96072Y-55511D01*
X96104Y-55586D01*
Y-55640D01*
X96118Y-55621D01*
X96104Y-55586D01*
Y-55338D01*
X96673D01*
Y-58169D01*
X96104D01*
Y-56483D01*
X96160Y-56484D01*
X96166Y-56471D01*
X96065Y-56227D01*
X96064Y-56228D01*
X95973Y-56007D01*
X95973Y-56007D01*
X95971Y-56001D01*
X95763Y-55915D01*
X95763Y-55915D01*
X95547Y-55825D01*
X95539Y-55828D01*
X95540Y-55830D01*
X95533Y-55827D01*
X95321Y-55915D01*
X95321Y-55915D01*
X95115Y-56000D01*
X95112Y-56007D01*
X95112Y-56007D01*
X95021Y-56228D01*
X95020Y-56227D01*
X94919Y-56471D01*
X94925Y-56484D01*
X94982Y-58169D01*
X94412D01*
Y-56287D01*
X94311Y-56287D01*
X94308Y-56281D01*
X94401Y-56056D01*
X94409Y-56057D01*
X94489Y-55864D01*
X94613Y-55565D01*
X94698Y-55529D01*
X94683Y-55512D01*
X95032Y-55368D01*
Y-55368D01*
X95356Y-55234D01*
X95355Y-55230D01*
X95374Y-55222D01*
X95776Y-55389D01*
D02*
G37*
G36*
X87212Y-57220D02*
X87314Y-57220D01*
X87317Y-57227D01*
X87224Y-57453D01*
X87216Y-57451D01*
X87135Y-57645D01*
X87135Y-57645D01*
X87012Y-57943D01*
X86927Y-57979D01*
X86941Y-57995D01*
X86592Y-58140D01*
X86592Y-58140D01*
X86263Y-58276D01*
X86264Y-58276D01*
X86245Y-58284D01*
X85847Y-58119D01*
X85847Y-58120D01*
X85552Y-57998D01*
X85521Y-57921D01*
Y-57870D01*
X85507Y-57889D01*
X85521Y-57921D01*
Y-58169D01*
X84951D01*
Y-55338D01*
X85521D01*
Y-57027D01*
X85463Y-57026D01*
X85458Y-57039D01*
X85559Y-57284D01*
X85560Y-57284D01*
X85651Y-57505D01*
X85650Y-57505D01*
X85652Y-57509D01*
X85860Y-57595D01*
X85860Y-57595D01*
X86072Y-57683D01*
X86079Y-57680D01*
X86078Y-57682D01*
X86086Y-57685D01*
X86302Y-57596D01*
X86302Y-57595D01*
X86511Y-57509D01*
X86513Y-57505D01*
X86512Y-57505D01*
X86603Y-57284D01*
X86604Y-57284D01*
X86706Y-57039D01*
X86700Y-57026D01*
X86642Y-55338D01*
X87212D01*
Y-57220D01*
D02*
G37*
G36*
X80547Y-57357D02*
X80546Y-57355D01*
X80569Y-57337D01*
X80547Y-57357D01*
D02*
G37*
G36*
X95678Y-59895D02*
X95678Y-59895D01*
X95974Y-60018D01*
X96005Y-60093D01*
Y-60147D01*
X96020Y-60128D01*
X96005Y-60093D01*
Y-59844D01*
X96575D01*
Y-62676D01*
X96005D01*
Y-60974D01*
X96061Y-60975D01*
X96068Y-60957D01*
X95964Y-60705D01*
X95963Y-60705D01*
X95888Y-60523D01*
X95848Y-60506D01*
X95855Y-60499D01*
X95455Y-60333D01*
X95454Y-60333D01*
X95454Y-60337D01*
X95265Y-60416D01*
Y-60416D01*
X95061Y-60500D01*
X94666Y-60030D01*
X94639Y-59996D01*
X94954Y-59866D01*
X94954Y-59866D01*
X95258Y-59740D01*
X95258Y-59740D01*
X95257Y-59737D01*
X95276Y-59729D01*
X95678Y-59895D01*
D02*
G37*
G36*
X84129D02*
X84129Y-59895D01*
X84425Y-60018D01*
X84457Y-60093D01*
Y-60147D01*
X84471Y-60128D01*
X84457Y-60093D01*
Y-59844D01*
X85026D01*
Y-62676D01*
X84457D01*
Y-60974D01*
X84512Y-60975D01*
X84520Y-60957D01*
X84415Y-60705D01*
X84414Y-60705D01*
X84339Y-60523D01*
X84299Y-60506D01*
X84306Y-60499D01*
X83906Y-60333D01*
X83906Y-60333D01*
X83905Y-60337D01*
X83716Y-60416D01*
Y-60416D01*
X83512Y-60500D01*
X83118Y-60030D01*
X83090Y-59996D01*
X83405Y-59866D01*
X83405Y-59866D01*
X83709Y-59740D01*
X83709Y-59740D01*
X83708Y-59737D01*
X83727Y-59729D01*
X84129Y-59895D01*
D02*
G37*
G36*
X98381Y-59785D02*
X98380Y-59792D01*
X98413Y-59785D01*
X98668Y-59836D01*
X98673Y-59810D01*
X98919Y-59912D01*
X98919Y-59912D01*
X99270Y-60057D01*
X99333Y-60209D01*
X98876Y-60568D01*
X98828Y-60454D01*
X98680Y-60393D01*
X98681Y-60391D01*
X98536Y-60331D01*
X98539Y-60312D01*
X98360Y-60238D01*
X98352Y-60241D01*
X98355Y-60269D01*
X98316Y-60253D01*
X98099Y-60342D01*
X98102Y-60356D01*
X97924Y-60429D01*
X97925Y-60431D01*
X97859Y-60459D01*
X97821Y-60550D01*
X97821Y-60550D01*
X97758Y-60704D01*
X97762Y-60716D01*
X97787Y-61015D01*
X98554D01*
X98554Y-60922D01*
X98562Y-60919D01*
X98943Y-61076D01*
X98943Y-61078D01*
X99251Y-61205D01*
X99259Y-61224D01*
X99264Y-61220D01*
X99392Y-61529D01*
X99392Y-61529D01*
X99524Y-61845D01*
X99519Y-61856D01*
X99514Y-61854D01*
X99519Y-61866D01*
X99383Y-62195D01*
X99383Y-62195D01*
X99262Y-62488D01*
X99219Y-62505D01*
X99229Y-62513D01*
X98890Y-62653D01*
X98891Y-62655D01*
X98479Y-62825D01*
X98479Y-62748D01*
X98466Y-62750D01*
X98231Y-62703D01*
X98227Y-62728D01*
X98036Y-62648D01*
X98036Y-62649D01*
X97853Y-62573D01*
X97797Y-62437D01*
X97787Y-62436D01*
Y-62687D01*
X97236D01*
Y-60748D01*
X97210Y-60747D01*
X97258Y-60509D01*
X97236Y-60505D01*
X97318Y-60307D01*
X97318Y-60307D01*
X97424Y-60050D01*
X97540Y-60002D01*
X97540Y-60000D01*
X97911Y-59847D01*
X97914Y-59861D01*
X98339Y-59777D01*
X98381Y-59785D01*
D02*
G37*
G36*
X86841D02*
X86840Y-59792D01*
X86873Y-59785D01*
X87128Y-59836D01*
X87133Y-59810D01*
X87379Y-59912D01*
X87379Y-59912D01*
X87730Y-60057D01*
X87793Y-60209D01*
X87336Y-60568D01*
X87288Y-60454D01*
X87140Y-60393D01*
X87141Y-60391D01*
X86996Y-60331D01*
X86999Y-60312D01*
X86820Y-60238D01*
X86812Y-60241D01*
X86815Y-60269D01*
X86776Y-60253D01*
X86559Y-60342D01*
X86562Y-60356D01*
X86384Y-60429D01*
X86385Y-60431D01*
X86319Y-60459D01*
X86281Y-60550D01*
X86281Y-60550D01*
X86217Y-60704D01*
X86222Y-60716D01*
X86247Y-61015D01*
X87014D01*
X87014Y-60922D01*
X87022Y-60919D01*
X87403Y-61076D01*
X87403Y-61078D01*
X87711Y-61205D01*
X87719Y-61224D01*
X87724Y-61220D01*
X87852Y-61529D01*
X87852Y-61529D01*
X87984Y-61845D01*
X87979Y-61856D01*
X87974Y-61854D01*
X87979Y-61866D01*
X87843Y-62195D01*
X87843Y-62195D01*
X87722Y-62488D01*
X87679Y-62505D01*
X87689Y-62513D01*
X87350Y-62653D01*
X87351Y-62655D01*
X86939Y-62825D01*
X86939Y-62748D01*
X86927Y-62750D01*
X86691Y-62703D01*
X86687Y-62728D01*
X86496Y-62648D01*
X86496Y-62649D01*
X86313Y-62573D01*
X86257Y-62437D01*
X86247Y-62436D01*
Y-62687D01*
X85696D01*
Y-60748D01*
X85670Y-60747D01*
X85718Y-60509D01*
X85696Y-60505D01*
X85778Y-60307D01*
X85884Y-60050D01*
X86000Y-60002D01*
X86000Y-60000D01*
X86371Y-59847D01*
X86374Y-59861D01*
X86799Y-59777D01*
X86841Y-59785D01*
D02*
G37*
G36*
X81914Y-59719D02*
X81914Y-59724D01*
X82317Y-59891D01*
X82328Y-59865D01*
X82329Y-59865D01*
X82710Y-60120D01*
X82730Y-60097D01*
X82802Y-60127D01*
X82879Y-60312D01*
X82882Y-60309D01*
X82990Y-60571D01*
X82998Y-60568D01*
X83062Y-60889D01*
X83064Y-60889D01*
X83137Y-61256D01*
X83134Y-61272D01*
X83134Y-61271D01*
X83138Y-61288D01*
X83061Y-61672D01*
X83059Y-61671D01*
X82993Y-62002D01*
X82981Y-61997D01*
X82871Y-62263D01*
X82866Y-62259D01*
X82813Y-62386D01*
X82682Y-62441D01*
X82672Y-62427D01*
X82367Y-62631D01*
X82261Y-62652D01*
X82257Y-62641D01*
X81827Y-62819D01*
X81827Y-62737D01*
X81823Y-62738D01*
X81268Y-62627D01*
X81277Y-62604D01*
X81006Y-62492D01*
X81001Y-62499D01*
X80800Y-62416D01*
X80751Y-62297D01*
X81216Y-61901D01*
X81166Y-61949D01*
X81174Y-61969D01*
X81506Y-62107D01*
X81506Y-62106D01*
X81833Y-62242D01*
X81838Y-62239D01*
X81837Y-62235D01*
X81847Y-62239D01*
X82106Y-62132D01*
X82106Y-62132D01*
X82350Y-62031D01*
X82347Y-62027D01*
X82367Y-62018D01*
X82465Y-61782D01*
X82466Y-61782D01*
X82586Y-61493D01*
X82578Y-61474D01*
X80748Y-61476D01*
Y-61007D01*
X80649Y-61009D01*
X80640Y-60986D01*
X80835Y-60514D01*
X80836Y-60515D01*
X81005Y-60106D01*
X81053Y-60086D01*
X81040Y-60073D01*
X81476Y-59892D01*
X81476Y-59892D01*
X81905Y-59715D01*
X81914Y-59719D01*
D02*
G37*
G36*
X98876Y-60569D02*
X98874Y-60570D01*
X98876Y-60568D01*
X98876Y-60569D01*
D02*
G37*
G36*
X87336D02*
X87334Y-60570D01*
X87336Y-60568D01*
X87336Y-60569D01*
D02*
G37*
G36*
X92939Y-60120D02*
X93271Y-59898D01*
X93273Y-59902D01*
X93659Y-59742D01*
X93671Y-59748D01*
X93670Y-59727D01*
X93678Y-59723D01*
X93917Y-59822D01*
X93916Y-59827D01*
X94123Y-59912D01*
X94123Y-59912D01*
X94400Y-60026D01*
X94455Y-60159D01*
X94453Y-60160D01*
X94607Y-60532D01*
X94590Y-60536D01*
X94646Y-60816D01*
X94646Y-60816D01*
X94699Y-61222D01*
X94695Y-61257D01*
X94696Y-61257D01*
X94701Y-61292D01*
X94647Y-61703D01*
X94647Y-61703D01*
X94590Y-61988D01*
X94607Y-61991D01*
X94453Y-62363D01*
X94452Y-62361D01*
X94396Y-62497D01*
X94122Y-62610D01*
X94122Y-62610D01*
X93916Y-62695D01*
X93918Y-62700D01*
X93678Y-62799D01*
X93670Y-62796D01*
X93671Y-62784D01*
X93660Y-62788D01*
X93271Y-62627D01*
X93270Y-62628D01*
X92920Y-62482D01*
X92895Y-62421D01*
X92939Y-62676D01*
X92369D01*
Y-58702D01*
X92939D01*
Y-60120D01*
D02*
G37*
G36*
X91122Y-62676D02*
X90619D01*
X90027Y-60695D01*
X90017D01*
X89424Y-62676D01*
X88922D01*
X88016Y-59844D01*
X88620D01*
X89162Y-61828D01*
X89174D01*
X89814Y-59844D01*
X90229D01*
X90870Y-61828D01*
X90881D01*
X91424Y-59844D01*
X92026D01*
X91122Y-62676D01*
D02*
G37*
G36*
X3141Y-2190D02*
X3171Y-2235D01*
X3235Y-2329D01*
X3303Y-2415D01*
X3370Y-2494D01*
X3404Y-2527D01*
X3434Y-2561D01*
X3464Y-2588D01*
X3486Y-2614D01*
X3505Y-2633D01*
X3524Y-2647D01*
X3531Y-2655D01*
X3535Y-2659D01*
X3651Y-2753D01*
X3768Y-2839D01*
X3884Y-2918D01*
X3993Y-2981D01*
X4041Y-3011D01*
X4086Y-3034D01*
X4124Y-3056D01*
X4157Y-3075D01*
X4188Y-3090D01*
X4206Y-3101D01*
X4221Y-3105D01*
X4225Y-3109D01*
Y-3562D01*
X4143Y-3529D01*
X4056Y-3491D01*
X3974Y-3450D01*
X3899Y-3413D01*
X3831Y-3379D01*
X3805Y-3364D01*
X3779Y-3349D01*
X3760Y-3337D01*
X3745Y-3330D01*
X3737Y-3322D01*
X3734D01*
X3636Y-3263D01*
X3546Y-3202D01*
X3467Y-3146D01*
X3404Y-3097D01*
X3351Y-3056D01*
X3314Y-3022D01*
X3303Y-3011D01*
X3291Y-3004D01*
X3288Y-2996D01*
X3284D01*
Y-6000D01*
X2811D01*
Y-2141D01*
X3119D01*
X3141Y-2190D01*
D02*
G37*
G36*
X11958Y-6000D02*
X11429D01*
X9925Y-2156D01*
X10442D01*
X11485Y-4950D01*
X11526Y-5066D01*
X11568Y-5183D01*
X11601Y-5288D01*
X11631Y-5381D01*
X11646Y-5426D01*
X11658Y-5464D01*
X11665Y-5497D01*
X11676Y-5528D01*
X11684Y-5550D01*
X11688Y-5565D01*
X11691Y-5576D01*
Y-5580D01*
X11725Y-5468D01*
X11759Y-5359D01*
X11793Y-5254D01*
X11823Y-5156D01*
X11838Y-5111D01*
X11852Y-5074D01*
X11864Y-5036D01*
X11875Y-5006D01*
X11883Y-4984D01*
X11890Y-4965D01*
X11894Y-4954D01*
Y-4950D01*
X12891Y-2156D01*
X13442D01*
X11958Y-6000D01*
D02*
G37*
G36*
X20500D02*
X19990D01*
Y-4294D01*
X19334D01*
X19274Y-4298D01*
X19225Y-4301D01*
X19187D01*
X19158Y-4305D01*
X19135Y-4309D01*
X19124Y-4312D01*
X19120D01*
X19075Y-4324D01*
X19034Y-4343D01*
X18996Y-4358D01*
X18962Y-4376D01*
X18933Y-4391D01*
X18910Y-4406D01*
X18895Y-4414D01*
X18891Y-4417D01*
X18846Y-4448D01*
X18801Y-4489D01*
X18760Y-4530D01*
X18719Y-4571D01*
X18685Y-4609D01*
X18655Y-4642D01*
X18640Y-4665D01*
X18632Y-4669D01*
Y-4673D01*
X18602Y-4710D01*
X18576Y-4747D01*
X18512Y-4834D01*
X18452Y-4920D01*
X18393Y-5006D01*
X18344Y-5081D01*
X18321Y-5115D01*
X18303Y-5145D01*
X18288Y-5167D01*
X18276Y-5186D01*
X18269Y-5198D01*
X18265Y-5201D01*
X17755Y-6000D01*
X17121D01*
X17785Y-4958D01*
X17860Y-4849D01*
X17935Y-4747D01*
X18006Y-4661D01*
X18070Y-4586D01*
X18100Y-4552D01*
X18126Y-4526D01*
X18149Y-4500D01*
X18168Y-4481D01*
X18182Y-4466D01*
X18194Y-4451D01*
X18201Y-4448D01*
X18205Y-4444D01*
X18250Y-4410D01*
X18299Y-4372D01*
X18348Y-4343D01*
X18396Y-4312D01*
X18441Y-4290D01*
X18479Y-4267D01*
X18494Y-4264D01*
X18505Y-4256D01*
X18509Y-4253D01*
X18512D01*
X18411Y-4237D01*
X18317Y-4215D01*
X18231Y-4192D01*
X18153Y-4166D01*
X18078Y-4136D01*
X18010Y-4106D01*
X17950Y-4076D01*
X17898Y-4046D01*
X17849Y-4016D01*
X17808Y-3990D01*
X17774Y-3964D01*
X17744Y-3941D01*
X17721Y-3923D01*
X17706Y-3907D01*
X17699Y-3900D01*
X17695Y-3896D01*
X17646Y-3844D01*
X17609Y-3788D01*
X17571Y-3728D01*
X17541Y-3671D01*
X17515Y-3611D01*
X17492Y-3555D01*
X17478Y-3499D01*
X17462Y-3446D01*
X17451Y-3398D01*
X17444Y-3349D01*
X17436Y-3311D01*
X17433Y-3274D01*
X17429Y-3247D01*
Y-3225D01*
Y-3210D01*
Y-3206D01*
Y-3146D01*
X17436Y-3090D01*
X17455Y-2981D01*
X17481Y-2884D01*
X17507Y-2798D01*
X17523Y-2760D01*
X17537Y-2730D01*
X17552Y-2700D01*
X17564Y-2674D01*
X17575Y-2655D01*
X17582Y-2640D01*
X17586Y-2633D01*
X17590Y-2629D01*
X17654Y-2539D01*
X17725Y-2460D01*
X17796Y-2396D01*
X17864Y-2348D01*
X17924Y-2310D01*
X17950Y-2295D01*
X17973Y-2280D01*
X17991Y-2272D01*
X18006Y-2265D01*
X18014Y-2261D01*
X18018D01*
X18070Y-2242D01*
X18126Y-2228D01*
X18250Y-2201D01*
X18381Y-2183D01*
X18509Y-2167D01*
X18565Y-2164D01*
X18621Y-2160D01*
X18670D01*
X18711Y-2156D01*
X20500D01*
Y-6000D01*
D02*
G37*
G36*
X16623D02*
X13754D01*
Y-5546D01*
X16113D01*
Y-4237D01*
X13986D01*
Y-3784D01*
X16113D01*
Y-2610D01*
X13844D01*
Y-2156D01*
X16623D01*
Y-6000D01*
D02*
G37*
G36*
X8395D02*
X7859D01*
X7439Y-4837D01*
X5826D01*
X5380Y-6000D01*
X4803D01*
X6374Y-2156D01*
X6925D01*
X8395Y-6000D01*
D02*
G37*
G36*
X68048Y-89701D02*
X67655D01*
Y-89249D01*
X68048D01*
Y-89701D01*
D02*
G37*
G36*
X6609Y-89240D02*
X6687Y-89246D01*
X6762Y-89258D01*
X6830Y-89274D01*
X6896Y-89293D01*
X6955Y-89311D01*
X7008Y-89333D01*
X7058Y-89355D01*
X7102Y-89377D01*
X7142Y-89399D01*
X7173Y-89417D01*
X7201Y-89436D01*
X7223Y-89452D01*
X7239Y-89464D01*
X7248Y-89470D01*
X7251Y-89474D01*
X7298Y-89520D01*
X7342Y-89570D01*
X7379Y-89623D01*
X7414Y-89679D01*
X7442Y-89739D01*
X7467Y-89795D01*
X7489Y-89851D01*
X7507Y-89904D01*
X7520Y-89957D01*
X7532Y-90004D01*
X7542Y-90048D01*
X7551Y-90085D01*
X7554Y-90116D01*
X7557Y-90141D01*
X7560Y-90154D01*
Y-90160D01*
X7158Y-90201D01*
X7155Y-90144D01*
X7152Y-90095D01*
X7142Y-90045D01*
X7133Y-90001D01*
X7117Y-89960D01*
X7105Y-89920D01*
X7089Y-89885D01*
X7074Y-89854D01*
X7058Y-89826D01*
X7042Y-89801D01*
X7027Y-89779D01*
X7014Y-89764D01*
X7005Y-89751D01*
X6995Y-89739D01*
X6992Y-89736D01*
X6989Y-89733D01*
X6955Y-89701D01*
X6921Y-89676D01*
X6883Y-89651D01*
X6846Y-89633D01*
X6771Y-89601D01*
X6696Y-89583D01*
X6665Y-89577D01*
X6634Y-89570D01*
X6605Y-89567D01*
X6581Y-89564D01*
X6562Y-89561D01*
X6534D01*
X6484Y-89564D01*
X6437Y-89567D01*
X6353Y-89586D01*
X6278Y-89611D01*
X6244Y-89626D01*
X6216Y-89642D01*
X6187Y-89658D01*
X6166Y-89673D01*
X6144Y-89686D01*
X6128Y-89698D01*
X6116Y-89708D01*
X6103Y-89717D01*
X6100Y-89720D01*
X6097Y-89723D01*
X6066Y-89754D01*
X6041Y-89786D01*
X6019Y-89820D01*
X6000Y-89851D01*
X5969Y-89917D01*
X5950Y-89979D01*
X5938Y-90035D01*
X5935Y-90057D01*
X5932Y-90076D01*
X5928Y-90095D01*
Y-90107D01*
Y-90113D01*
Y-90116D01*
X5932Y-90157D01*
X5938Y-90201D01*
X5947Y-90241D01*
X5957Y-90285D01*
X5988Y-90363D01*
X6022Y-90435D01*
X6041Y-90466D01*
X6056Y-90497D01*
X6072Y-90522D01*
X6088Y-90544D01*
X6097Y-90562D01*
X6106Y-90575D01*
X6113Y-90584D01*
X6116Y-90588D01*
X6153Y-90637D01*
X6200Y-90687D01*
X6250Y-90743D01*
X6303Y-90800D01*
X6418Y-90912D01*
X6537Y-91021D01*
X6593Y-91071D01*
X6646Y-91118D01*
X6693Y-91162D01*
X6737Y-91196D01*
X6771Y-91227D01*
X6799Y-91249D01*
X6815Y-91261D01*
X6821Y-91268D01*
X6880Y-91317D01*
X6939Y-91367D01*
X6992Y-91414D01*
X7042Y-91458D01*
X7086Y-91502D01*
X7130Y-91542D01*
X7167Y-91580D01*
X7201Y-91611D01*
X7233Y-91642D01*
X7258Y-91670D01*
X7279Y-91695D01*
X7298Y-91714D01*
X7314Y-91729D01*
X7323Y-91742D01*
X7329Y-91748D01*
X7333Y-91751D01*
X7395Y-91829D01*
X7448Y-91904D01*
X7492Y-91976D01*
X7529Y-92041D01*
X7557Y-92098D01*
X7566Y-92119D01*
X7576Y-92138D01*
X7582Y-92154D01*
X7588Y-92166D01*
X7591Y-92172D01*
Y-92176D01*
X7607Y-92225D01*
X7620Y-92272D01*
X7626Y-92319D01*
X7632Y-92360D01*
X7635Y-92397D01*
Y-92422D01*
Y-92441D01*
Y-92444D01*
Y-92447D01*
X5523D01*
Y-92069D01*
X7092D01*
X7067Y-92029D01*
X7039Y-91991D01*
X7011Y-91957D01*
X6986Y-91923D01*
X6961Y-91898D01*
X6943Y-91876D01*
X6930Y-91860D01*
X6927Y-91857D01*
X6905Y-91835D01*
X6877Y-91811D01*
X6846Y-91779D01*
X6811Y-91748D01*
X6737Y-91683D01*
X6662Y-91617D01*
X6587Y-91555D01*
X6556Y-91527D01*
X6527Y-91502D01*
X6506Y-91483D01*
X6487Y-91467D01*
X6475Y-91458D01*
X6471Y-91455D01*
X6397Y-91389D01*
X6325Y-91330D01*
X6259Y-91271D01*
X6200Y-91218D01*
X6144Y-91168D01*
X6097Y-91121D01*
X6050Y-91077D01*
X6013Y-91040D01*
X5978Y-91005D01*
X5947Y-90977D01*
X5925Y-90952D01*
X5903Y-90931D01*
X5888Y-90915D01*
X5879Y-90903D01*
X5872Y-90896D01*
X5869Y-90893D01*
X5804Y-90818D01*
X5751Y-90747D01*
X5704Y-90678D01*
X5669Y-90622D01*
X5641Y-90572D01*
X5632Y-90553D01*
X5623Y-90534D01*
X5616Y-90522D01*
X5610Y-90513D01*
X5607Y-90506D01*
Y-90503D01*
X5579Y-90435D01*
X5560Y-90366D01*
X5545Y-90300D01*
X5535Y-90244D01*
X5529Y-90194D01*
Y-90176D01*
X5526Y-90157D01*
Y-90144D01*
Y-90135D01*
Y-90129D01*
Y-90126D01*
X5529Y-90057D01*
X5539Y-89991D01*
X5551Y-89926D01*
X5567Y-89867D01*
X5588Y-89811D01*
X5610Y-89761D01*
X5635Y-89711D01*
X5660Y-89667D01*
X5685Y-89626D01*
X5710Y-89592D01*
X5732Y-89564D01*
X5754Y-89539D01*
X5769Y-89517D01*
X5782Y-89505D01*
X5791Y-89495D01*
X5794Y-89492D01*
X5847Y-89449D01*
X5903Y-89408D01*
X5960Y-89374D01*
X6022Y-89346D01*
X6081Y-89321D01*
X6144Y-89299D01*
X6203Y-89283D01*
X6259Y-89268D01*
X6315Y-89258D01*
X6365Y-89249D01*
X6409Y-89243D01*
X6446Y-89240D01*
X6481D01*
X6503Y-89236D01*
X6524D01*
X6609Y-89240D01*
D02*
G37*
G36*
X21064Y-92447D02*
X20639D01*
Y-90940D01*
X18979D01*
Y-92447D01*
X18555D01*
Y-89249D01*
X18979D01*
Y-90562D01*
X20639D01*
Y-89249D01*
X21064D01*
Y-92447D01*
D02*
G37*
G36*
X26246Y-91486D02*
X25038D01*
Y-91090D01*
X26246D01*
Y-91486D01*
D02*
G37*
G36*
X15572D02*
X14365D01*
Y-91090D01*
X15572D01*
Y-91486D01*
D02*
G37*
G36*
X29272Y-92447D02*
X28867D01*
Y-89938D01*
X27188Y-92447D01*
X26751D01*
Y-89249D01*
X27157D01*
Y-91761D01*
X28839Y-89249D01*
X29272D01*
Y-92447D01*
D02*
G37*
G36*
X9070D02*
X8702D01*
X7822Y-90129D01*
X8228D01*
X8743Y-91545D01*
X8777Y-91639D01*
X8805Y-91723D01*
X8830Y-91798D01*
X8852Y-91860D01*
X8861Y-91888D01*
X8867Y-91913D01*
X8874Y-91935D01*
X8880Y-91951D01*
X8883Y-91966D01*
X8886Y-91976D01*
X8889Y-91982D01*
Y-91985D01*
X8914Y-91895D01*
X8942Y-91811D01*
X8967Y-91733D01*
X8989Y-91661D01*
X8999Y-91629D01*
X9008Y-91601D01*
X9014Y-91576D01*
X9024Y-91558D01*
X9030Y-91539D01*
X9033Y-91527D01*
X9036Y-91520D01*
Y-91517D01*
X9535Y-90129D01*
X9947D01*
X9070Y-92447D01*
D02*
G37*
G36*
X37391Y-89196D02*
X37469Y-89202D01*
X37540Y-89211D01*
X37612Y-89224D01*
X37681Y-89236D01*
X37746Y-89255D01*
X37806Y-89271D01*
X37859Y-89289D01*
X37912Y-89308D01*
X37955Y-89324D01*
X37996Y-89343D01*
X38027Y-89355D01*
X38055Y-89368D01*
X38074Y-89377D01*
X38086Y-89383D01*
X38089Y-89386D01*
X38155Y-89424D01*
X38214Y-89467D01*
X38270Y-89511D01*
X38323Y-89558D01*
X38370Y-89605D01*
X38417Y-89651D01*
X38458Y-89698D01*
X38492Y-89742D01*
X38526Y-89786D01*
X38554Y-89826D01*
X38576Y-89860D01*
X38598Y-89892D01*
X38614Y-89917D01*
X38623Y-89938D01*
X38629Y-89951D01*
X38632Y-89954D01*
X38667Y-90026D01*
X38695Y-90098D01*
X38720Y-90172D01*
X38741Y-90247D01*
X38760Y-90319D01*
X38776Y-90394D01*
X38788Y-90463D01*
X38798Y-90528D01*
X38807Y-90591D01*
X38813Y-90647D01*
X38816Y-90697D01*
X38820Y-90740D01*
X38823Y-90775D01*
Y-90803D01*
Y-90818D01*
Y-90825D01*
X38820Y-90909D01*
X38816Y-90993D01*
X38807Y-91074D01*
X38798Y-91152D01*
X38782Y-91227D01*
X38770Y-91299D01*
X38754Y-91364D01*
X38738Y-91427D01*
X38723Y-91483D01*
X38707Y-91533D01*
X38692Y-91576D01*
X38679Y-91614D01*
X38670Y-91642D01*
X38660Y-91664D01*
X38657Y-91676D01*
X38654Y-91683D01*
X38620Y-91754D01*
X38585Y-91823D01*
X38545Y-91885D01*
X38508Y-91945D01*
X38467Y-92001D01*
X38426Y-92051D01*
X38386Y-92094D01*
X38345Y-92135D01*
X38308Y-92172D01*
X38274Y-92204D01*
X38245Y-92232D01*
X38217Y-92250D01*
X38195Y-92269D01*
X38177Y-92282D01*
X38167Y-92288D01*
X38164Y-92291D01*
X38102Y-92328D01*
X38036Y-92360D01*
X37965Y-92388D01*
X37896Y-92413D01*
X37824Y-92431D01*
X37756Y-92450D01*
X37687Y-92463D01*
X37621Y-92475D01*
X37559Y-92481D01*
X37503Y-92488D01*
X37453Y-92494D01*
X37409Y-92497D01*
X37372Y-92500D01*
X37322D01*
X37231Y-92497D01*
X37141Y-92488D01*
X37060Y-92475D01*
X36979Y-92456D01*
X36904Y-92438D01*
X36835Y-92413D01*
X36770Y-92391D01*
X36710Y-92363D01*
X36661Y-92338D01*
X36614Y-92313D01*
X36573Y-92291D01*
X36539Y-92272D01*
X36511Y-92254D01*
X36492Y-92241D01*
X36479Y-92232D01*
X36476Y-92229D01*
X36414Y-92176D01*
X36355Y-92116D01*
X36305Y-92054D01*
X36255Y-91988D01*
X36211Y-91923D01*
X36171Y-91857D01*
X36136Y-91792D01*
X36105Y-91726D01*
X36080Y-91667D01*
X36055Y-91611D01*
X36037Y-91561D01*
X36021Y-91517D01*
X36011Y-91483D01*
X36002Y-91455D01*
X35996Y-91439D01*
Y-91433D01*
X36420Y-91327D01*
X36439Y-91399D01*
X36461Y-91467D01*
X36483Y-91533D01*
X36508Y-91592D01*
X36536Y-91645D01*
X36564Y-91695D01*
X36592Y-91742D01*
X36620Y-91782D01*
X36645Y-91817D01*
X36670Y-91848D01*
X36695Y-91876D01*
X36713Y-91898D01*
X36729Y-91913D01*
X36745Y-91926D01*
X36751Y-91932D01*
X36754Y-91935D01*
X36801Y-91970D01*
X36851Y-92001D01*
X36901Y-92029D01*
X36951Y-92054D01*
X37004Y-92073D01*
X37054Y-92088D01*
X37147Y-92113D01*
X37191Y-92123D01*
X37231Y-92129D01*
X37266Y-92132D01*
X37297Y-92135D01*
X37322Y-92138D01*
X37356D01*
X37409Y-92135D01*
X37462Y-92132D01*
X37565Y-92113D01*
X37656Y-92091D01*
X37699Y-92076D01*
X37737Y-92063D01*
X37774Y-92048D01*
X37806Y-92035D01*
X37834Y-92023D01*
X37855Y-92010D01*
X37874Y-92001D01*
X37887Y-91995D01*
X37896Y-91991D01*
X37899Y-91988D01*
X37943Y-91957D01*
X37986Y-91926D01*
X38061Y-91854D01*
X38124Y-91779D01*
X38177Y-91704D01*
X38217Y-91639D01*
X38233Y-91611D01*
X38245Y-91586D01*
X38255Y-91564D01*
X38261Y-91548D01*
X38267Y-91539D01*
Y-91536D01*
X38308Y-91417D01*
X38336Y-91296D01*
X38358Y-91174D01*
X38364Y-91118D01*
X38370Y-91065D01*
X38377Y-91012D01*
X38380Y-90968D01*
X38383Y-90924D01*
Y-90890D01*
X38386Y-90862D01*
Y-90840D01*
Y-90825D01*
Y-90821D01*
X38383Y-90706D01*
X38370Y-90594D01*
X38355Y-90491D01*
X38345Y-90441D01*
X38336Y-90397D01*
X38327Y-90357D01*
X38317Y-90319D01*
X38308Y-90288D01*
X38302Y-90260D01*
X38295Y-90238D01*
X38289Y-90222D01*
X38286Y-90213D01*
Y-90210D01*
X38264Y-90154D01*
X38242Y-90104D01*
X38217Y-90054D01*
X38189Y-90010D01*
X38161Y-89967D01*
X38133Y-89926D01*
X38105Y-89892D01*
X38074Y-89857D01*
X38049Y-89829D01*
X38024Y-89804D01*
X37999Y-89783D01*
X37980Y-89764D01*
X37962Y-89751D01*
X37949Y-89742D01*
X37943Y-89736D01*
X37940Y-89733D01*
X37893Y-89701D01*
X37843Y-89673D01*
X37790Y-89651D01*
X37740Y-89630D01*
X37687Y-89611D01*
X37637Y-89598D01*
X37537Y-89577D01*
X37494Y-89570D01*
X37453Y-89564D01*
X37416Y-89561D01*
X37384Y-89558D01*
X37356Y-89555D01*
X37322D01*
X37263Y-89558D01*
X37207Y-89561D01*
X37104Y-89580D01*
X37057Y-89592D01*
X37013Y-89605D01*
X36972Y-89620D01*
X36938Y-89636D01*
X36904Y-89651D01*
X36876Y-89667D01*
X36851Y-89679D01*
X36829Y-89692D01*
X36813Y-89701D01*
X36801Y-89711D01*
X36795Y-89714D01*
X36792Y-89717D01*
X36754Y-89748D01*
X36717Y-89786D01*
X36651Y-89864D01*
X36595Y-89948D01*
X36548Y-90029D01*
X36529Y-90070D01*
X36514Y-90104D01*
X36498Y-90138D01*
X36489Y-90166D01*
X36479Y-90188D01*
X36473Y-90207D01*
X36467Y-90219D01*
Y-90222D01*
X36049Y-90126D01*
X36077Y-90045D01*
X36105Y-89970D01*
X36139Y-89898D01*
X36177Y-89832D01*
X36214Y-89770D01*
X36252Y-89714D01*
X36289Y-89664D01*
X36327Y-89617D01*
X36364Y-89577D01*
X36398Y-89539D01*
X36426Y-89508D01*
X36455Y-89483D01*
X36476Y-89464D01*
X36492Y-89452D01*
X36505Y-89442D01*
X36508Y-89439D01*
X36570Y-89396D01*
X36636Y-89358D01*
X36704Y-89324D01*
X36773Y-89296D01*
X36838Y-89274D01*
X36907Y-89252D01*
X36972Y-89236D01*
X37032Y-89224D01*
X37091Y-89215D01*
X37144Y-89205D01*
X37191Y-89199D01*
X37231Y-89196D01*
X37266Y-89193D01*
X37313D01*
X37391Y-89196D01*
D02*
G37*
G36*
X51421Y-91567D02*
Y-91654D01*
X51418Y-91729D01*
X51415Y-91792D01*
X51409Y-91845D01*
X51406Y-91885D01*
X51402Y-91913D01*
X51399Y-91929D01*
Y-91935D01*
X51384Y-91998D01*
X51365Y-92054D01*
X51346Y-92104D01*
X51328Y-92144D01*
X51309Y-92179D01*
X51293Y-92204D01*
X51284Y-92219D01*
X51281Y-92225D01*
X51243Y-92269D01*
X51203Y-92307D01*
X51159Y-92341D01*
X51115Y-92369D01*
X51075Y-92391D01*
X51044Y-92406D01*
X51031Y-92413D01*
X51022Y-92419D01*
X51019Y-92422D01*
X51016D01*
X50947Y-92447D01*
X50881Y-92466D01*
X50816Y-92481D01*
X50757Y-92491D01*
X50707Y-92497D01*
X50685D01*
X50666Y-92500D01*
X50632D01*
X50548Y-92497D01*
X50467Y-92484D01*
X50392Y-92463D01*
X50323Y-92438D01*
X50257Y-92409D01*
X50198Y-92375D01*
X50142Y-92341D01*
X50092Y-92303D01*
X50048Y-92269D01*
X50008Y-92235D01*
X49977Y-92200D01*
X49949Y-92169D01*
X49927Y-92147D01*
X49911Y-92126D01*
X49902Y-92113D01*
X49899Y-92110D01*
Y-92447D01*
X49546D01*
Y-90129D01*
X49939D01*
Y-91374D01*
Y-91427D01*
X49942Y-91477D01*
X49945Y-91527D01*
X49949Y-91570D01*
X49955Y-91611D01*
X49961Y-91648D01*
X49967Y-91679D01*
X49970Y-91711D01*
X49977Y-91739D01*
X49983Y-91761D01*
X49989Y-91779D01*
X49995Y-91798D01*
X49999Y-91811D01*
X50002Y-91820D01*
X50005Y-91823D01*
Y-91826D01*
X50033Y-91882D01*
X50067Y-91929D01*
X50105Y-91973D01*
X50139Y-92007D01*
X50173Y-92035D01*
X50201Y-92057D01*
X50220Y-92069D01*
X50223Y-92073D01*
X50226D01*
X50286Y-92104D01*
X50342Y-92126D01*
X50398Y-92141D01*
X50448Y-92151D01*
X50491Y-92157D01*
X50523Y-92163D01*
X50554D01*
X50616Y-92160D01*
X50672Y-92151D01*
X50725Y-92135D01*
X50766Y-92119D01*
X50803Y-92104D01*
X50828Y-92088D01*
X50844Y-92079D01*
X50850Y-92076D01*
X50891Y-92041D01*
X50925Y-92001D01*
X50950Y-91960D01*
X50972Y-91920D01*
X50987Y-91885D01*
X50997Y-91857D01*
X51003Y-91839D01*
X51006Y-91835D01*
Y-91832D01*
X51009Y-91811D01*
X51012Y-91782D01*
X51016Y-91754D01*
X51019Y-91723D01*
X51022Y-91654D01*
X51025Y-91586D01*
X51028Y-91520D01*
Y-91492D01*
Y-91467D01*
Y-91445D01*
Y-91430D01*
Y-91421D01*
Y-91417D01*
Y-90129D01*
X51421D01*
Y-91567D01*
D02*
G37*
G36*
X66232Y-90082D02*
X66335Y-90098D01*
X66428Y-90123D01*
X66472Y-90135D01*
X66513Y-90148D01*
X66550Y-90160D01*
X66581Y-90172D01*
X66609Y-90185D01*
X66634Y-90197D01*
X66653Y-90207D01*
X66666Y-90213D01*
X66675Y-90216D01*
X66678Y-90219D01*
X66725Y-90247D01*
X66765Y-90279D01*
X66843Y-90344D01*
X66909Y-90413D01*
X66962Y-90481D01*
X67002Y-90544D01*
X67018Y-90572D01*
X67031Y-90594D01*
X67043Y-90612D01*
X67049Y-90628D01*
X67052Y-90637D01*
X67055Y-90640D01*
X67096Y-90750D01*
X67127Y-90862D01*
X67146Y-90971D01*
X67155Y-91024D01*
X67162Y-91074D01*
X67168Y-91121D01*
X67171Y-91165D01*
X67174Y-91202D01*
Y-91236D01*
X67177Y-91261D01*
Y-91283D01*
Y-91296D01*
Y-91299D01*
X67174Y-91405D01*
X67165Y-91505D01*
X67149Y-91595D01*
X67133Y-91683D01*
X67112Y-91764D01*
X67087Y-91835D01*
X67062Y-91904D01*
X67034Y-91963D01*
X67006Y-92016D01*
X66981Y-92063D01*
X66956Y-92101D01*
X66934Y-92132D01*
X66915Y-92160D01*
X66903Y-92176D01*
X66893Y-92188D01*
X66890Y-92191D01*
X66834Y-92244D01*
X66775Y-92294D01*
X66712Y-92335D01*
X66647Y-92369D01*
X66584Y-92400D01*
X66522Y-92425D01*
X66460Y-92444D01*
X66400Y-92463D01*
X66344Y-92475D01*
X66291Y-92484D01*
X66244Y-92491D01*
X66204Y-92494D01*
X66173Y-92497D01*
X66148Y-92500D01*
X66126D01*
X66057Y-92497D01*
X65988Y-92491D01*
X65926Y-92478D01*
X65864Y-92466D01*
X65807Y-92447D01*
X65754Y-92428D01*
X65708Y-92409D01*
X65664Y-92388D01*
X65623Y-92366D01*
X65589Y-92347D01*
X65558Y-92328D01*
X65533Y-92310D01*
X65511Y-92297D01*
X65499Y-92285D01*
X65489Y-92278D01*
X65486Y-92275D01*
X65439Y-92232D01*
X65396Y-92185D01*
X65358Y-92135D01*
X65324Y-92082D01*
X65293Y-92032D01*
X65268Y-91979D01*
X65243Y-91929D01*
X65224Y-91879D01*
X65209Y-91832D01*
X65193Y-91789D01*
X65180Y-91751D01*
X65174Y-91717D01*
X65165Y-91689D01*
X65162Y-91670D01*
X65159Y-91654D01*
Y-91651D01*
X65545Y-91598D01*
X65555Y-91651D01*
X65567Y-91701D01*
X65580Y-91748D01*
X65595Y-91792D01*
X65611Y-91832D01*
X65627Y-91867D01*
X65645Y-91901D01*
X65661Y-91929D01*
X65676Y-91954D01*
X65692Y-91976D01*
X65708Y-91995D01*
X65720Y-92010D01*
X65729Y-92023D01*
X65739Y-92032D01*
X65742Y-92035D01*
X65745Y-92038D01*
X65773Y-92063D01*
X65804Y-92085D01*
X65870Y-92119D01*
X65932Y-92144D01*
X65995Y-92160D01*
X66048Y-92172D01*
X66070Y-92176D01*
X66091D01*
X66107Y-92179D01*
X66129D01*
X66182Y-92176D01*
X66232Y-92169D01*
X66279Y-92160D01*
X66325Y-92144D01*
X66366Y-92129D01*
X66403Y-92110D01*
X66441Y-92091D01*
X66472Y-92073D01*
X66500Y-92054D01*
X66525Y-92032D01*
X66547Y-92016D01*
X66566Y-92001D01*
X66578Y-91985D01*
X66588Y-91976D01*
X66594Y-91970D01*
X66597Y-91966D01*
X66628Y-91923D01*
X66656Y-91876D01*
X66678Y-91826D01*
X66700Y-91770D01*
X66715Y-91714D01*
X66731Y-91658D01*
X66753Y-91545D01*
X66759Y-91495D01*
X66765Y-91445D01*
X66768Y-91402D01*
X66772Y-91361D01*
X66775Y-91330D01*
Y-91308D01*
Y-91293D01*
Y-91286D01*
X66772Y-91202D01*
X66765Y-91124D01*
X66759Y-91052D01*
X66747Y-90987D01*
X66731Y-90924D01*
X66715Y-90871D01*
X66700Y-90821D01*
X66681Y-90775D01*
X66666Y-90737D01*
X66650Y-90703D01*
X66634Y-90675D01*
X66619Y-90653D01*
X66606Y-90634D01*
X66600Y-90622D01*
X66594Y-90615D01*
X66591Y-90612D01*
X66553Y-90575D01*
X66516Y-90541D01*
X66475Y-90513D01*
X66435Y-90488D01*
X66394Y-90466D01*
X66357Y-90450D01*
X66316Y-90435D01*
X66279Y-90425D01*
X66244Y-90416D01*
X66210Y-90410D01*
X66182Y-90403D01*
X66157Y-90400D01*
X66135Y-90397D01*
X66107D01*
X66035Y-90403D01*
X65973Y-90416D01*
X65914Y-90435D01*
X65867Y-90456D01*
X65826Y-90478D01*
X65798Y-90497D01*
X65779Y-90509D01*
X65773Y-90516D01*
X65723Y-90566D01*
X65683Y-90622D01*
X65648Y-90678D01*
X65623Y-90737D01*
X65602Y-90787D01*
X65595Y-90809D01*
X65586Y-90831D01*
X65583Y-90846D01*
X65580Y-90859D01*
X65577Y-90865D01*
Y-90868D01*
X65196Y-90809D01*
X65212Y-90747D01*
X65230Y-90684D01*
X65249Y-90628D01*
X65274Y-90578D01*
X65299Y-90528D01*
X65324Y-90484D01*
X65349Y-90444D01*
X65377Y-90407D01*
X65402Y-90375D01*
X65424Y-90347D01*
X65446Y-90325D01*
X65467Y-90303D01*
X65483Y-90288D01*
X65496Y-90279D01*
X65502Y-90272D01*
X65505Y-90269D01*
X65552Y-90235D01*
X65602Y-90207D01*
X65652Y-90179D01*
X65701Y-90157D01*
X65754Y-90138D01*
X65804Y-90123D01*
X65904Y-90101D01*
X65948Y-90091D01*
X65992Y-90085D01*
X66029Y-90082D01*
X66060Y-90079D01*
X66085Y-90076D01*
X66179D01*
X66232Y-90082D01*
D02*
G37*
G36*
X63960Y-90079D02*
X64045Y-90088D01*
X64123Y-90107D01*
X64198Y-90126D01*
X64266Y-90151D01*
X64332Y-90179D01*
X64391Y-90207D01*
X64444Y-90238D01*
X64494Y-90269D01*
X64535Y-90297D01*
X64572Y-90325D01*
X64600Y-90350D01*
X64625Y-90369D01*
X64641Y-90385D01*
X64653Y-90397D01*
X64656Y-90400D01*
X64709Y-90463D01*
X64756Y-90531D01*
X64793Y-90603D01*
X64828Y-90678D01*
X64859Y-90756D01*
X64884Y-90831D01*
X64903Y-90906D01*
X64918Y-90974D01*
X64931Y-91043D01*
X64940Y-91105D01*
X64946Y-91162D01*
X64950Y-91211D01*
X64953Y-91252D01*
X64956Y-91283D01*
Y-91302D01*
Y-91305D01*
Y-91308D01*
X64953Y-91411D01*
X64943Y-91508D01*
X64928Y-91601D01*
X64909Y-91686D01*
X64887Y-91764D01*
X64862Y-91835D01*
X64834Y-91901D01*
X64806Y-91960D01*
X64781Y-92013D01*
X64753Y-92060D01*
X64728Y-92098D01*
X64706Y-92129D01*
X64687Y-92157D01*
X64672Y-92172D01*
X64662Y-92185D01*
X64659Y-92188D01*
X64600Y-92244D01*
X64538Y-92291D01*
X64472Y-92331D01*
X64407Y-92369D01*
X64338Y-92397D01*
X64272Y-92425D01*
X64207Y-92444D01*
X64141Y-92459D01*
X64082Y-92475D01*
X64029Y-92484D01*
X63979Y-92491D01*
X63936Y-92494D01*
X63901Y-92497D01*
X63873Y-92500D01*
X63851D01*
X63776Y-92497D01*
X63708Y-92491D01*
X63642Y-92481D01*
X63577Y-92469D01*
X63521Y-92456D01*
X63464Y-92438D01*
X63415Y-92422D01*
X63371Y-92403D01*
X63330Y-92385D01*
X63293Y-92369D01*
X63262Y-92350D01*
X63237Y-92338D01*
X63215Y-92325D01*
X63202Y-92316D01*
X63193Y-92310D01*
X63190Y-92307D01*
X63143Y-92269D01*
X63099Y-92225D01*
X63059Y-92182D01*
X63024Y-92138D01*
X62990Y-92091D01*
X62962Y-92045D01*
X62937Y-91998D01*
X62912Y-91954D01*
X62893Y-91913D01*
X62878Y-91876D01*
X62862Y-91842D01*
X62853Y-91811D01*
X62844Y-91786D01*
X62837Y-91767D01*
X62834Y-91754D01*
Y-91751D01*
X63240Y-91698D01*
X63258Y-91745D01*
X63277Y-91786D01*
X63296Y-91826D01*
X63315Y-91864D01*
X63355Y-91926D01*
X63396Y-91976D01*
X63430Y-92016D01*
X63458Y-92045D01*
X63477Y-92060D01*
X63480Y-92066D01*
X63483D01*
X63542Y-92104D01*
X63605Y-92132D01*
X63667Y-92151D01*
X63723Y-92163D01*
X63776Y-92172D01*
X63795Y-92176D01*
X63814D01*
X63829Y-92179D01*
X63851D01*
X63904Y-92176D01*
X63957Y-92169D01*
X64004Y-92160D01*
X64051Y-92147D01*
X64095Y-92132D01*
X64135Y-92113D01*
X64170Y-92098D01*
X64204Y-92076D01*
X64235Y-92057D01*
X64260Y-92041D01*
X64285Y-92023D01*
X64304Y-92007D01*
X64319Y-91995D01*
X64329Y-91985D01*
X64335Y-91979D01*
X64338Y-91976D01*
X64372Y-91935D01*
X64403Y-91892D01*
X64429Y-91845D01*
X64453Y-91798D01*
X64472Y-91751D01*
X64491Y-91701D01*
X64519Y-91608D01*
X64528Y-91561D01*
X64535Y-91520D01*
X64541Y-91483D01*
X64547Y-91452D01*
X64550Y-91427D01*
X64553Y-91405D01*
Y-91392D01*
Y-91389D01*
X62822D01*
Y-91364D01*
X62819Y-91346D01*
Y-91327D01*
Y-91311D01*
Y-91302D01*
Y-91293D01*
Y-91286D01*
X62822Y-91180D01*
X62831Y-91084D01*
X62847Y-90990D01*
X62865Y-90906D01*
X62887Y-90825D01*
X62912Y-90753D01*
X62940Y-90684D01*
X62965Y-90625D01*
X62993Y-90572D01*
X63021Y-90525D01*
X63046Y-90484D01*
X63068Y-90453D01*
X63087Y-90428D01*
X63103Y-90410D01*
X63112Y-90397D01*
X63115Y-90394D01*
X63171Y-90338D01*
X63230Y-90288D01*
X63293Y-90247D01*
X63358Y-90210D01*
X63421Y-90179D01*
X63483Y-90154D01*
X63546Y-90132D01*
X63605Y-90116D01*
X63658Y-90104D01*
X63711Y-90091D01*
X63758Y-90085D01*
X63795Y-90082D01*
X63829Y-90079D01*
X63851Y-90076D01*
X63873D01*
X63960Y-90079D01*
D02*
G37*
G36*
X56760D02*
X56844Y-90088D01*
X56922Y-90107D01*
X56997Y-90126D01*
X57065Y-90151D01*
X57131Y-90179D01*
X57190Y-90207D01*
X57243Y-90238D01*
X57293Y-90269D01*
X57334Y-90297D01*
X57371Y-90325D01*
X57399Y-90350D01*
X57424Y-90369D01*
X57440Y-90385D01*
X57452Y-90397D01*
X57455Y-90400D01*
X57508Y-90463D01*
X57555Y-90531D01*
X57593Y-90603D01*
X57627Y-90678D01*
X57658Y-90756D01*
X57683Y-90831D01*
X57702Y-90906D01*
X57717Y-90974D01*
X57730Y-91043D01*
X57739Y-91105D01*
X57745Y-91162D01*
X57749Y-91211D01*
X57752Y-91252D01*
X57755Y-91283D01*
Y-91302D01*
Y-91305D01*
Y-91308D01*
X57752Y-91411D01*
X57742Y-91508D01*
X57727Y-91601D01*
X57708Y-91686D01*
X57686Y-91764D01*
X57661Y-91835D01*
X57633Y-91901D01*
X57605Y-91960D01*
X57580Y-92013D01*
X57552Y-92060D01*
X57527Y-92098D01*
X57505Y-92129D01*
X57486Y-92157D01*
X57471Y-92172D01*
X57462Y-92185D01*
X57458Y-92188D01*
X57399Y-92244D01*
X57337Y-92291D01*
X57271Y-92331D01*
X57206Y-92369D01*
X57137Y-92397D01*
X57072Y-92425D01*
X57006Y-92444D01*
X56941Y-92459D01*
X56881Y-92475D01*
X56828Y-92484D01*
X56778Y-92491D01*
X56735Y-92494D01*
X56700Y-92497D01*
X56672Y-92500D01*
X56650D01*
X56575Y-92497D01*
X56507Y-92491D01*
X56441Y-92481D01*
X56376Y-92469D01*
X56320Y-92456D01*
X56263Y-92438D01*
X56213Y-92422D01*
X56170Y-92403D01*
X56129Y-92385D01*
X56092Y-92369D01*
X56061Y-92350D01*
X56036Y-92338D01*
X56014Y-92325D01*
X56001Y-92316D01*
X55992Y-92310D01*
X55989Y-92307D01*
X55942Y-92269D01*
X55898Y-92225D01*
X55858Y-92182D01*
X55823Y-92138D01*
X55789Y-92091D01*
X55761Y-92045D01*
X55736Y-91998D01*
X55711Y-91954D01*
X55692Y-91913D01*
X55677Y-91876D01*
X55661Y-91842D01*
X55652Y-91811D01*
X55643Y-91786D01*
X55636Y-91767D01*
X55633Y-91754D01*
Y-91751D01*
X56039Y-91698D01*
X56058Y-91745D01*
X56076Y-91786D01*
X56095Y-91826D01*
X56114Y-91864D01*
X56154Y-91926D01*
X56195Y-91976D01*
X56229Y-92016D01*
X56257Y-92045D01*
X56276Y-92060D01*
X56279Y-92066D01*
X56282D01*
X56341Y-92104D01*
X56404Y-92132D01*
X56466Y-92151D01*
X56522Y-92163D01*
X56575Y-92172D01*
X56594Y-92176D01*
X56613D01*
X56629Y-92179D01*
X56650D01*
X56703Y-92176D01*
X56756Y-92169D01*
X56803Y-92160D01*
X56850Y-92147D01*
X56894Y-92132D01*
X56934Y-92113D01*
X56969Y-92098D01*
X57003Y-92076D01*
X57034Y-92057D01*
X57059Y-92041D01*
X57084Y-92023D01*
X57103Y-92007D01*
X57118Y-91995D01*
X57128Y-91985D01*
X57134Y-91979D01*
X57137Y-91976D01*
X57171Y-91935D01*
X57203Y-91892D01*
X57227Y-91845D01*
X57253Y-91798D01*
X57271Y-91751D01*
X57290Y-91701D01*
X57318Y-91608D01*
X57327Y-91561D01*
X57334Y-91520D01*
X57340Y-91483D01*
X57346Y-91452D01*
X57349Y-91427D01*
X57352Y-91405D01*
Y-91392D01*
Y-91389D01*
X55621D01*
Y-91364D01*
X55618Y-91346D01*
Y-91327D01*
Y-91311D01*
Y-91302D01*
Y-91293D01*
Y-91286D01*
X55621Y-91180D01*
X55630Y-91084D01*
X55646Y-90990D01*
X55664Y-90906D01*
X55686Y-90825D01*
X55711Y-90753D01*
X55739Y-90684D01*
X55764Y-90625D01*
X55792Y-90572D01*
X55820Y-90525D01*
X55845Y-90484D01*
X55867Y-90453D01*
X55886Y-90428D01*
X55901Y-90410D01*
X55911Y-90397D01*
X55914Y-90394D01*
X55970Y-90338D01*
X56029Y-90288D01*
X56092Y-90247D01*
X56157Y-90210D01*
X56220Y-90179D01*
X56282Y-90154D01*
X56345Y-90132D01*
X56404Y-90116D01*
X56457Y-90104D01*
X56510Y-90091D01*
X56557Y-90085D01*
X56594Y-90082D01*
X56629Y-90079D01*
X56650Y-90076D01*
X56672D01*
X56760Y-90079D01*
D02*
G37*
G36*
X43100D02*
X43184Y-90088D01*
X43262Y-90107D01*
X43337Y-90126D01*
X43406Y-90151D01*
X43471Y-90179D01*
X43531Y-90207D01*
X43584Y-90238D01*
X43634Y-90269D01*
X43674Y-90297D01*
X43712Y-90325D01*
X43740Y-90350D01*
X43765Y-90369D01*
X43780Y-90385D01*
X43793Y-90397D01*
X43796Y-90400D01*
X43849Y-90463D01*
X43896Y-90531D01*
X43933Y-90603D01*
X43968Y-90678D01*
X43999Y-90756D01*
X44024Y-90831D01*
X44042Y-90906D01*
X44058Y-90974D01*
X44071Y-91043D01*
X44080Y-91105D01*
X44086Y-91162D01*
X44089Y-91211D01*
X44092Y-91252D01*
X44095Y-91283D01*
Y-91302D01*
Y-91305D01*
Y-91308D01*
X44092Y-91411D01*
X44083Y-91508D01*
X44067Y-91601D01*
X44049Y-91686D01*
X44027Y-91764D01*
X44002Y-91835D01*
X43974Y-91901D01*
X43946Y-91960D01*
X43921Y-92013D01*
X43893Y-92060D01*
X43868Y-92098D01*
X43846Y-92129D01*
X43827Y-92157D01*
X43812Y-92172D01*
X43802Y-92185D01*
X43799Y-92188D01*
X43740Y-92244D01*
X43677Y-92291D01*
X43612Y-92331D01*
X43546Y-92369D01*
X43478Y-92397D01*
X43412Y-92425D01*
X43347Y-92444D01*
X43281Y-92459D01*
X43222Y-92475D01*
X43169Y-92484D01*
X43119Y-92491D01*
X43075Y-92494D01*
X43041Y-92497D01*
X43013Y-92500D01*
X42991D01*
X42916Y-92497D01*
X42847Y-92491D01*
X42782Y-92481D01*
X42716Y-92469D01*
X42660Y-92456D01*
X42604Y-92438D01*
X42554Y-92422D01*
X42511Y-92403D01*
X42470Y-92385D01*
X42432Y-92369D01*
X42401Y-92350D01*
X42376Y-92338D01*
X42355Y-92325D01*
X42342Y-92316D01*
X42333Y-92310D01*
X42329Y-92307D01*
X42283Y-92269D01*
X42239Y-92225D01*
X42199Y-92182D01*
X42164Y-92138D01*
X42130Y-92091D01*
X42102Y-92045D01*
X42077Y-91998D01*
X42052Y-91954D01*
X42033Y-91913D01*
X42017Y-91876D01*
X42002Y-91842D01*
X41993Y-91811D01*
X41983Y-91786D01*
X41977Y-91767D01*
X41974Y-91754D01*
Y-91751D01*
X42379Y-91698D01*
X42398Y-91745D01*
X42417Y-91786D01*
X42436Y-91826D01*
X42454Y-91864D01*
X42495Y-91926D01*
X42535Y-91976D01*
X42570Y-92016D01*
X42598Y-92045D01*
X42617Y-92060D01*
X42620Y-92066D01*
X42623D01*
X42682Y-92104D01*
X42744Y-92132D01*
X42807Y-92151D01*
X42863Y-92163D01*
X42916Y-92172D01*
X42935Y-92176D01*
X42954D01*
X42969Y-92179D01*
X42991D01*
X43044Y-92176D01*
X43097Y-92169D01*
X43144Y-92160D01*
X43191Y-92147D01*
X43234Y-92132D01*
X43275Y-92113D01*
X43309Y-92098D01*
X43343Y-92076D01*
X43375Y-92057D01*
X43400Y-92041D01*
X43425Y-92023D01*
X43443Y-92007D01*
X43459Y-91995D01*
X43468Y-91985D01*
X43475Y-91979D01*
X43478Y-91976D01*
X43512Y-91935D01*
X43543Y-91892D01*
X43568Y-91845D01*
X43593Y-91798D01*
X43612Y-91751D01*
X43631Y-91701D01*
X43659Y-91608D01*
X43668Y-91561D01*
X43674Y-91520D01*
X43681Y-91483D01*
X43687Y-91452D01*
X43690Y-91427D01*
X43693Y-91405D01*
Y-91392D01*
Y-91389D01*
X41961D01*
Y-91364D01*
X41958Y-91346D01*
Y-91327D01*
Y-91311D01*
Y-91302D01*
Y-91293D01*
Y-91286D01*
X41961Y-91180D01*
X41971Y-91084D01*
X41986Y-90990D01*
X42005Y-90906D01*
X42027Y-90825D01*
X42052Y-90753D01*
X42080Y-90684D01*
X42105Y-90625D01*
X42133Y-90572D01*
X42161Y-90525D01*
X42186Y-90484D01*
X42208Y-90453D01*
X42227Y-90428D01*
X42242Y-90410D01*
X42252Y-90397D01*
X42255Y-90394D01*
X42311Y-90338D01*
X42370Y-90288D01*
X42432Y-90247D01*
X42498Y-90210D01*
X42560Y-90179D01*
X42623Y-90154D01*
X42685Y-90132D01*
X42744Y-90116D01*
X42797Y-90104D01*
X42851Y-90091D01*
X42897Y-90085D01*
X42935Y-90082D01*
X42969Y-90079D01*
X42991Y-90076D01*
X43013D01*
X43100Y-90079D01*
D02*
G37*
G36*
X70500Y-92447D02*
X68503D01*
Y-92069D01*
X70076D01*
Y-89249D01*
X70500D01*
Y-92447D01*
D02*
G37*
G36*
X68048D02*
X67655D01*
Y-90129D01*
X68048D01*
Y-92447D01*
D02*
G37*
G36*
X61340Y-90079D02*
X61424Y-90091D01*
X61499Y-90110D01*
X61571Y-90135D01*
X61636Y-90163D01*
X61699Y-90197D01*
X61752Y-90232D01*
X61801Y-90266D01*
X61845Y-90303D01*
X61883Y-90338D01*
X61914Y-90369D01*
X61942Y-90400D01*
X61961Y-90425D01*
X61976Y-90444D01*
X61985Y-90456D01*
X61989Y-90460D01*
Y-90129D01*
X62341D01*
Y-92447D01*
X61948D01*
Y-91180D01*
X61945Y-91099D01*
X61939Y-91027D01*
X61932Y-90959D01*
X61920Y-90899D01*
X61908Y-90843D01*
X61892Y-90793D01*
X61873Y-90750D01*
X61858Y-90712D01*
X61842Y-90681D01*
X61823Y-90653D01*
X61808Y-90628D01*
X61795Y-90609D01*
X61783Y-90597D01*
X61773Y-90584D01*
X61770Y-90581D01*
X61767Y-90578D01*
X61733Y-90550D01*
X61695Y-90525D01*
X61661Y-90503D01*
X61624Y-90484D01*
X61552Y-90456D01*
X61483Y-90435D01*
X61424Y-90425D01*
X61399Y-90422D01*
X61377Y-90419D01*
X61361Y-90416D01*
X61337D01*
X61280Y-90419D01*
X61227Y-90428D01*
X61181Y-90438D01*
X61140Y-90450D01*
X61106Y-90466D01*
X61084Y-90475D01*
X61068Y-90484D01*
X61062Y-90488D01*
X61021Y-90516D01*
X60987Y-90547D01*
X60959Y-90578D01*
X60937Y-90609D01*
X60922Y-90637D01*
X60909Y-90659D01*
X60903Y-90672D01*
X60900Y-90678D01*
X60884Y-90728D01*
X60872Y-90784D01*
X60865Y-90843D01*
X60859Y-90903D01*
X60856Y-90956D01*
X60853Y-90977D01*
Y-90996D01*
Y-91015D01*
Y-91027D01*
Y-91034D01*
Y-91037D01*
Y-92447D01*
X60460D01*
Y-91024D01*
Y-90974D01*
Y-90927D01*
X60463Y-90887D01*
Y-90850D01*
X60466Y-90812D01*
Y-90781D01*
X60469Y-90753D01*
Y-90728D01*
X60472Y-90709D01*
X60475Y-90690D01*
X60479Y-90662D01*
X60482Y-90647D01*
Y-90640D01*
X60497Y-90578D01*
X60516Y-90525D01*
X60538Y-90475D01*
X60557Y-90431D01*
X60575Y-90397D01*
X60591Y-90372D01*
X60603Y-90357D01*
X60606Y-90350D01*
X60644Y-90307D01*
X60685Y-90269D01*
X60728Y-90235D01*
X60769Y-90207D01*
X60809Y-90185D01*
X60840Y-90166D01*
X60853Y-90160D01*
X60862Y-90157D01*
X60865Y-90154D01*
X60869D01*
X60934Y-90129D01*
X61003Y-90110D01*
X61065Y-90095D01*
X61124Y-90085D01*
X61177Y-90079D01*
X61199D01*
X61218Y-90076D01*
X61252D01*
X61340Y-90079D01*
D02*
G37*
G36*
X47930D02*
X48014Y-90091D01*
X48089Y-90110D01*
X48161Y-90135D01*
X48226Y-90163D01*
X48289Y-90197D01*
X48342Y-90232D01*
X48392Y-90266D01*
X48435Y-90303D01*
X48473Y-90338D01*
X48504Y-90369D01*
X48532Y-90400D01*
X48551Y-90425D01*
X48566Y-90444D01*
X48576Y-90456D01*
X48579Y-90460D01*
Y-90129D01*
X48931D01*
Y-92447D01*
X48538D01*
Y-91180D01*
X48535Y-91099D01*
X48529Y-91027D01*
X48523Y-90959D01*
X48510Y-90899D01*
X48498Y-90843D01*
X48482Y-90793D01*
X48463Y-90750D01*
X48448Y-90712D01*
X48432Y-90681D01*
X48414Y-90653D01*
X48398Y-90628D01*
X48385Y-90609D01*
X48373Y-90597D01*
X48364Y-90584D01*
X48360Y-90581D01*
X48357Y-90578D01*
X48323Y-90550D01*
X48286Y-90525D01*
X48251Y-90503D01*
X48214Y-90484D01*
X48142Y-90456D01*
X48073Y-90435D01*
X48014Y-90425D01*
X47989Y-90422D01*
X47967Y-90419D01*
X47952Y-90416D01*
X47927D01*
X47871Y-90419D01*
X47818Y-90428D01*
X47771Y-90438D01*
X47730Y-90450D01*
X47696Y-90466D01*
X47674Y-90475D01*
X47659Y-90484D01*
X47652Y-90488D01*
X47612Y-90516D01*
X47577Y-90547D01*
X47549Y-90578D01*
X47527Y-90609D01*
X47512Y-90637D01*
X47499Y-90659D01*
X47493Y-90672D01*
X47490Y-90678D01*
X47474Y-90728D01*
X47462Y-90784D01*
X47456Y-90843D01*
X47449Y-90903D01*
X47446Y-90956D01*
X47443Y-90977D01*
Y-90996D01*
Y-91015D01*
Y-91027D01*
Y-91034D01*
Y-91037D01*
Y-92447D01*
X47050D01*
Y-91024D01*
Y-90974D01*
Y-90927D01*
X47053Y-90887D01*
Y-90850D01*
X47056Y-90812D01*
Y-90781D01*
X47059Y-90753D01*
Y-90728D01*
X47063Y-90709D01*
X47066Y-90690D01*
X47069Y-90662D01*
X47072Y-90647D01*
Y-90640D01*
X47087Y-90578D01*
X47106Y-90525D01*
X47128Y-90475D01*
X47147Y-90431D01*
X47166Y-90397D01*
X47181Y-90372D01*
X47194Y-90357D01*
X47197Y-90350D01*
X47234Y-90307D01*
X47275Y-90269D01*
X47318Y-90235D01*
X47359Y-90207D01*
X47400Y-90185D01*
X47431Y-90166D01*
X47443Y-90160D01*
X47453Y-90157D01*
X47456Y-90154D01*
X47459D01*
X47524Y-90129D01*
X47593Y-90110D01*
X47655Y-90095D01*
X47715Y-90085D01*
X47768Y-90079D01*
X47789D01*
X47808Y-90076D01*
X47843D01*
X47930Y-90079D01*
D02*
G37*
G36*
X40679Y-90079D02*
X40726Y-90088D01*
X40769Y-90101D01*
X40807Y-90116D01*
X40838Y-90132D01*
X40860Y-90144D01*
X40876Y-90154D01*
X40882Y-90157D01*
X40904Y-90172D01*
X40925Y-90194D01*
X40969Y-90241D01*
X41013Y-90294D01*
X41050Y-90347D01*
X41082Y-90400D01*
X41097Y-90422D01*
X41110Y-90441D01*
X41119Y-90460D01*
X41125Y-90472D01*
X41128Y-90478D01*
X41131Y-90481D01*
Y-90129D01*
X41484D01*
Y-92447D01*
X41091D01*
Y-91233D01*
X41088Y-91143D01*
X41082Y-91055D01*
X41072Y-90977D01*
X41060Y-90909D01*
X41053Y-90881D01*
X41047Y-90853D01*
X41044Y-90831D01*
X41038Y-90812D01*
X41035Y-90797D01*
X41032Y-90784D01*
X41028Y-90778D01*
Y-90775D01*
X41010Y-90725D01*
X40988Y-90684D01*
X40963Y-90647D01*
X40938Y-90615D01*
X40916Y-90591D01*
X40897Y-90575D01*
X40885Y-90562D01*
X40882Y-90559D01*
X40841Y-90534D01*
X40801Y-90516D01*
X40763Y-90500D01*
X40729Y-90491D01*
X40698Y-90484D01*
X40673Y-90481D01*
X40651D01*
X40598Y-90484D01*
X40545Y-90494D01*
X40498Y-90509D01*
X40454Y-90525D01*
X40417Y-90541D01*
X40389Y-90556D01*
X40370Y-90566D01*
X40364Y-90569D01*
X40224Y-90204D01*
X40301Y-90160D01*
X40373Y-90129D01*
X40442Y-90107D01*
X40504Y-90091D01*
X40554Y-90082D01*
X40576Y-90079D01*
X40595D01*
X40610Y-90076D01*
X40629D01*
X40679Y-90079D01*
D02*
G37*
G36*
X35465Y-92447D02*
X33079D01*
Y-92069D01*
X35041D01*
Y-90981D01*
X33272D01*
Y-90603D01*
X35041D01*
Y-89626D01*
X33154D01*
Y-89249D01*
X35465D01*
Y-92447D01*
D02*
G37*
G36*
X32486D02*
X32062D01*
Y-91027D01*
X31516D01*
X31466Y-91031D01*
X31425Y-91034D01*
X31394D01*
X31369Y-91037D01*
X31350Y-91040D01*
X31341Y-91043D01*
X31338D01*
X31300Y-91052D01*
X31266Y-91068D01*
X31235Y-91080D01*
X31207Y-91096D01*
X31182Y-91109D01*
X31163Y-91121D01*
X31151Y-91127D01*
X31147Y-91130D01*
X31110Y-91155D01*
X31073Y-91190D01*
X31038Y-91224D01*
X31004Y-91258D01*
X30976Y-91289D01*
X30951Y-91317D01*
X30938Y-91336D01*
X30932Y-91339D01*
Y-91343D01*
X30907Y-91374D01*
X30885Y-91405D01*
X30832Y-91477D01*
X30782Y-91548D01*
X30733Y-91620D01*
X30692Y-91683D01*
X30673Y-91711D01*
X30658Y-91736D01*
X30645Y-91754D01*
X30636Y-91770D01*
X30630Y-91779D01*
X30626Y-91782D01*
X30202Y-92447D01*
X29675D01*
X30227Y-91580D01*
X30289Y-91489D01*
X30352Y-91405D01*
X30411Y-91333D01*
X30464Y-91271D01*
X30489Y-91243D01*
X30511Y-91221D01*
X30530Y-91199D01*
X30545Y-91183D01*
X30558Y-91171D01*
X30567Y-91158D01*
X30573Y-91155D01*
X30577Y-91152D01*
X30614Y-91124D01*
X30654Y-91093D01*
X30695Y-91068D01*
X30736Y-91043D01*
X30773Y-91024D01*
X30804Y-91005D01*
X30817Y-91002D01*
X30826Y-90996D01*
X30829Y-90993D01*
X30832D01*
X30748Y-90981D01*
X30670Y-90962D01*
X30598Y-90943D01*
X30533Y-90921D01*
X30470Y-90896D01*
X30414Y-90871D01*
X30364Y-90846D01*
X30321Y-90821D01*
X30280Y-90797D01*
X30246Y-90775D01*
X30218Y-90753D01*
X30193Y-90734D01*
X30174Y-90719D01*
X30161Y-90706D01*
X30155Y-90700D01*
X30152Y-90697D01*
X30112Y-90653D01*
X30080Y-90606D01*
X30049Y-90556D01*
X30024Y-90509D01*
X30002Y-90460D01*
X29984Y-90413D01*
X29971Y-90366D01*
X29959Y-90322D01*
X29949Y-90282D01*
X29943Y-90241D01*
X29937Y-90210D01*
X29934Y-90179D01*
X29931Y-90157D01*
Y-90138D01*
Y-90126D01*
Y-90123D01*
Y-90073D01*
X29937Y-90026D01*
X29952Y-89935D01*
X29974Y-89854D01*
X29996Y-89783D01*
X30009Y-89751D01*
X30021Y-89726D01*
X30034Y-89701D01*
X30043Y-89679D01*
X30052Y-89664D01*
X30059Y-89651D01*
X30062Y-89645D01*
X30065Y-89642D01*
X30118Y-89567D01*
X30177Y-89502D01*
X30236Y-89449D01*
X30293Y-89408D01*
X30343Y-89377D01*
X30364Y-89364D01*
X30383Y-89352D01*
X30399Y-89346D01*
X30411Y-89339D01*
X30417Y-89336D01*
X30421D01*
X30464Y-89321D01*
X30511Y-89308D01*
X30614Y-89286D01*
X30723Y-89271D01*
X30829Y-89258D01*
X30876Y-89255D01*
X30923Y-89252D01*
X30963D01*
X30998Y-89249D01*
X32486D01*
Y-92447D01*
D02*
G37*
G36*
X17869D02*
X15872D01*
Y-92069D01*
X17444D01*
Y-89249D01*
X17869D01*
Y-92447D01*
D02*
G37*
G36*
X13881D02*
X13457D01*
Y-91146D01*
X12637D01*
X12515Y-91143D01*
X12403Y-91133D01*
X12299Y-91121D01*
X12206Y-91102D01*
X12119Y-91080D01*
X12044Y-91055D01*
X11975Y-91031D01*
X11916Y-91005D01*
X11863Y-90981D01*
X11819Y-90952D01*
X11782Y-90931D01*
X11750Y-90909D01*
X11729Y-90890D01*
X11713Y-90878D01*
X11704Y-90868D01*
X11700Y-90865D01*
X11654Y-90809D01*
X11613Y-90753D01*
X11579Y-90697D01*
X11548Y-90637D01*
X11523Y-90578D01*
X11501Y-90522D01*
X11485Y-90466D01*
X11470Y-90413D01*
X11460Y-90363D01*
X11451Y-90319D01*
X11448Y-90279D01*
X11441Y-90244D01*
Y-90216D01*
X11438Y-90194D01*
Y-90179D01*
Y-90176D01*
X11441Y-90088D01*
X11454Y-90007D01*
X11470Y-89932D01*
X11488Y-89867D01*
X11498Y-89839D01*
X11507Y-89814D01*
X11516Y-89792D01*
X11523Y-89773D01*
X11529Y-89758D01*
X11535Y-89748D01*
X11538Y-89742D01*
Y-89739D01*
X11576Y-89667D01*
X11619Y-89605D01*
X11663Y-89555D01*
X11704Y-89508D01*
X11738Y-89474D01*
X11769Y-89449D01*
X11788Y-89436D01*
X11791Y-89430D01*
X11794D01*
X11857Y-89393D01*
X11922Y-89361D01*
X11991Y-89333D01*
X12053Y-89315D01*
X12106Y-89299D01*
X12131Y-89293D01*
X12150Y-89289D01*
X12168Y-89283D01*
X12181D01*
X12187Y-89280D01*
X12190D01*
X12222Y-89274D01*
X12259Y-89271D01*
X12337Y-89262D01*
X12418Y-89255D01*
X12496Y-89252D01*
X12533D01*
X12568Y-89249D01*
X13881D01*
Y-92447D01*
D02*
G37*
G36*
X59162Y-90079D02*
X59224Y-90082D01*
X59284Y-90091D01*
X59333Y-90101D01*
X59377Y-90110D01*
X59408Y-90116D01*
X59421Y-90119D01*
X59430Y-90123D01*
X59433Y-90126D01*
X59437D01*
X59493Y-90144D01*
X59543Y-90163D01*
X59583Y-90182D01*
X59621Y-90201D01*
X59649Y-90216D01*
X59667Y-90225D01*
X59683Y-90235D01*
X59686Y-90238D01*
X59730Y-90272D01*
X59767Y-90310D01*
X59802Y-90347D01*
X59830Y-90381D01*
X59851Y-90413D01*
X59867Y-90438D01*
X59876Y-90453D01*
X59879Y-90456D01*
Y-90460D01*
X59901Y-90509D01*
X59920Y-90559D01*
X59933Y-90609D01*
X59939Y-90653D01*
X59945Y-90690D01*
X59948Y-90719D01*
Y-90731D01*
Y-90740D01*
Y-90743D01*
Y-90747D01*
X59945Y-90809D01*
X59936Y-90865D01*
X59920Y-90918D01*
X59904Y-90965D01*
X59892Y-91002D01*
X59876Y-91031D01*
X59867Y-91049D01*
X59864Y-91052D01*
Y-91055D01*
X59826Y-91105D01*
X59786Y-91149D01*
X59745Y-91186D01*
X59705Y-91218D01*
X59667Y-91243D01*
X59639Y-91261D01*
X59627Y-91268D01*
X59617Y-91274D01*
X59614Y-91277D01*
X59611D01*
X59577Y-91293D01*
X59536Y-91308D01*
X59493Y-91324D01*
X59446Y-91339D01*
X59346Y-91371D01*
X59249Y-91399D01*
X59202Y-91414D01*
X59156Y-91427D01*
X59118Y-91436D01*
X59081Y-91445D01*
X59053Y-91455D01*
X59031Y-91458D01*
X59018Y-91464D01*
X59012D01*
X58956Y-91480D01*
X58903Y-91492D01*
X58856Y-91508D01*
X58812Y-91520D01*
X58775Y-91530D01*
X58744Y-91542D01*
X58716Y-91552D01*
X58691Y-91561D01*
X58669Y-91570D01*
X58653Y-91576D01*
X58638Y-91583D01*
X58628Y-91589D01*
X58613Y-91595D01*
X58610Y-91598D01*
X58569Y-91629D01*
X58541Y-91664D01*
X58519Y-91698D01*
X58507Y-91733D01*
X58497Y-91764D01*
X58494Y-91789D01*
X58491Y-91804D01*
Y-91807D01*
Y-91811D01*
Y-91839D01*
X58497Y-91864D01*
X58513Y-91913D01*
X58535Y-91957D01*
X58557Y-91995D01*
X58582Y-92026D01*
X58603Y-92051D01*
X58619Y-92063D01*
X58622Y-92069D01*
X58625D01*
X58650Y-92088D01*
X58681Y-92107D01*
X58744Y-92132D01*
X58809Y-92151D01*
X58875Y-92166D01*
X58934Y-92172D01*
X58962Y-92176D01*
X58984D01*
X59003Y-92179D01*
X59028D01*
X59121Y-92172D01*
X59206Y-92160D01*
X59277Y-92141D01*
X59309Y-92129D01*
X59337Y-92116D01*
X59362Y-92107D01*
X59383Y-92094D01*
X59402Y-92085D01*
X59418Y-92076D01*
X59430Y-92069D01*
X59440Y-92063D01*
X59443Y-92057D01*
X59446D01*
X59496Y-92004D01*
X59536Y-91948D01*
X59567Y-91888D01*
X59592Y-91829D01*
X59608Y-91776D01*
X59614Y-91754D01*
X59621Y-91733D01*
X59624Y-91717D01*
Y-91704D01*
X59627Y-91698D01*
Y-91695D01*
X60014Y-91757D01*
X60001Y-91823D01*
X59983Y-91885D01*
X59964Y-91945D01*
X59942Y-92001D01*
X59917Y-92051D01*
X59892Y-92094D01*
X59867Y-92135D01*
X59839Y-92172D01*
X59817Y-92207D01*
X59792Y-92235D01*
X59770Y-92257D01*
X59752Y-92278D01*
X59736Y-92294D01*
X59724Y-92303D01*
X59717Y-92310D01*
X59714Y-92313D01*
X59667Y-92347D01*
X59617Y-92375D01*
X59561Y-92400D01*
X59505Y-92422D01*
X59449Y-92438D01*
X59393Y-92453D01*
X59281Y-92475D01*
X59227Y-92484D01*
X59181Y-92491D01*
X59137Y-92494D01*
X59100Y-92497D01*
X59068Y-92500D01*
X59025D01*
X58925Y-92497D01*
X58831Y-92484D01*
X58750Y-92469D01*
X58713Y-92463D01*
X58675Y-92453D01*
X58644Y-92444D01*
X58616Y-92435D01*
X58594Y-92428D01*
X58572Y-92422D01*
X58557Y-92416D01*
X58544Y-92409D01*
X58538Y-92406D01*
X58535D01*
X58460Y-92369D01*
X58391Y-92325D01*
X58335Y-92282D01*
X58288Y-92238D01*
X58251Y-92197D01*
X58226Y-92166D01*
X58217Y-92154D01*
X58210Y-92144D01*
X58204Y-92141D01*
Y-92138D01*
X58167Y-92073D01*
X58139Y-92007D01*
X58117Y-91945D01*
X58104Y-91885D01*
X58095Y-91839D01*
X58092Y-91817D01*
Y-91801D01*
X58089Y-91786D01*
Y-91776D01*
Y-91770D01*
Y-91767D01*
X58092Y-91695D01*
X58104Y-91629D01*
X58120Y-91573D01*
X58135Y-91523D01*
X58154Y-91486D01*
X58170Y-91458D01*
X58182Y-91439D01*
X58185Y-91433D01*
X58223Y-91383D01*
X58267Y-91343D01*
X58307Y-91308D01*
X58351Y-91277D01*
X58388Y-91255D01*
X58416Y-91240D01*
X58429Y-91233D01*
X58438Y-91230D01*
X58441Y-91227D01*
X58444D01*
X58479Y-91215D01*
X58516Y-91199D01*
X58557Y-91183D01*
X58603Y-91168D01*
X58700Y-91137D01*
X58794Y-91109D01*
X58841Y-91096D01*
X58884Y-91084D01*
X58922Y-91071D01*
X58956Y-91062D01*
X58984Y-91052D01*
X59006Y-91049D01*
X59018Y-91043D01*
X59025D01*
X59075Y-91027D01*
X59121Y-91015D01*
X59162Y-91005D01*
X59199Y-90993D01*
X59231Y-90984D01*
X59262Y-90977D01*
X59284Y-90971D01*
X59305Y-90965D01*
X59324Y-90959D01*
X59337Y-90956D01*
X59359Y-90946D01*
X59368Y-90943D01*
X59371D01*
X59408Y-90924D01*
X59437Y-90909D01*
X59465Y-90890D01*
X59483Y-90874D01*
X59499Y-90859D01*
X59511Y-90846D01*
X59518Y-90840D01*
X59521Y-90837D01*
X59536Y-90812D01*
X59549Y-90790D01*
X59555Y-90765D01*
X59561Y-90743D01*
X59564Y-90728D01*
X59567Y-90712D01*
Y-90703D01*
Y-90700D01*
X59561Y-90656D01*
X59549Y-90615D01*
X59530Y-90578D01*
X59508Y-90547D01*
X59490Y-90522D01*
X59471Y-90503D01*
X59458Y-90491D01*
X59452Y-90488D01*
X59427Y-90472D01*
X59402Y-90456D01*
X59343Y-90435D01*
X59281Y-90419D01*
X59218Y-90410D01*
X59159Y-90400D01*
X59134D01*
X59112Y-90397D01*
X59068D01*
X58987Y-90400D01*
X58915Y-90413D01*
X58853Y-90428D01*
X58803Y-90447D01*
X58766Y-90469D01*
X58735Y-90484D01*
X58719Y-90497D01*
X58713Y-90500D01*
X58669Y-90541D01*
X58635Y-90584D01*
X58610Y-90631D01*
X58588Y-90675D01*
X58575Y-90715D01*
X58566Y-90750D01*
X58563Y-90759D01*
X58560Y-90768D01*
Y-90775D01*
Y-90778D01*
X58176Y-90725D01*
X58192Y-90647D01*
X58213Y-90575D01*
X58235Y-90516D01*
X58257Y-90463D01*
X58279Y-90422D01*
X58298Y-90394D01*
X58310Y-90375D01*
X58313Y-90369D01*
X58354Y-90322D01*
X58401Y-90279D01*
X58454Y-90244D01*
X58504Y-90213D01*
X58547Y-90188D01*
X58585Y-90172D01*
X58600Y-90166D01*
X58610Y-90160D01*
X58616Y-90157D01*
X58619D01*
X58697Y-90129D01*
X58781Y-90110D01*
X58859Y-90095D01*
X58934Y-90085D01*
X58969Y-90082D01*
X59000Y-90079D01*
X59028D01*
X59050Y-90076D01*
X59096D01*
X59162Y-90079D01*
D02*
G37*
G36*
X53668Y-90394D02*
X53708Y-90344D01*
X53752Y-90300D01*
X53799Y-90260D01*
X53839Y-90229D01*
X53877Y-90201D01*
X53908Y-90182D01*
X53920Y-90176D01*
X53930Y-90169D01*
X53933Y-90166D01*
X53936D01*
X53998Y-90135D01*
X54061Y-90113D01*
X54123Y-90098D01*
X54182Y-90088D01*
X54232Y-90079D01*
X54254D01*
X54273Y-90076D01*
X54307D01*
X54360Y-90079D01*
X54410Y-90082D01*
X54507Y-90101D01*
X54594Y-90123D01*
X54635Y-90138D01*
X54672Y-90151D01*
X54703Y-90166D01*
X54735Y-90179D01*
X54760Y-90194D01*
X54781Y-90204D01*
X54800Y-90213D01*
X54813Y-90222D01*
X54819Y-90225D01*
X54822Y-90229D01*
X54863Y-90257D01*
X54903Y-90291D01*
X54975Y-90360D01*
X55034Y-90431D01*
X55081Y-90500D01*
X55118Y-90566D01*
X55134Y-90591D01*
X55146Y-90615D01*
X55156Y-90634D01*
X55162Y-90650D01*
X55168Y-90659D01*
Y-90662D01*
X55206Y-90768D01*
X55234Y-90878D01*
X55256Y-90984D01*
X55262Y-91037D01*
X55268Y-91084D01*
X55274Y-91127D01*
X55278Y-91168D01*
X55281Y-91202D01*
Y-91233D01*
X55284Y-91258D01*
Y-91277D01*
Y-91289D01*
Y-91293D01*
X55278Y-91421D01*
X55265Y-91542D01*
X55256Y-91595D01*
X55243Y-91648D01*
X55234Y-91695D01*
X55221Y-91742D01*
X55209Y-91782D01*
X55199Y-91817D01*
X55187Y-91848D01*
X55178Y-91873D01*
X55171Y-91895D01*
X55165Y-91910D01*
X55159Y-91920D01*
Y-91923D01*
X55106Y-92019D01*
X55050Y-92104D01*
X54991Y-92176D01*
X54959Y-92207D01*
X54931Y-92238D01*
X54906Y-92263D01*
X54881Y-92285D01*
X54856Y-92303D01*
X54838Y-92319D01*
X54822Y-92331D01*
X54809Y-92341D01*
X54803Y-92344D01*
X54800Y-92347D01*
X54756Y-92375D01*
X54710Y-92397D01*
X54666Y-92419D01*
X54622Y-92435D01*
X54535Y-92463D01*
X54457Y-92481D01*
X54419Y-92488D01*
X54388Y-92491D01*
X54360Y-92494D01*
X54335Y-92497D01*
X54317Y-92500D01*
X54289D01*
X54211Y-92497D01*
X54139Y-92484D01*
X54070Y-92469D01*
X54008Y-92447D01*
X53948Y-92422D01*
X53895Y-92391D01*
X53845Y-92363D01*
X53805Y-92328D01*
X53764Y-92297D01*
X53733Y-92266D01*
X53705Y-92238D01*
X53680Y-92213D01*
X53661Y-92191D01*
X53649Y-92176D01*
X53643Y-92163D01*
X53640Y-92160D01*
Y-92447D01*
X53275D01*
Y-89249D01*
X53668D01*
Y-90394D01*
D02*
G37*
G36*
X44975D02*
X45016Y-90344D01*
X45059Y-90300D01*
X45106Y-90260D01*
X45147Y-90229D01*
X45184Y-90201D01*
X45215Y-90182D01*
X45228Y-90176D01*
X45237Y-90169D01*
X45241Y-90166D01*
X45244D01*
X45306Y-90135D01*
X45368Y-90113D01*
X45431Y-90098D01*
X45490Y-90088D01*
X45540Y-90079D01*
X45562D01*
X45581Y-90076D01*
X45615D01*
X45668Y-90079D01*
X45718Y-90082D01*
X45815Y-90101D01*
X45902Y-90123D01*
X45943Y-90138D01*
X45980Y-90151D01*
X46011Y-90166D01*
X46042Y-90179D01*
X46067Y-90194D01*
X46089Y-90204D01*
X46108Y-90213D01*
X46120Y-90222D01*
X46127Y-90225D01*
X46130Y-90229D01*
X46170Y-90257D01*
X46211Y-90291D01*
X46283Y-90360D01*
X46342Y-90431D01*
X46389Y-90500D01*
X46426Y-90566D01*
X46442Y-90591D01*
X46454Y-90615D01*
X46464Y-90634D01*
X46470Y-90650D01*
X46476Y-90659D01*
Y-90662D01*
X46513Y-90768D01*
X46542Y-90878D01*
X46563Y-90984D01*
X46570Y-91037D01*
X46576Y-91084D01*
X46582Y-91127D01*
X46585Y-91168D01*
X46588Y-91202D01*
Y-91233D01*
X46591Y-91258D01*
Y-91277D01*
Y-91289D01*
Y-91293D01*
X46585Y-91421D01*
X46573Y-91542D01*
X46563Y-91595D01*
X46551Y-91648D01*
X46542Y-91695D01*
X46529Y-91742D01*
X46517Y-91782D01*
X46507Y-91817D01*
X46495Y-91848D01*
X46485Y-91873D01*
X46479Y-91895D01*
X46473Y-91910D01*
X46467Y-91920D01*
Y-91923D01*
X46414Y-92019D01*
X46357Y-92104D01*
X46298Y-92176D01*
X46267Y-92207D01*
X46239Y-92238D01*
X46214Y-92263D01*
X46189Y-92285D01*
X46164Y-92303D01*
X46145Y-92319D01*
X46130Y-92331D01*
X46117Y-92341D01*
X46111Y-92344D01*
X46108Y-92347D01*
X46064Y-92375D01*
X46017Y-92397D01*
X45974Y-92419D01*
X45930Y-92435D01*
X45843Y-92463D01*
X45765Y-92481D01*
X45727Y-92488D01*
X45696Y-92491D01*
X45668Y-92494D01*
X45643Y-92497D01*
X45624Y-92500D01*
X45596D01*
X45518Y-92497D01*
X45446Y-92484D01*
X45378Y-92469D01*
X45315Y-92447D01*
X45256Y-92422D01*
X45203Y-92391D01*
X45153Y-92363D01*
X45113Y-92328D01*
X45072Y-92297D01*
X45041Y-92266D01*
X45013Y-92238D01*
X44988Y-92213D01*
X44969Y-92191D01*
X44957Y-92176D01*
X44950Y-92163D01*
X44947Y-92160D01*
Y-92447D01*
X44582D01*
Y-89249D01*
X44975D01*
Y-90394D01*
D02*
G37*
G36*
X23276Y-89199D02*
X23391Y-89211D01*
X23503Y-89233D01*
X23609Y-89265D01*
X23706Y-89299D01*
X23797Y-89336D01*
X23881Y-89377D01*
X23956Y-89417D01*
X24024Y-89461D01*
X24084Y-89502D01*
X24137Y-89539D01*
X24177Y-89574D01*
X24212Y-89605D01*
X24237Y-89626D01*
X24249Y-89639D01*
X24255Y-89645D01*
X24330Y-89733D01*
X24396Y-89826D01*
X24452Y-89926D01*
X24502Y-90029D01*
X24542Y-90132D01*
X24580Y-90235D01*
X24608Y-90338D01*
X24630Y-90435D01*
X24645Y-90528D01*
X24661Y-90615D01*
X24670Y-90690D01*
X24677Y-90759D01*
X24680Y-90787D01*
Y-90812D01*
Y-90837D01*
X24683Y-90856D01*
Y-90871D01*
Y-90881D01*
Y-90887D01*
Y-90890D01*
X24680Y-90968D01*
X24673Y-91046D01*
X24667Y-91121D01*
X24655Y-91193D01*
X24642Y-91261D01*
X24627Y-91327D01*
X24608Y-91389D01*
X24592Y-91449D01*
X24577Y-91499D01*
X24558Y-91548D01*
X24542Y-91589D01*
X24530Y-91623D01*
X24517Y-91651D01*
X24508Y-91673D01*
X24505Y-91686D01*
X24502Y-91689D01*
X24464Y-91757D01*
X24427Y-91823D01*
X24383Y-91885D01*
X24340Y-91941D01*
X24296Y-91995D01*
X24249Y-92045D01*
X24205Y-92088D01*
X24162Y-92129D01*
X24121Y-92163D01*
X24084Y-92194D01*
X24049Y-92222D01*
X24021Y-92244D01*
X23996Y-92263D01*
X23978Y-92275D01*
X23965Y-92282D01*
X23962Y-92285D01*
X23893Y-92322D01*
X23825Y-92356D01*
X23756Y-92385D01*
X23684Y-92409D01*
X23616Y-92431D01*
X23550Y-92447D01*
X23485Y-92463D01*
X23425Y-92472D01*
X23366Y-92481D01*
X23316Y-92488D01*
X23269Y-92494D01*
X23229Y-92497D01*
X23198Y-92500D01*
X23154D01*
X23076Y-92497D01*
X23001Y-92491D01*
X22926Y-92481D01*
X22858Y-92469D01*
X22789Y-92453D01*
X22723Y-92438D01*
X22664Y-92419D01*
X22608Y-92400D01*
X22558Y-92385D01*
X22511Y-92366D01*
X22474Y-92350D01*
X22440Y-92335D01*
X22411Y-92322D01*
X22393Y-92313D01*
X22380Y-92307D01*
X22377Y-92303D01*
X22312Y-92263D01*
X22249Y-92222D01*
X22190Y-92176D01*
X22137Y-92129D01*
X22087Y-92082D01*
X22040Y-92032D01*
X22000Y-91985D01*
X21962Y-91938D01*
X21928Y-91895D01*
X21900Y-91854D01*
X21875Y-91817D01*
X21856Y-91786D01*
X21840Y-91761D01*
X21828Y-91739D01*
X21822Y-91726D01*
X21819Y-91723D01*
X21784Y-91651D01*
X21753Y-91576D01*
X21728Y-91502D01*
X21706Y-91424D01*
X21685Y-91352D01*
X21669Y-91280D01*
X21656Y-91208D01*
X21647Y-91143D01*
X21638Y-91084D01*
X21631Y-91027D01*
X21628Y-90977D01*
X21625Y-90934D01*
X21622Y-90899D01*
Y-90874D01*
Y-90859D01*
Y-90853D01*
X21625Y-90765D01*
X21631Y-90678D01*
X21641Y-90597D01*
X21650Y-90519D01*
X21666Y-90444D01*
X21681Y-90372D01*
X21697Y-90307D01*
X21716Y-90247D01*
X21734Y-90191D01*
X21750Y-90141D01*
X21766Y-90101D01*
X21781Y-90063D01*
X21791Y-90035D01*
X21800Y-90013D01*
X21806Y-90001D01*
X21809Y-89998D01*
X21847Y-89929D01*
X21887Y-89864D01*
X21928Y-89801D01*
X21971Y-89745D01*
X22018Y-89692D01*
X22062Y-89642D01*
X22109Y-89598D01*
X22149Y-89558D01*
X22193Y-89524D01*
X22230Y-89492D01*
X22265Y-89464D01*
X22293Y-89442D01*
X22318Y-89427D01*
X22337Y-89414D01*
X22349Y-89408D01*
X22352Y-89405D01*
X22421Y-89368D01*
X22489Y-89336D01*
X22558Y-89305D01*
X22627Y-89283D01*
X22695Y-89262D01*
X22761Y-89246D01*
X22823Y-89230D01*
X22886Y-89218D01*
X22942Y-89211D01*
X22992Y-89205D01*
X23039Y-89199D01*
X23076Y-89196D01*
X23107Y-89193D01*
X23151D01*
X23276Y-89199D01*
D02*
G37*
%LPC*%
G36*
X82497Y-56757D02*
X82497Y-56757D01*
Y-56757D01*
X82497Y-56757D01*
D02*
G37*
G36*
X101055Y-55804D02*
X100879Y-55876D01*
X100881Y-55883D01*
X100740Y-55941D01*
X100741Y-55942D01*
X100649Y-55980D01*
X100578Y-56151D01*
X100575Y-56150D01*
X100458Y-56737D01*
X100462Y-56757D01*
X100463Y-56757D01*
X100458Y-56778D01*
X100575Y-57362D01*
X100578Y-57361D01*
X100649Y-57530D01*
X100741Y-57569D01*
X100740Y-57569D01*
X100881Y-57627D01*
X100879Y-57634D01*
X101055Y-57707D01*
X101064Y-57703D01*
X101064Y-57701D01*
X101072Y-57704D01*
X101247Y-57632D01*
X101245Y-57626D01*
X101386Y-57568D01*
X101385Y-57567D01*
X101472Y-57531D01*
X101547Y-57351D01*
X101549Y-57351D01*
X101666Y-56764D01*
X101664Y-56757D01*
X101665Y-56757D01*
X101666Y-56750D01*
X101549Y-56160D01*
X101547Y-56160D01*
X101472Y-55979D01*
X101385Y-55943D01*
X101386Y-55943D01*
X101245Y-55884D01*
X101247Y-55879D01*
X101072Y-55806D01*
X101063Y-55810D01*
X101064Y-55808D01*
X101055Y-55804D01*
D02*
G37*
%LPD*%
G36*
X101064Y-57701D02*
X101063Y-57700D01*
X101063Y-57635D01*
X101064Y-57701D01*
D02*
G37*
%LPC*%
G36*
X103896Y-55821D02*
X103880Y-55827D01*
X103865Y-55821D01*
X103611Y-55927D01*
X103611Y-55926D01*
X103446Y-55995D01*
X103412Y-56076D01*
X103408Y-56073D01*
X103306Y-56320D01*
X103297Y-56319D01*
X103226Y-56490D01*
X103257Y-56492D01*
X103209Y-56737D01*
X103213Y-56757D01*
X103213D01*
X103213Y-56757D01*
X103282Y-56757D01*
X103213Y-56757D01*
X103209Y-56777D01*
X103258Y-57021D01*
X103227Y-57023D01*
X103297Y-57194D01*
X103306Y-57192D01*
X103407Y-57437D01*
X103412Y-57434D01*
X103446Y-57515D01*
X103611Y-57583D01*
X103611Y-57583D01*
X103865Y-57689D01*
X103880Y-57683D01*
X103896Y-57689D01*
X104151Y-57583D01*
X104151Y-57583D01*
X104312Y-57517D01*
X104347Y-57433D01*
X104354Y-57439D01*
X104457Y-57191D01*
X104470Y-57193D01*
X104542Y-57019D01*
X104509Y-57018D01*
X104558Y-56771D01*
X104554Y-56750D01*
X104550Y-56751D01*
X104554Y-56731D01*
X104506Y-56490D01*
X104539Y-56489D01*
X104469Y-56318D01*
X104457Y-56320D01*
X104354Y-56072D01*
X104347Y-56077D01*
X104312Y-55993D01*
X104151Y-55926D01*
X104151Y-55927D01*
X103896Y-55821D01*
D02*
G37*
G36*
X105118Y-56750D02*
X105048Y-56750D01*
X105118Y-56751D01*
X105118Y-56750D01*
D02*
G37*
%LPD*%
G36*
X103881Y-55828D02*
X103879Y-55828D01*
X103880Y-55827D01*
X103881Y-55828D01*
D02*
G37*
G36*
X103880Y-57683D02*
X103879Y-57682D01*
X103881Y-57682D01*
X103880Y-57683D01*
D02*
G37*
%LPC*%
G36*
X88911Y-55821D02*
X88896Y-55827D01*
X88881Y-55821D01*
X88627Y-55927D01*
X88627Y-55926D01*
X88462Y-55995D01*
X88428Y-56076D01*
X88424Y-56073D01*
X88321Y-56320D01*
X88313Y-56319D01*
X88242Y-56490D01*
X88273Y-56492D01*
X88224Y-56737D01*
X88228Y-56757D01*
X88229D01*
X88229Y-56757D01*
X88297Y-56757D01*
X88229Y-56757D01*
X88225Y-56777D01*
X88273Y-57021D01*
X88242Y-57023D01*
X88313Y-57194D01*
X88321Y-57192D01*
X88423Y-57437D01*
X88428Y-57434D01*
X88462Y-57515D01*
X88627Y-57583D01*
X88627Y-57583D01*
X88881Y-57689D01*
X88896Y-57683D01*
X88895Y-57682D01*
X88897Y-57682D01*
X88896Y-57683D01*
X88911Y-57689D01*
X89167Y-57583D01*
X89167Y-57583D01*
X89328Y-57517D01*
X89362Y-57433D01*
X89370Y-57439D01*
X89473Y-57191D01*
X89486Y-57193D01*
X89558Y-57019D01*
X89525Y-57018D01*
X89574Y-56771D01*
X89570Y-56750D01*
X89566Y-56751D01*
X89570Y-56731D01*
X89522Y-56490D01*
X89555Y-56489D01*
X89484Y-56318D01*
X89472Y-56320D01*
X89369Y-56072D01*
X89362Y-56077D01*
X89328Y-55993D01*
X89167Y-55926D01*
X89167Y-55927D01*
X88911Y-55821D01*
D02*
G37*
G36*
X90134Y-56750D02*
X90063Y-56750D01*
X90134Y-56751D01*
X90134Y-56750D01*
D02*
G37*
%LPD*%
G36*
X88897Y-55828D02*
X88895Y-55828D01*
X88896Y-55827D01*
X88897Y-55828D01*
D02*
G37*
%LPC*%
G36*
X98343Y-55791D02*
X98335Y-55794D01*
X98336Y-55795D01*
X98329Y-55792D01*
X98107Y-55884D01*
X98107Y-55884D01*
X97893Y-55973D01*
X97889Y-55982D01*
X97888Y-55981D01*
X97790Y-56218D01*
X97789Y-56218D01*
X97673Y-56499D01*
X98934Y-56500D01*
X99004Y-56499D01*
X98887Y-56218D01*
X98886Y-56218D01*
X98788Y-55981D01*
X98788Y-55982D01*
X98785Y-55974D01*
X98568Y-55884D01*
X98568Y-55884D01*
X98343Y-55791D01*
D02*
G37*
G36*
X78821D02*
X78813Y-55794D01*
X78815Y-55795D01*
X78807Y-55792D01*
X78585Y-55884D01*
X78585Y-55884D01*
X78370Y-55973D01*
X78367Y-55982D01*
X78366Y-55981D01*
X78268Y-56218D01*
X78267Y-56218D01*
X78151Y-56499D01*
X79412Y-56500D01*
X79482Y-56499D01*
X79365Y-56218D01*
X79364Y-56218D01*
X79266Y-55981D01*
X79266Y-55982D01*
X79263Y-55974D01*
X79046Y-55884D01*
X79046Y-55884D01*
X78821Y-55791D01*
D02*
G37*
G36*
X98452Y-61410D02*
X97787Y-61483D01*
Y-61692D01*
X97725Y-61690D01*
X97715Y-61715D01*
X97814Y-61955D01*
X97818Y-61954D01*
X97856Y-62044D01*
X97858Y-62043D01*
X97876Y-62088D01*
X97915Y-62104D01*
X97916Y-62104D01*
X98110Y-62184D01*
X98112Y-62168D01*
X98362Y-62218D01*
X98410Y-62208D01*
X98408Y-62251D01*
X98425Y-62258D01*
X98648Y-62166D01*
X98647Y-62161D01*
X98820Y-62090D01*
X98816Y-62086D01*
X98855Y-62070D01*
X98900Y-61961D01*
X98900Y-61960D01*
X98954Y-61830D01*
X98953Y-61828D01*
X98951Y-61829D01*
X98957Y-61814D01*
X98903Y-61682D01*
X98903Y-61682D01*
X98865Y-61591D01*
X98817Y-61571D01*
X98819Y-61569D01*
X98664Y-61505D01*
X98666Y-61499D01*
X98452Y-61410D01*
D02*
G37*
G36*
X86912Y-61410D02*
X86247Y-61483D01*
Y-61692D01*
X86185Y-61690D01*
X86175Y-61715D01*
X86274Y-61955D01*
X86278Y-61954D01*
X86316Y-62044D01*
X86318Y-62043D01*
X86336Y-62088D01*
X86375Y-62104D01*
X86376Y-62104D01*
X86570Y-62184D01*
X86572Y-62168D01*
X86822Y-62218D01*
X86870Y-62208D01*
X86868Y-62251D01*
X86885Y-62258D01*
X87108Y-62166D01*
X87107Y-62161D01*
X87280Y-62090D01*
X87275Y-62086D01*
X87315Y-62070D01*
X87360Y-61961D01*
X87360Y-61960D01*
X87414Y-61830D01*
X87413Y-61828D01*
X87411Y-61829D01*
X87417Y-61814D01*
X87363Y-61682D01*
X87363Y-61682D01*
X87325Y-61591D01*
X87277Y-61571D01*
X87279Y-61569D01*
X87124Y-61505D01*
X87126Y-61499D01*
X86912Y-61410D01*
D02*
G37*
G36*
X81921Y-60298D02*
X81913Y-60301D01*
X81914Y-60302D01*
X81906Y-60299D01*
X81684Y-60391D01*
X81684Y-60391D01*
X81470Y-60479D01*
X81466Y-60489D01*
X81465Y-60488D01*
X81367Y-60725D01*
X81367Y-60725D01*
X81250Y-61005D01*
X82512Y-61007D01*
X82581Y-61006D01*
X82465Y-60724D01*
X82464Y-60725D01*
X82366Y-60488D01*
X82366Y-60488D01*
X82362Y-60480D01*
X82146Y-60391D01*
X82146Y-60391D01*
X81921Y-60298D01*
D02*
G37*
G36*
X93505Y-60309D02*
X93496Y-60313D01*
X93496Y-60317D01*
X93497Y-60318D01*
X93496Y-60381D01*
X93496Y-60317D01*
X93488Y-60314D01*
X93315Y-60386D01*
X93316Y-60391D01*
X93176Y-60449D01*
X93177Y-60449D01*
X93091Y-60485D01*
X93015Y-60667D01*
X93013Y-60666D01*
X92896Y-61253D01*
X92897Y-61257D01*
X92897Y-61257D01*
X92895Y-61265D01*
X93013Y-61857D01*
X93015Y-61856D01*
X93091Y-62038D01*
X93177Y-62074D01*
X93176Y-62074D01*
X93316Y-62132D01*
X93315Y-62137D01*
X93488Y-62209D01*
X93497Y-62205D01*
X93496Y-62210D01*
X93505Y-62214D01*
X93681Y-62141D01*
X93679Y-62134D01*
X93820Y-62076D01*
X93820Y-62075D01*
X93912Y-62037D01*
X93983Y-61867D01*
X93986Y-61868D01*
X94103Y-61281D01*
X94098Y-61257D01*
X94098Y-61257D01*
X94098Y-61256D01*
X94098Y-61257D01*
X94102Y-61238D01*
X93986Y-60655D01*
X93983Y-60656D01*
X93912Y-60486D01*
X93820Y-60448D01*
X93820Y-60447D01*
X93679Y-60389D01*
X93681Y-60382D01*
X93505Y-60309D01*
D02*
G37*
G36*
X19990Y-2580D02*
X18696D01*
X18625Y-2588D01*
X18561Y-2595D01*
X18497Y-2606D01*
X18441Y-2621D01*
X18393Y-2636D01*
X18348Y-2651D01*
X18306Y-2666D01*
X18269Y-2685D01*
X18239Y-2700D01*
X18213Y-2715D01*
X18190Y-2730D01*
X18175Y-2741D01*
X18160Y-2749D01*
X18156Y-2753D01*
X18153Y-2756D01*
X18119Y-2790D01*
X18085Y-2827D01*
X18059Y-2861D01*
X18036Y-2902D01*
X18002Y-2977D01*
X17980Y-3049D01*
X17965Y-3109D01*
X17961Y-3139D01*
X17957Y-3161D01*
X17954Y-3180D01*
Y-3195D01*
Y-3202D01*
Y-3206D01*
X17957Y-3274D01*
X17969Y-3341D01*
X17988Y-3398D01*
X18006Y-3450D01*
X18025Y-3495D01*
X18044Y-3525D01*
X18055Y-3548D01*
X18059Y-3551D01*
Y-3555D01*
X18100Y-3611D01*
X18149Y-3656D01*
X18198Y-3698D01*
X18246Y-3728D01*
X18288Y-3754D01*
X18321Y-3769D01*
X18348Y-3780D01*
X18351Y-3784D01*
X18355D01*
X18434Y-3806D01*
X18524Y-3825D01*
X18614Y-3836D01*
X18700Y-3847D01*
X18741D01*
X18779Y-3851D01*
X18812D01*
X18843Y-3855D01*
X19990D01*
Y-2580D01*
D02*
G37*
G36*
X6662Y-2561D02*
X6644Y-2621D01*
X6625Y-2685D01*
X6580Y-2816D01*
X6535Y-2951D01*
X6490Y-3079D01*
X6471Y-3135D01*
X6453Y-3187D01*
X6434Y-3236D01*
X6419Y-3277D01*
X6408Y-3311D01*
X6396Y-3337D01*
X6392Y-3353D01*
X6389Y-3360D01*
X5984Y-4425D01*
X7296D01*
X6869Y-3296D01*
X6824Y-3158D01*
X6782Y-3026D01*
X6745Y-2902D01*
X6730Y-2846D01*
X6715Y-2790D01*
X6704Y-2741D01*
X6692Y-2696D01*
X6685Y-2659D01*
X6678Y-2625D01*
X6670Y-2599D01*
X6666Y-2576D01*
X6662Y-2565D01*
Y-2561D01*
D02*
G37*
G36*
X63898Y-90397D02*
X63873D01*
X63817Y-90400D01*
X63767Y-90407D01*
X63717Y-90419D01*
X63670Y-90435D01*
X63627Y-90450D01*
X63586Y-90469D01*
X63549Y-90491D01*
X63514Y-90513D01*
X63486Y-90534D01*
X63458Y-90556D01*
X63436Y-90575D01*
X63418Y-90591D01*
X63402Y-90606D01*
X63393Y-90619D01*
X63386Y-90625D01*
X63383Y-90628D01*
X63361Y-90656D01*
X63343Y-90690D01*
X63308Y-90759D01*
X63283Y-90831D01*
X63262Y-90903D01*
X63249Y-90968D01*
X63243Y-90996D01*
X63240Y-91021D01*
X63237Y-91040D01*
X63234Y-91055D01*
Y-91065D01*
Y-91068D01*
X64531D01*
X64525Y-91012D01*
X64516Y-90959D01*
X64507Y-90912D01*
X64491Y-90865D01*
X64475Y-90821D01*
X64460Y-90781D01*
X64441Y-90743D01*
X64422Y-90712D01*
X64403Y-90681D01*
X64388Y-90656D01*
X64372Y-90634D01*
X64357Y-90615D01*
X64344Y-90600D01*
X64338Y-90591D01*
X64332Y-90584D01*
X64329Y-90581D01*
X64294Y-90550D01*
X64257Y-90519D01*
X64219Y-90497D01*
X64179Y-90475D01*
X64141Y-90456D01*
X64104Y-90441D01*
X64032Y-90419D01*
X63998Y-90413D01*
X63970Y-90407D01*
X63942Y-90403D01*
X63917Y-90400D01*
X63898Y-90397D01*
D02*
G37*
G36*
X56697D02*
X56672D01*
X56616Y-90400D01*
X56566Y-90407D01*
X56516Y-90419D01*
X56469Y-90435D01*
X56426Y-90450D01*
X56385Y-90469D01*
X56348Y-90491D01*
X56313Y-90513D01*
X56285Y-90534D01*
X56257Y-90556D01*
X56235Y-90575D01*
X56217Y-90591D01*
X56201Y-90606D01*
X56192Y-90619D01*
X56185Y-90625D01*
X56182Y-90628D01*
X56160Y-90656D01*
X56142Y-90690D01*
X56107Y-90759D01*
X56082Y-90831D01*
X56061Y-90903D01*
X56048Y-90968D01*
X56042Y-90996D01*
X56039Y-91021D01*
X56036Y-91040D01*
X56033Y-91055D01*
Y-91065D01*
Y-91068D01*
X57331D01*
X57324Y-91012D01*
X57315Y-90959D01*
X57306Y-90912D01*
X57290Y-90865D01*
X57274Y-90821D01*
X57259Y-90781D01*
X57240Y-90743D01*
X57221Y-90712D01*
X57203Y-90681D01*
X57187Y-90656D01*
X57171Y-90634D01*
X57156Y-90615D01*
X57143Y-90600D01*
X57137Y-90591D01*
X57131Y-90584D01*
X57128Y-90581D01*
X57093Y-90550D01*
X57056Y-90519D01*
X57019Y-90497D01*
X56978Y-90475D01*
X56941Y-90456D01*
X56903Y-90441D01*
X56831Y-90419D01*
X56797Y-90413D01*
X56769Y-90407D01*
X56741Y-90403D01*
X56716Y-90400D01*
X56697Y-90397D01*
D02*
G37*
G36*
X43038D02*
X43013D01*
X42957Y-90400D01*
X42907Y-90407D01*
X42857Y-90419D01*
X42810Y-90435D01*
X42766Y-90450D01*
X42726Y-90469D01*
X42688Y-90491D01*
X42654Y-90513D01*
X42626Y-90534D01*
X42598Y-90556D01*
X42576Y-90575D01*
X42557Y-90591D01*
X42542Y-90606D01*
X42532Y-90619D01*
X42526Y-90625D01*
X42523Y-90628D01*
X42501Y-90656D01*
X42482Y-90690D01*
X42448Y-90759D01*
X42423Y-90831D01*
X42401Y-90903D01*
X42389Y-90968D01*
X42383Y-90996D01*
X42379Y-91021D01*
X42376Y-91040D01*
X42373Y-91055D01*
Y-91065D01*
Y-91068D01*
X43671D01*
X43665Y-91012D01*
X43655Y-90959D01*
X43646Y-90912D01*
X43631Y-90865D01*
X43615Y-90821D01*
X43599Y-90781D01*
X43581Y-90743D01*
X43562Y-90712D01*
X43543Y-90681D01*
X43528Y-90656D01*
X43512Y-90634D01*
X43496Y-90615D01*
X43484Y-90600D01*
X43478Y-90591D01*
X43471Y-90584D01*
X43468Y-90581D01*
X43434Y-90550D01*
X43397Y-90519D01*
X43359Y-90497D01*
X43319Y-90475D01*
X43281Y-90456D01*
X43244Y-90441D01*
X43172Y-90419D01*
X43138Y-90413D01*
X43110Y-90407D01*
X43081Y-90403D01*
X43056Y-90400D01*
X43038Y-90397D01*
D02*
G37*
G36*
X32062Y-89601D02*
X30985D01*
X30926Y-89608D01*
X30873Y-89614D01*
X30820Y-89623D01*
X30773Y-89636D01*
X30733Y-89648D01*
X30695Y-89661D01*
X30661Y-89673D01*
X30630Y-89689D01*
X30605Y-89701D01*
X30583Y-89714D01*
X30564Y-89726D01*
X30551Y-89736D01*
X30539Y-89742D01*
X30536Y-89745D01*
X30533Y-89748D01*
X30505Y-89776D01*
X30477Y-89807D01*
X30455Y-89836D01*
X30436Y-89870D01*
X30408Y-89932D01*
X30389Y-89991D01*
X30377Y-90041D01*
X30374Y-90066D01*
X30371Y-90085D01*
X30367Y-90101D01*
Y-90113D01*
Y-90119D01*
Y-90123D01*
X30371Y-90179D01*
X30380Y-90235D01*
X30395Y-90282D01*
X30411Y-90325D01*
X30427Y-90363D01*
X30442Y-90388D01*
X30452Y-90407D01*
X30455Y-90410D01*
Y-90413D01*
X30489Y-90460D01*
X30530Y-90497D01*
X30570Y-90531D01*
X30611Y-90556D01*
X30645Y-90578D01*
X30673Y-90591D01*
X30695Y-90600D01*
X30698Y-90603D01*
X30701D01*
X30767Y-90622D01*
X30842Y-90637D01*
X30917Y-90647D01*
X30988Y-90656D01*
X31023D01*
X31054Y-90659D01*
X31082D01*
X31107Y-90662D01*
X32062D01*
Y-89601D01*
D02*
G37*
G36*
X13457Y-89626D02*
X12540D01*
X12496Y-89630D01*
X12455Y-89633D01*
X12421D01*
X12390Y-89636D01*
X12362Y-89639D01*
X12334Y-89642D01*
X12315Y-89645D01*
X12296Y-89648D01*
X12281Y-89651D01*
X12268D01*
X12253Y-89658D01*
X12246D01*
X12187Y-89679D01*
X12134Y-89705D01*
X12087Y-89736D01*
X12050Y-89767D01*
X12019Y-89798D01*
X11997Y-89823D01*
X11981Y-89839D01*
X11978Y-89842D01*
Y-89845D01*
X11944Y-89901D01*
X11919Y-89960D01*
X11900Y-90017D01*
X11888Y-90070D01*
X11881Y-90116D01*
X11878Y-90138D01*
X11875Y-90154D01*
Y-90169D01*
Y-90179D01*
Y-90185D01*
Y-90188D01*
X11878Y-90238D01*
X11881Y-90285D01*
X11903Y-90372D01*
X11916Y-90410D01*
X11931Y-90447D01*
X11947Y-90478D01*
X11963Y-90506D01*
X11978Y-90534D01*
X11994Y-90556D01*
X12009Y-90575D01*
X12022Y-90591D01*
X12034Y-90603D01*
X12044Y-90612D01*
X12047Y-90615D01*
X12050Y-90619D01*
X12084Y-90644D01*
X12125Y-90669D01*
X12168Y-90687D01*
X12212Y-90706D01*
X12309Y-90731D01*
X12406Y-90750D01*
X12449Y-90756D01*
X12493Y-90759D01*
X12530Y-90765D01*
X12565D01*
X12593Y-90768D01*
X13457D01*
Y-89626D01*
D02*
G37*
G36*
X54295Y-90400D02*
X54270D01*
X54220Y-90403D01*
X54173Y-90410D01*
X54129Y-90422D01*
X54086Y-90435D01*
X54008Y-90472D01*
X53973Y-90491D01*
X53942Y-90513D01*
X53914Y-90534D01*
X53889Y-90553D01*
X53867Y-90572D01*
X53852Y-90591D01*
X53836Y-90603D01*
X53827Y-90615D01*
X53821Y-90622D01*
X53817Y-90625D01*
X53786Y-90669D01*
X53755Y-90719D01*
X53733Y-90772D01*
X53711Y-90828D01*
X53693Y-90887D01*
X53677Y-90943D01*
X53655Y-91059D01*
X53649Y-91112D01*
X53643Y-91162D01*
X53640Y-91208D01*
X53636Y-91246D01*
X53633Y-91277D01*
Y-91302D01*
Y-91317D01*
Y-91324D01*
X53636Y-91402D01*
X53640Y-91477D01*
X53649Y-91545D01*
X53661Y-91608D01*
X53674Y-91667D01*
X53689Y-91720D01*
X53708Y-91767D01*
X53724Y-91811D01*
X53739Y-91848D01*
X53758Y-91879D01*
X53774Y-91907D01*
X53786Y-91929D01*
X53799Y-91948D01*
X53805Y-91960D01*
X53811Y-91966D01*
X53814Y-91970D01*
X53849Y-92007D01*
X53886Y-92038D01*
X53920Y-92066D01*
X53958Y-92091D01*
X53995Y-92110D01*
X54033Y-92129D01*
X54101Y-92154D01*
X54161Y-92166D01*
X54185Y-92172D01*
X54207Y-92176D01*
X54226Y-92179D01*
X54251D01*
X54298Y-92176D01*
X54345Y-92169D01*
X54388Y-92160D01*
X54429Y-92144D01*
X54504Y-92110D01*
X54569Y-92069D01*
X54597Y-92048D01*
X54622Y-92029D01*
X54644Y-92010D01*
X54660Y-91995D01*
X54675Y-91979D01*
X54685Y-91970D01*
X54691Y-91963D01*
X54694Y-91960D01*
X54728Y-91917D01*
X54756Y-91867D01*
X54781Y-91817D01*
X54803Y-91764D01*
X54819Y-91707D01*
X54835Y-91651D01*
X54856Y-91542D01*
X54866Y-91492D01*
X54872Y-91445D01*
X54875Y-91402D01*
X54878Y-91364D01*
X54881Y-91336D01*
Y-91311D01*
Y-91299D01*
Y-91293D01*
X54878Y-91208D01*
X54875Y-91130D01*
X54866Y-91059D01*
X54853Y-90993D01*
X54841Y-90931D01*
X54825Y-90874D01*
X54809Y-90825D01*
X54794Y-90781D01*
X54778Y-90740D01*
X54763Y-90709D01*
X54747Y-90678D01*
X54735Y-90656D01*
X54722Y-90637D01*
X54713Y-90625D01*
X54710Y-90619D01*
X54707Y-90615D01*
X54672Y-90578D01*
X54638Y-90544D01*
X54601Y-90516D01*
X54563Y-90491D01*
X54529Y-90469D01*
X54491Y-90453D01*
X54457Y-90438D01*
X54423Y-90428D01*
X54360Y-90413D01*
X54335Y-90407D01*
X54313Y-90403D01*
X54295Y-90400D01*
D02*
G37*
G36*
X45602D02*
X45577D01*
X45527Y-90403D01*
X45481Y-90410D01*
X45437Y-90422D01*
X45393Y-90435D01*
X45315Y-90472D01*
X45281Y-90491D01*
X45250Y-90513D01*
X45222Y-90534D01*
X45197Y-90553D01*
X45175Y-90572D01*
X45159Y-90591D01*
X45144Y-90603D01*
X45134Y-90615D01*
X45128Y-90622D01*
X45125Y-90625D01*
X45094Y-90669D01*
X45063Y-90719D01*
X45041Y-90772D01*
X45019Y-90828D01*
X45000Y-90887D01*
X44985Y-90943D01*
X44963Y-91059D01*
X44957Y-91112D01*
X44950Y-91162D01*
X44947Y-91208D01*
X44944Y-91246D01*
X44941Y-91277D01*
Y-91302D01*
Y-91317D01*
Y-91324D01*
X44944Y-91402D01*
X44947Y-91477D01*
X44957Y-91545D01*
X44969Y-91608D01*
X44982Y-91667D01*
X44997Y-91720D01*
X45016Y-91767D01*
X45031Y-91811D01*
X45047Y-91848D01*
X45066Y-91879D01*
X45081Y-91907D01*
X45094Y-91929D01*
X45106Y-91948D01*
X45113Y-91960D01*
X45119Y-91966D01*
X45122Y-91970D01*
X45156Y-92007D01*
X45194Y-92038D01*
X45228Y-92066D01*
X45265Y-92091D01*
X45303Y-92110D01*
X45340Y-92129D01*
X45409Y-92154D01*
X45468Y-92166D01*
X45493Y-92172D01*
X45515Y-92176D01*
X45534Y-92179D01*
X45559D01*
X45605Y-92176D01*
X45652Y-92169D01*
X45696Y-92160D01*
X45737Y-92144D01*
X45811Y-92110D01*
X45877Y-92069D01*
X45905Y-92048D01*
X45930Y-92029D01*
X45952Y-92010D01*
X45967Y-91995D01*
X45983Y-91979D01*
X45992Y-91970D01*
X45999Y-91963D01*
X46002Y-91960D01*
X46036Y-91917D01*
X46064Y-91867D01*
X46089Y-91817D01*
X46111Y-91764D01*
X46127Y-91707D01*
X46142Y-91651D01*
X46164Y-91542D01*
X46173Y-91492D01*
X46180Y-91445D01*
X46183Y-91402D01*
X46186Y-91364D01*
X46189Y-91336D01*
Y-91311D01*
Y-91299D01*
Y-91293D01*
X46186Y-91208D01*
X46183Y-91130D01*
X46173Y-91059D01*
X46161Y-90993D01*
X46148Y-90931D01*
X46133Y-90874D01*
X46117Y-90825D01*
X46102Y-90781D01*
X46086Y-90740D01*
X46070Y-90709D01*
X46055Y-90678D01*
X46042Y-90656D01*
X46030Y-90637D01*
X46020Y-90625D01*
X46017Y-90619D01*
X46014Y-90615D01*
X45980Y-90578D01*
X45946Y-90544D01*
X45908Y-90516D01*
X45871Y-90491D01*
X45836Y-90469D01*
X45799Y-90453D01*
X45765Y-90438D01*
X45730Y-90428D01*
X45668Y-90413D01*
X45643Y-90407D01*
X45621Y-90403D01*
X45602Y-90400D01*
D02*
G37*
G36*
X23170Y-89558D02*
X23151D01*
X23092Y-89561D01*
X23035Y-89564D01*
X22926Y-89583D01*
X22876Y-89595D01*
X22829Y-89608D01*
X22786Y-89623D01*
X22745Y-89639D01*
X22708Y-89655D01*
X22677Y-89670D01*
X22649Y-89683D01*
X22624Y-89695D01*
X22605Y-89705D01*
X22592Y-89714D01*
X22583Y-89717D01*
X22580Y-89720D01*
X22533Y-89751D01*
X22489Y-89786D01*
X22411Y-89857D01*
X22346Y-89932D01*
X22290Y-90007D01*
X22249Y-90073D01*
X22230Y-90101D01*
X22218Y-90123D01*
X22206Y-90144D01*
X22199Y-90160D01*
X22193Y-90169D01*
Y-90172D01*
X22168Y-90229D01*
X22149Y-90285D01*
X22115Y-90400D01*
X22090Y-90516D01*
X22084Y-90569D01*
X22074Y-90622D01*
X22071Y-90669D01*
X22065Y-90715D01*
X22062Y-90753D01*
Y-90787D01*
X22059Y-90815D01*
Y-90834D01*
Y-90850D01*
Y-90853D01*
X22062Y-90965D01*
X22071Y-91071D01*
X22087Y-91168D01*
X22106Y-91261D01*
X22131Y-91346D01*
X22156Y-91424D01*
X22184Y-91495D01*
X22212Y-91558D01*
X22243Y-91617D01*
X22271Y-91664D01*
X22296Y-91707D01*
X22318Y-91742D01*
X22340Y-91770D01*
X22355Y-91789D01*
X22365Y-91801D01*
X22368Y-91804D01*
X22427Y-91864D01*
X22489Y-91913D01*
X22555Y-91960D01*
X22621Y-91998D01*
X22689Y-92029D01*
X22755Y-92057D01*
X22817Y-92079D01*
X22879Y-92098D01*
X22936Y-92110D01*
X22989Y-92119D01*
X23035Y-92129D01*
X23076Y-92132D01*
X23110Y-92135D01*
X23135Y-92138D01*
X23157D01*
X23241Y-92135D01*
X23326Y-92123D01*
X23404Y-92107D01*
X23475Y-92085D01*
X23544Y-92060D01*
X23609Y-92032D01*
X23669Y-92004D01*
X23722Y-91973D01*
X23772Y-91941D01*
X23812Y-91913D01*
X23850Y-91885D01*
X23881Y-91860D01*
X23906Y-91839D01*
X23922Y-91823D01*
X23934Y-91811D01*
X23937Y-91807D01*
X23990Y-91742D01*
X24040Y-91673D01*
X24081Y-91598D01*
X24115Y-91523D01*
X24146Y-91449D01*
X24171Y-91374D01*
X24190Y-91299D01*
X24209Y-91227D01*
X24221Y-91158D01*
X24230Y-91096D01*
X24237Y-91040D01*
X24240Y-90993D01*
X24243Y-90952D01*
X24246Y-90921D01*
Y-90903D01*
Y-90899D01*
Y-90896D01*
X24243Y-90765D01*
X24234Y-90644D01*
X24215Y-90534D01*
X24196Y-90431D01*
X24171Y-90338D01*
X24143Y-90254D01*
X24115Y-90179D01*
X24084Y-90110D01*
X24056Y-90054D01*
X24028Y-90001D01*
X24000Y-89960D01*
X23975Y-89926D01*
X23953Y-89901D01*
X23937Y-89882D01*
X23928Y-89870D01*
X23925Y-89867D01*
X23862Y-89814D01*
X23797Y-89764D01*
X23731Y-89723D01*
X23666Y-89689D01*
X23600Y-89658D01*
X23538Y-89633D01*
X23475Y-89614D01*
X23416Y-89595D01*
X23360Y-89583D01*
X23310Y-89574D01*
X23266Y-89567D01*
X23226Y-89564D01*
X23195Y-89561D01*
X23170Y-89558D01*
D02*
G37*
%LPD*%
D71*
X84789Y-52963D02*
G03*
X84963Y-52980I97J97D01*
G01*
X82940Y-50957D02*
G03*
X82956Y-51130I113J-77D01*
G01*
X87237Y-51515D02*
G03*
X87108Y-51529I-52J-126D01*
G01*
X99319Y-46470D02*
G03*
X99219Y-46552I26J-134D01*
G01*
X99784Y-51130D02*
G03*
X99801Y-50957I-97J97D01*
G01*
X99219Y-42546D02*
G03*
X99319Y-42628I126J52D01*
G01*
X98336Y-48683D02*
G03*
X98349Y-48812I126J-52D01*
G01*
Y-40287D02*
G03*
X98336Y-40416I113J-77D01*
G01*
X101863Y-45980D02*
G03*
X101973Y-45845I-26J134D01*
G01*
Y-43253D02*
G03*
X101863Y-43119I-137J0D01*
G01*
X82956Y-37968D02*
G03*
X82940Y-38142I97J-97D01*
G01*
X84404Y-40416D02*
G03*
X84391Y-40287I-126J52D01*
G01*
X84962Y-36119D02*
G03*
X84789Y-36135I-77J-113D01*
G01*
X87108Y-37570D02*
G03*
X87237Y-37583I77J113D01*
G01*
X90074Y-33946D02*
G03*
X89940Y-34057I0J-137D01*
G01*
X95503Y-37583D02*
G03*
X95633Y-37570I52J126D01*
G01*
X89367Y-36701D02*
G03*
X89449Y-36600I-52J126D01*
G01*
X92801Y-34057D02*
G03*
X92666Y-33946I-134J-26D01*
G01*
X93291Y-36600D02*
G03*
X93373Y-36701I134J26D01*
G01*
X90187Y-47447D02*
G03*
X90118Y-47270I-127J52D01*
G01*
X92623D02*
G03*
X92553Y-47447I57J-124D01*
G01*
X92623Y-47270D02*
G03*
X90118Y-47270I-1252J2721D01*
G01*
X95633Y-51529D02*
G03*
X95503Y-51516I-77J-113D01*
G01*
X94349Y-51845D02*
G03*
X94528Y-51920I127J52D01*
G01*
X88212D02*
G03*
X88391Y-51845I52J126D01*
G01*
X84391Y-48812D02*
G03*
X84404Y-48683I-113J77D01*
G01*
X83421Y-42628D02*
G03*
X83522Y-42546I-26J134D01*
G01*
Y-46552D02*
G03*
X83421Y-46470I-126J-52D01*
G01*
X80878Y-43119D02*
G03*
X80767Y-43253I26J-134D01*
G01*
Y-45845D02*
G03*
X80878Y-45980I137J0D01*
G01*
X99801Y-38142D02*
G03*
X99784Y-37968I-113J77D01*
G01*
X97778Y-52980D02*
G03*
X97951Y-52963I77J113D01*
G01*
X97951Y-36135D02*
G03*
X97778Y-36119I-97J-97D01*
G01*
X98942Y-61079D02*
G03*
X98554Y-61015I-381J-1102D01*
G01*
X97820Y-61953D02*
G03*
X97861Y-62041I332J102D01*
G01*
X98663Y-61510D02*
G03*
X98451Y-61483I-228J-947D01*
G01*
X98646Y-62157D02*
G03*
X98806Y-62074I-93J371D01*
G01*
X98930Y-61828D02*
G03*
X98902Y-61682I-326J14D01*
G01*
X93271Y-62627D02*
G03*
X93670Y-62709I390J886D01*
G01*
X92939Y-62382D02*
G03*
X93271Y-62627I750J667D01*
G01*
X93019Y-60668D02*
G03*
X92939Y-61257I2088J-586D01*
G01*
X94060Y-61257D02*
G03*
X93980Y-60657I-2133J19D01*
G01*
X93178Y-60453D02*
G03*
X93019Y-60668I181J-301D01*
G01*
X94620Y-60817D02*
G03*
X94589Y-60536I-2125J-87D01*
G01*
X94630Y-61257D02*
G03*
X94620Y-60817I-8016J35D01*
G01*
X93980Y-60657D02*
G03*
X93819Y-60450I-326J-88D01*
G01*
X97861Y-62041D02*
G03*
X97918Y-62100I179J117D01*
G01*
X98036Y-62648D02*
G03*
X98231Y-62701I320J793D01*
G01*
X97918Y-62100D02*
G03*
X98112Y-62166I267J464D01*
G01*
X97799Y-62436D02*
G03*
X98036Y-62648I405J215D01*
G01*
X97787Y-61692D02*
G03*
X97820Y-61953I874J-23D01*
G01*
X98231Y-62702D02*
G03*
X98478Y-62719I236J1559D01*
G01*
X95995Y-60147D02*
G03*
X95678Y-59895I-672J-522D01*
G01*
X95835Y-60522D02*
G03*
X95454Y-60381I-380J-443D01*
G01*
X95963Y-60705D02*
G03*
X95835Y-60522I-403J-145D01*
G01*
X95678Y-59895D02*
G03*
X95258Y-59812I-402J-920D01*
G01*
X96005Y-60974D02*
G03*
X95963Y-60705I-761J17D01*
G01*
X95454Y-60381D02*
G03*
X95265Y-60416I2J-541D01*
G01*
X95265Y-60416D02*
G03*
X95077Y-60521I266J-693D01*
G01*
X94121Y-59916D02*
G03*
X93914Y-59838I-382J-695D01*
G01*
X93274Y-59905D02*
G03*
X92939Y-60147I711J-1340D01*
G01*
X94954Y-59866D02*
G03*
X94666Y-60030I381J-1005D01*
G01*
X93819Y-60450D02*
G03*
X93678Y-60398I-237J-429D01*
G01*
D02*
G03*
X93496Y-60381I-173J-855D01*
G01*
Y-60381D02*
G03*
X93318Y-60399I-8J-814D01*
G01*
X93914Y-59838D02*
G03*
X93670Y-59812I-236J-1048D01*
G01*
X94428Y-60180D02*
G03*
X94121Y-59916I-767J-585D01*
G01*
X93670Y-59812D02*
G03*
X93274Y-59905I-12J-840D01*
G01*
X94589Y-60536D02*
G03*
X94428Y-60180I-816J-154D01*
G01*
X95258Y-59812D02*
G03*
X94954Y-59866I-0J-869D01*
G01*
X98353Y-60348D02*
G03*
X98104Y-60367I-37J-1153D01*
G01*
X98680Y-60393D02*
G03*
X98533Y-60360I-247J-749D01*
G01*
X97821Y-60551D02*
G03*
X97787Y-60715I323J-153D01*
G01*
X98104Y-60367D02*
G03*
X97927Y-60435I90J-502D01*
G01*
X97550Y-60016D02*
G03*
X97318Y-60307I386J-547D01*
G01*
X97258Y-60509D02*
G03*
X97236Y-60748I1388J-249D01*
G01*
X98380Y-59814D02*
G03*
X97915Y-59862I-41J-1893D01*
G01*
X97915Y-59862D02*
G03*
X97550Y-60016I259J-1122D01*
G01*
X97318Y-60307D02*
G03*
X97258Y-60509I874J-368D01*
G01*
X97927Y-60435D02*
G03*
X97821Y-60551I156J-249D01*
G01*
X94589Y-61987D02*
G03*
X94620Y-61702I-2148J373D01*
G01*
X93980Y-61866D02*
G03*
X94060Y-61257I-2087J586D01*
G01*
X93318Y-62124D02*
G03*
X93496Y-62142I170J796D01*
G01*
X93678Y-62125D02*
G03*
X93819Y-62073I-96J481D01*
G01*
Y-62073D02*
G03*
X93980Y-61866I-164J294D01*
G01*
X93914Y-62683D02*
G03*
X94121Y-62607I-174J787D01*
G01*
X93496Y-62142D02*
G03*
X93678Y-62125I9J872D01*
G01*
X94620Y-61702D02*
G03*
X94630Y-61257I-8210J410D01*
G01*
X94428Y-62344D02*
G03*
X94589Y-61987I-637J503D01*
G01*
X94121Y-62607D02*
G03*
X94428Y-62344I-431J816D01*
G01*
X93019Y-61855D02*
G03*
X93178Y-62070I340J86D01*
G01*
X93670Y-62709D02*
G03*
X93914Y-62683I8J1100D01*
G01*
X97899Y-55386D02*
G03*
X97520Y-55628I455J-1128D01*
G01*
X98336Y-55305D02*
G03*
X97899Y-55386I-9J-1175D01*
G01*
X97919Y-56011D02*
G03*
X97791Y-56218I411J-398D01*
G01*
X97520Y-55628D02*
G03*
X97258Y-56008I701J-764D01*
G01*
X97258Y-56008D02*
G03*
X97171Y-56500I1226J-471D01*
G01*
X98107Y-55884D02*
G03*
X97919Y-56011I211J-514D01*
G01*
X97791Y-56218D02*
G03*
X97739Y-56500I873J-305D01*
G01*
X97226Y-57747D02*
G03*
X97450Y-57957I1042J883D01*
G01*
X97929Y-57600D02*
G03*
X98260Y-57668I327J746D01*
G01*
X97700Y-58097D02*
G03*
X98250Y-58202I546J1369D01*
G01*
X97450Y-57957D02*
G03*
X97700Y-58097I662J888D01*
G01*
X98528Y-57624D02*
G03*
X98744Y-57493I-214J596D01*
G01*
X97638Y-57394D02*
G03*
X97929Y-57600I678J651D01*
G01*
X95539Y-55875D02*
G03*
X95321Y-55915I-7J-577D01*
G01*
X94719Y-55556D02*
G03*
X94489Y-55864I494J-609D01*
G01*
X95763Y-55915D02*
G03*
X95539Y-55875I-216J-559D01*
G01*
X95356Y-55305D02*
G03*
X95032Y-55368I2J-878D01*
G01*
X94431Y-56061D02*
G03*
X94412Y-56287I1246J-219D01*
G01*
X95776Y-55389D02*
G03*
X95356Y-55305I-402J-920D01*
G01*
X95321Y-55915D02*
G03*
X95141Y-56036I201J-493D01*
G01*
X95141D02*
G03*
X95021Y-56228I366J-362D01*
G01*
X95032Y-55368D02*
G03*
X94719Y-55556I445J-1093D01*
G01*
X94489Y-55864D02*
G03*
X94431Y-56061I870J-361D01*
G01*
X96104Y-56483D02*
G03*
X96064Y-56228I-757J12D01*
G01*
X96064Y-56228D02*
G03*
X95944Y-56036I-486J-169D01*
G01*
X95944Y-56036D02*
G03*
X95763Y-55915I-377J-369D01*
G01*
X96093Y-55640D02*
G03*
X95776Y-55389I-672J-522D01*
G01*
X95021Y-56228D02*
G03*
X94982Y-56483I717J-243D01*
G01*
X92939Y-61257D02*
G03*
X93019Y-61855I2202J-8D01*
G01*
X93318Y-60399D02*
G03*
X93178Y-60453I97J-458D01*
G01*
Y-62070D02*
G03*
X93318Y-62124I236J404D01*
G01*
X91706Y-56451D02*
G03*
X91887Y-56419I-43J788D01*
G01*
X92060Y-56273D02*
G03*
X92080Y-56183I-192J90D01*
G01*
X91594Y-55842D02*
G03*
X91185Y-55916I-18J-1068D01*
G01*
X91825Y-55866D02*
G03*
X91594Y-55842I-213J-921D01*
G01*
X92001Y-56356D02*
G03*
X92060Y-56273I-201J207D01*
G01*
X92080Y-56183D02*
G03*
X91973Y-55939I-316J8D01*
G01*
X92156Y-56909D02*
G03*
X92418Y-56748I-322J821D01*
G01*
X92650Y-56178D02*
G03*
X92574Y-55800I-890J19D01*
G01*
X92418Y-56748D02*
G03*
X92592Y-56503I-428J488D01*
G01*
X91834Y-56979D02*
G03*
X92156Y-56909I-71J1088D01*
G01*
X92592Y-56503D02*
G03*
X92650Y-56178I-800J310D01*
G01*
X91973Y-55939D02*
G03*
X91825Y-55866I-221J-263D01*
G01*
X91887Y-56419D02*
G03*
X92001Y-56356I-75J268D01*
G01*
X91237Y-56483D02*
G03*
X91033Y-56512I89J-1395D01*
G01*
D02*
G03*
X90859Y-56566I200J-934D01*
G01*
X89486Y-56492D02*
G03*
X89464Y-56322I-1135J-58D01*
G01*
X89486Y-57016D02*
G03*
X89493Y-56750I-4135J245D01*
G01*
X90045Y-56353D02*
G03*
X89992Y-56072I-1430J-126D01*
G01*
X89493Y-56750D02*
G03*
X89486Y-56492I-3931J20D01*
G01*
X89464Y-57189D02*
G03*
X89486Y-57016I-1143J231D01*
G01*
X89464Y-56322D02*
G03*
X89354Y-56083I-650J-154D01*
G01*
X89167Y-57583D02*
G03*
X89354Y-57427I-186J413D01*
G01*
X89757Y-57842D02*
G03*
X89992Y-57438I-804J738D01*
G01*
X89354Y-57427D02*
G03*
X89464Y-57189I-516J383D01*
G01*
X89197Y-58174D02*
G03*
X89434Y-58088I-167J835D01*
G01*
X89434Y-58088D02*
G03*
X89618Y-57969I-738J1345D01*
G01*
X89992Y-57438D02*
G03*
X90046Y-57155I-1381J407D01*
G01*
X88896Y-57635D02*
G03*
X89167Y-57583I16J650D01*
G01*
X88297Y-56757D02*
G03*
X88305Y-57019I3706J-20D01*
G01*
X88627Y-57583D02*
G03*
X88896Y-57635I254J593D01*
G01*
X88305Y-56494D02*
G03*
X88297Y-56757I3724J-243D01*
G01*
X88437Y-57427D02*
G03*
X88627Y-57583I381J270D01*
G01*
X88361Y-58088D02*
G03*
X88598Y-58174I409J759D01*
G01*
X88329Y-57190D02*
G03*
X88437Y-57427I697J176D01*
G01*
X88305Y-57019D02*
G03*
X88329Y-57190I1050J57D01*
G01*
X88329Y-56322D02*
G03*
X88305Y-56494I1028J-228D01*
G01*
X88896Y-58202D02*
G03*
X89197Y-58174I14J1451D01*
G01*
X88598Y-58174D02*
G03*
X88896Y-58202I284J1394D01*
G01*
X90986Y-57304D02*
G03*
X91025Y-57463I309J-7D01*
G01*
X91072Y-57111D02*
G03*
X91007Y-57194I137J-174D01*
G01*
X90757Y-57976D02*
G03*
X91136Y-58145I712J1079D01*
G01*
X91181Y-57055D02*
G03*
X91072Y-57111I99J-325D01*
G01*
X91333Y-57027D02*
G03*
X91181Y-57055I51J-685D01*
G01*
X91144Y-57576D02*
G03*
X91323Y-57645I317J558D01*
G01*
X91025Y-57463D02*
G03*
X91144Y-57576I271J164D01*
G01*
X91007Y-57194D02*
G03*
X90986Y-57304I244J-105D01*
G01*
X89434Y-55422D02*
G03*
X89197Y-55334I-407J-735D01*
G01*
X88627Y-55927D02*
G03*
X88437Y-56083I192J-426D01*
G01*
X88896Y-55875D02*
G03*
X88627Y-55927I-15J-645D01*
G01*
X88896Y-55305D02*
G03*
X88598Y-55334I-13J-1392D01*
G01*
X89354Y-56083D02*
G03*
X89167Y-55927I-373J-257D01*
G01*
X89757Y-55668D02*
G03*
X89618Y-55542I-754J-695D01*
G01*
X89167Y-55927D02*
G03*
X88896Y-55875I-255J-598D01*
G01*
X89618Y-55542D02*
G03*
X89434Y-55422I-992J-1319D01*
G01*
X88598Y-55334D02*
G03*
X88361Y-55422I173J-832D01*
G01*
X89197Y-55334D02*
G03*
X88896Y-55305I-287J-1390D01*
G01*
X88437Y-56083D02*
G03*
X88329Y-56322I617J-424D01*
G01*
X90501Y-57701D02*
G03*
X90757Y-57976I660J359D01*
G01*
X90045Y-57155D02*
G03*
X90063Y-56750I-3962J378D01*
G01*
X89618Y-57969D02*
G03*
X89757Y-57842I-586J781D01*
G01*
X89992Y-56072D02*
G03*
X89757Y-55668I-1039J-334D01*
G01*
X90416Y-57332D02*
G03*
X90501Y-57701I778J-15D01*
G01*
X90063Y-56750D02*
G03*
X90046Y-56353I-3858J26D01*
G01*
X90607Y-56755D02*
G03*
X90464Y-57020I675J-535D01*
G01*
X91323Y-57645D02*
G03*
X91545Y-57668I212J970D01*
G01*
X91136Y-58146D02*
G03*
X91589Y-58202I438J1666D01*
G01*
X90464Y-57020D02*
G03*
X90416Y-57332I941J-303D01*
G01*
X91185Y-55916D02*
G03*
X90836Y-56105I726J-1756D01*
G01*
X90859Y-56566D02*
G03*
X90607Y-56755I241J-587D01*
G01*
X90959Y-55410D02*
G03*
X90484Y-55690I623J-1597D01*
G01*
X92347Y-55526D02*
G03*
X92008Y-55360I-641J-882D01*
G01*
X92574Y-55800D02*
G03*
X92347Y-55526I-635J-296D01*
G01*
X91250Y-55331D02*
G03*
X90959Y-55410I222J-1402D01*
G01*
X92008Y-55360D02*
G03*
X91594Y-55305I-398J-1406D01*
G01*
X91594Y-55305D02*
G03*
X91250Y-55331I-12J-2120D01*
G01*
X92254Y-58076D02*
G03*
X92835Y-57698I-720J1743D01*
G01*
X91545Y-57668D02*
G03*
X92028Y-57577I12J1269D01*
G01*
X92028Y-57577D02*
G03*
X92437Y-57304I-485J1170D01*
G01*
X91589Y-58202D02*
G03*
X92254Y-58076I12J1757D01*
G01*
X83408Y-55389D02*
G03*
X82988Y-55305I-402J-920D01*
G01*
X83184Y-55875D02*
G03*
X82994Y-55910I2J-541D01*
G01*
X83564Y-56015D02*
G03*
X83184Y-55875I-380J-443D01*
G01*
X83735Y-56468D02*
G03*
X83693Y-56199I-761J17D01*
G01*
X83693D02*
G03*
X83564Y-56015I-403J-145D01*
G01*
X83725Y-55640D02*
G03*
X83408Y-55389I-672J-522D01*
G01*
X81635Y-55389D02*
G03*
X81167Y-55305I-461J-1221D01*
G01*
X80862Y-55340D02*
G03*
X80590Y-55444I257J-1080D01*
G01*
X81145Y-55875D02*
G03*
X80834Y-55949I-5J-672D01*
G01*
X81468Y-55930D02*
G03*
X81145Y-55875I-305J-811D01*
G01*
X81167Y-55305D02*
G03*
X80862Y-55340I-7J-1303D01*
G01*
X82055Y-55642D02*
G03*
X81635Y-55389I-939J-1085D01*
G01*
X80590Y-55444D02*
G03*
X80149Y-55796I750J-1392D01*
G01*
X80149Y-57714D02*
G03*
X80590Y-58065I1176J1026D01*
G01*
X79879Y-57490D02*
G03*
X79956Y-57164I-1589J546D01*
G01*
X80834Y-55949D02*
G03*
X80569Y-56170I394J-739D01*
G01*
X79769Y-55811D02*
G03*
X79604Y-55621I-696J-438D01*
G01*
X79573Y-57920D02*
G03*
X79751Y-57742I-415J596D01*
G01*
X79982Y-56765D02*
G03*
X79958Y-56383I-2863J15D01*
G01*
X79958D02*
G03*
X79887Y-56065I-1755J-225D01*
G01*
X79157Y-58132D02*
G03*
X79573Y-57920I-537J1569D01*
G01*
X79235Y-56011D02*
G03*
X79046Y-55884I-398J-388D01*
G01*
X79887Y-56065D02*
G03*
X79769Y-55811I-1073J-344D01*
G01*
X79751Y-57742D02*
G03*
X79879Y-57490I-831J580D01*
G01*
X79365Y-57275D02*
G03*
X79412Y-56969I-850J288D01*
G01*
X79363Y-56218D02*
G03*
X79235Y-56011I-530J-184D01*
G01*
X79956Y-57164D02*
G03*
X79982Y-56765I-2849J383D01*
G01*
X79604Y-55621D02*
G03*
X79218Y-55384I-935J-1090D01*
G01*
X79412Y-56500D02*
G03*
X79363Y-56218I-905J-11D01*
G01*
X80862Y-58168D02*
G03*
X81167Y-58202I299J1280D01*
G01*
X80832Y-57561D02*
G03*
X81145Y-57635I307J595D01*
G01*
X82228Y-57674D02*
G03*
X82352Y-57424I-945J624D01*
G01*
X82427Y-57118D02*
G03*
X82452Y-56757I-2434J349D01*
G01*
X81468Y-57580D02*
G03*
X81698Y-57416I-206J531D01*
G01*
X81836Y-57141D02*
G03*
X81882Y-56757I-1388J361D01*
G01*
X80569Y-57337D02*
G03*
X80832Y-57561I655J503D01*
G01*
X82352Y-57424D02*
G03*
X82427Y-57118I-1525J533D01*
G01*
X82055Y-57868D02*
G03*
X82228Y-57674I-596J707D01*
G01*
X81698Y-57416D02*
G03*
X81836Y-57141I-563J455D01*
G01*
X81167Y-58202D02*
G03*
X81635Y-58119I6J1317D01*
G01*
X80590Y-58065D02*
G03*
X80862Y-58168I528J983D01*
G01*
X81635Y-58119D02*
G03*
X82055Y-57868I-515J1343D01*
G01*
X81145Y-57635D02*
G03*
X81468Y-57580I18J870D01*
G01*
X88176Y-55542D02*
G03*
X88036Y-55668I621J-835D01*
G01*
X87731Y-56750D02*
G03*
X87748Y-57155I4017J-27D01*
G01*
Y-56353D02*
G03*
X87731Y-56750I3876J-371D01*
G01*
X88036Y-55668D02*
G03*
X87801Y-56072I798J-733D01*
G01*
X87801Y-56072D02*
G03*
X87748Y-56353I1389J-408D01*
G01*
X88361Y-55422D02*
G03*
X88176Y-55542I816J-1461D01*
G01*
X86263Y-58202D02*
G03*
X86592Y-58140I-1J902D01*
G01*
X85680Y-57476D02*
G03*
X85860Y-57595I379J374D01*
G01*
X86302Y-57595D02*
G03*
X86483Y-57476I-195J491D01*
G01*
X85847Y-58119D02*
G03*
X86263Y-58202I398J910D01*
G01*
X85532Y-57870D02*
G03*
X85847Y-58119I669J521D01*
G01*
X85521Y-57027D02*
G03*
X85561Y-57284I764J-13D01*
G01*
X85561Y-57284D02*
G03*
X85680Y-57476I481J166D01*
G01*
X85860Y-57595D02*
G03*
X86078Y-57635I212J542D01*
G01*
Y-57635D02*
G03*
X86302Y-57595I8J604D01*
G01*
X88036Y-57842D02*
G03*
X88176Y-57969I731J668D01*
G01*
X87801Y-57438D02*
G03*
X88036Y-57842I1033J329D01*
G01*
X86592Y-58140D02*
G03*
X86906Y-57953I-434J1085D01*
G01*
X86603Y-57284D02*
G03*
X86642Y-57027I-724J244D01*
G01*
X88176Y-57969D02*
G03*
X88361Y-58088I929J1246D01*
G01*
X87193Y-57447D02*
G03*
X87212Y-57220I-1259J220D01*
G01*
X87748Y-57155D02*
G03*
X87801Y-57438I1446J124D01*
G01*
X86906Y-57953D02*
G03*
X87135Y-57645I-489J605D01*
G01*
X86483Y-57476D02*
G03*
X86603Y-57284I-361J358D01*
G01*
X87135Y-57645D02*
G03*
X87193Y-57447I-874J361D01*
G01*
X82994Y-55910D02*
G03*
X82807Y-56015I266J-693D01*
G01*
X82228Y-55838D02*
G03*
X82055Y-55642I-781J-516D01*
G01*
X82427Y-56396D02*
G03*
X82352Y-56089I-1609J-229D01*
G01*
X81836Y-56371D02*
G03*
X81698Y-56095I-706J-181D01*
G01*
X82352Y-56089D02*
G03*
X82228Y-55838I-1079J-376D01*
G01*
X82452Y-56757D02*
G03*
X82427Y-56396I-2463J12D01*
G01*
X81882Y-56757D02*
G03*
X81836Y-56371I-1446J23D01*
G01*
X82988Y-55305D02*
G03*
X82684Y-55360I-0J-869D01*
G01*
Y-55360D02*
G03*
X82396Y-55524I381J-1005D01*
G01*
X81698Y-56095D02*
G03*
X81468Y-55930I-437J-366D01*
G01*
X78377Y-55386D02*
G03*
X77998Y-55628I455J-1128D01*
G01*
X77998Y-55628D02*
G03*
X77736Y-56008I701J-764D01*
G01*
X78814Y-55842D02*
G03*
X78585Y-55884I-7J-603D01*
G01*
X78814Y-55305D02*
G03*
X78377Y-55386I-9J-1175D01*
G01*
X79218Y-55384D02*
G03*
X78814Y-55305I-405J-999D01*
G01*
X78585Y-55884D02*
G03*
X78397Y-56011I211J-514D01*
G01*
X78268Y-56218D02*
G03*
X78217Y-56500I873J-305D01*
G01*
X78397Y-56011D02*
G03*
X78268Y-56218I411J-398D01*
G01*
X77736Y-56008D02*
G03*
X77649Y-56500I1226J-471D01*
G01*
X79046Y-55884D02*
G03*
X78814Y-55842I-225J-575D01*
G01*
X77704Y-57747D02*
G03*
X77928Y-57957I1042J883D01*
G01*
X79006Y-57624D02*
G03*
X79222Y-57493I-214J596D01*
G01*
X78178Y-58097D02*
G03*
X78728Y-58202I546J1369D01*
G01*
X78738Y-57668D02*
G03*
X79006Y-57624I10J786D01*
G01*
X79222Y-57493D02*
G03*
X79365Y-57275I-370J397D01*
G01*
X78407Y-57600D02*
G03*
X78738Y-57668I327J746D01*
G01*
X78728Y-58202D02*
G03*
X79157Y-58132I-1J1347D01*
G01*
X78116Y-57394D02*
G03*
X78407Y-57600I678J651D01*
G01*
X77928Y-57957D02*
G03*
X78178Y-58097I662J888D01*
G01*
X101244Y-57617D02*
G03*
X101384Y-57564I-97J464D01*
G01*
X100883Y-57618D02*
G03*
X101063Y-57635I172J849D01*
G01*
X100649Y-58177D02*
G03*
X100891Y-58202I234J1057D01*
G01*
X101063Y-57635D02*
G03*
X101244Y-57617I9J831D01*
G01*
X100891Y-58202D02*
G03*
X101288Y-58113I14J863D01*
G01*
Y-58113D02*
G03*
X101622Y-57870I-640J1233D01*
G01*
X101384Y-57564D02*
G03*
X101543Y-57350I-176J298D01*
G01*
X100742Y-57566D02*
G03*
X100883Y-57618I237J427D01*
G01*
X100581Y-57360D02*
G03*
X100742Y-57566I326J88D01*
G01*
X101543Y-57350D02*
G03*
X101622Y-56757I-2128J586D01*
G01*
X101463Y-60542D02*
G03*
X101282Y-60421I-377J-369D01*
G01*
X100840D02*
G03*
X100660Y-60542I201J-493D01*
G01*
X101282Y-60421D02*
G03*
X101058Y-60381I-216J-559D01*
G01*
X100008Y-60370D02*
G03*
X99950Y-60568I870J-361D01*
G01*
X99950Y-60568D02*
G03*
X99931Y-60794I1246J-220D01*
G01*
X101295Y-59895D02*
G03*
X100875Y-59812I-402J-920D01*
G01*
X101058Y-60381D02*
G03*
X100840Y-60421I-7J-577D01*
G01*
X100551Y-59874D02*
G03*
X100238Y-60062I445J-1093D01*
G01*
X100238Y-60062D02*
G03*
X100008Y-60370I494J-609D01*
G01*
X100875Y-59812D02*
G03*
X100551Y-59874I2J-878D01*
G01*
X101612Y-60147D02*
G03*
X101295Y-59895I-672J-522D01*
G01*
X101622Y-60990D02*
G03*
X101583Y-60735I-757J12D01*
G01*
X101583Y-60735D02*
G03*
X101463Y-60542I-486J-169D01*
G01*
X104477Y-56750D02*
G03*
X104470Y-56492I-3931J20D01*
G01*
X105030Y-56353D02*
G03*
X104976Y-56072I-1430J-126D01*
G01*
X104448Y-57189D02*
G03*
X104470Y-57016I-1143J231D01*
G01*
X105030Y-57155D02*
G03*
X105048Y-56750I-3962J377D01*
G01*
X104151Y-57583D02*
G03*
X104338Y-57427I-186J413D01*
G01*
X104470Y-57016D02*
G03*
X104477Y-56750I-4135J245D01*
G01*
X105048Y-56750D02*
G03*
X105030Y-56353I-3858J26D01*
G01*
X104470Y-56492D02*
G03*
X104448Y-56322I-1135J-58D01*
G01*
X104338Y-57427D02*
G03*
X104448Y-57189I-516J383D01*
G01*
X103611Y-57583D02*
G03*
X103880Y-57635I254J593D01*
G01*
X103880Y-57635D02*
G03*
X104151Y-57583I16J650D01*
G01*
X104603Y-57969D02*
G03*
X104741Y-57842I-586J781D01*
G01*
X104419Y-58088D02*
G03*
X104603Y-57969I-738J1345D01*
G01*
X103583Y-58174D02*
G03*
X103880Y-58202I284J1394D01*
G01*
Y-58202D02*
G03*
X104181Y-58174I14J1451D01*
G01*
X103313Y-57190D02*
G03*
X103422Y-57427I697J176D01*
G01*
X104181Y-58174D02*
G03*
X104419Y-58088I-167J835D01*
G01*
X104976Y-57438D02*
G03*
X105030Y-57155I-1381J408D01*
G01*
X103345Y-58088D02*
G03*
X103583Y-58174I409J759D01*
G01*
X104741Y-57842D02*
G03*
X104976Y-57438I-804J738D01*
G01*
X104338Y-56083D02*
G03*
X104151Y-55927I-373J-257D01*
G01*
X104602Y-55542D02*
G03*
X104419Y-55422I-992J-1319D01*
G01*
X104741Y-55668D02*
G03*
X104603Y-55542I-754J-695D01*
G01*
X104151Y-55927D02*
G03*
X103880Y-55875I-255J-598D01*
G01*
X104419Y-55422D02*
G03*
X104181Y-55334I-407J-735D01*
G01*
X104976Y-56072D02*
G03*
X104741Y-55668I-1039J-334D01*
G01*
X104448Y-56322D02*
G03*
X104338Y-56083I-650J-153D01*
G01*
X99222Y-61260D02*
G03*
X98942Y-61079I-517J-492D01*
G01*
X98813Y-61577D02*
G03*
X98663Y-61510I-252J-369D01*
G01*
X98902Y-61682D02*
G03*
X98813Y-61577I-243J-114D01*
G01*
X99392Y-61529D02*
G03*
X99222Y-61260I-758J-290D01*
G01*
X99448Y-61855D02*
G03*
X99392Y-61529I-911J10D01*
G01*
X100540Y-60735D02*
G03*
X100501Y-60990I717J-243D01*
G01*
X100660Y-60542D02*
G03*
X100540Y-60735I366J-362D01*
G01*
X101622Y-56757D02*
G03*
X101543Y-56161I-2227J7D01*
G01*
X100501Y-56757D02*
G03*
X100581Y-57360I2143J-21D01*
G01*
X100444Y-58100D02*
G03*
X100649Y-58177I380J707D01*
G01*
X99973Y-57482D02*
G03*
X100133Y-57837I825J158D01*
G01*
X99942Y-57199D02*
G03*
X99973Y-57482I2086J88D01*
G01*
X100133Y-57837D02*
G03*
X100444Y-58100I765J589D01*
G01*
X100581Y-56152D02*
G03*
X100501Y-56757I2083J-585D01*
G01*
X99941Y-56313D02*
G03*
X99931Y-56757I7917J-409D01*
G01*
X98919Y-59912D02*
G03*
X98668Y-59836I-443J-1009D01*
G01*
X99310Y-60227D02*
G03*
X98919Y-59912I-788J-579D01*
G01*
X98668Y-59836D02*
G03*
X98380Y-59814I-255J-1447D01*
G01*
X98533Y-60360D02*
G03*
X98353Y-60348I-172J-1330D01*
G01*
X98874Y-60570D02*
G03*
X98680Y-60393I-353J-193D01*
G01*
X98568Y-55884D02*
G03*
X98336Y-55842I-225J-575D01*
G01*
X98934Y-56500D02*
G03*
X98886Y-56218I-905J-11D01*
G01*
X99291Y-55811D02*
G03*
X99126Y-55621I-696J-438D01*
G01*
X98336Y-55842D02*
G03*
X98107Y-55884I-7J-603D01*
G01*
X99126Y-55621D02*
G03*
X98740Y-55384I-935J-1090D01*
G01*
X99480Y-56383D02*
G03*
X99409Y-56065I-1755J-224D01*
G01*
X98757Y-56011D02*
G03*
X98568Y-55884I-398J-388D01*
G01*
X99409Y-56065D02*
G03*
X99291Y-55811I-1073J-344D01*
G01*
X98740Y-55384D02*
G03*
X98336Y-55305I-405J-999D01*
G01*
X98886Y-56218D02*
G03*
X98757Y-56011I-530J-184D01*
G01*
X99504Y-56765D02*
G03*
X99480Y-56383I-2863J14D01*
G01*
X98899Y-61960D02*
G03*
X98930Y-61828I-258J130D01*
G01*
X98806Y-62074D02*
G03*
X98899Y-61960I-231J284D01*
G01*
X99383Y-62195D02*
G03*
X99448Y-61855I-793J329D01*
G01*
X98409Y-62185D02*
G03*
X98646Y-62157I16J886D01*
G01*
X98890Y-62651D02*
G03*
X99186Y-62469I-249J739D01*
G01*
X98478Y-62719D02*
G03*
X98890Y-62651I-7J1324D01*
G01*
X99186Y-62469D02*
G03*
X99383Y-62195I-531J588D01*
G01*
X98112Y-62166D02*
G03*
X98409Y-62185I250J1607D01*
G01*
X103611Y-55927D02*
G03*
X103422Y-56083I192J-426D01*
G01*
X103345Y-55422D02*
G03*
X103160Y-55542I816J-1461D01*
G01*
X104181Y-55334D02*
G03*
X103880Y-55305I-287J-1390D01*
G01*
X103880Y-55875D02*
G03*
X103611Y-55927I-15J-645D01*
G01*
X103880Y-55305D02*
G03*
X103583Y-55334I-13J-1392D01*
G01*
X103422Y-56083D02*
G03*
X103313Y-56322I617J-424D01*
G01*
X102786Y-56072D02*
G03*
X102733Y-56353I1389J-407D01*
G01*
X103583Y-55334D02*
G03*
X103345Y-55422I173J-832D01*
G01*
X103020Y-55668D02*
G03*
X102786Y-56072I798J-733D01*
G01*
X103160Y-55542D02*
G03*
X103020Y-55668I621J-835D01*
G01*
X98250Y-58202D02*
G03*
X98679Y-58132I-1J1347D01*
G01*
X99274Y-57742D02*
G03*
X99401Y-57490I-831J580D01*
G01*
X99478Y-57164D02*
G03*
X99504Y-56765I-2849J383D01*
G01*
X98887Y-57275D02*
G03*
X98934Y-56969I-850J289D01*
G01*
X99401Y-57490D02*
G03*
X99478Y-57164I-1589J546D01*
G01*
X99095Y-57920D02*
G03*
X99274Y-57742I-415J596D01*
G01*
X98260Y-57668D02*
G03*
X98528Y-57624I10J786D01*
G01*
X99931Y-56757D02*
G03*
X99941Y-57199I7848J-35D01*
G01*
X98744Y-57493D02*
G03*
X98887Y-57275I-370J397D01*
G01*
X98679Y-58132D02*
G03*
X99095Y-57920I-537J1569D01*
G01*
X100883Y-55892D02*
G03*
X100742Y-55944I96J-477D01*
G01*
X100649Y-55331D02*
G03*
X100444Y-55410I176J-770D01*
G01*
X101543Y-56161D02*
G03*
X101384Y-55946I-337J-84D01*
G01*
X101384Y-55946D02*
G03*
X101244Y-55892I-237J-409D01*
G01*
X101064Y-55875D02*
G03*
X100883Y-55892I-9J-860D01*
G01*
X100133Y-55673D02*
G03*
X99973Y-56029I685J-521D01*
G01*
D02*
G03*
X99941Y-56313I2038J-369D01*
G01*
X101622Y-55635D02*
G03*
X101291Y-55388I-750J-659D01*
G01*
X100891Y-55305D02*
G03*
X100649Y-55331I-8J-1057D01*
G01*
X100742Y-55944D02*
G03*
X100581Y-56152I167J-295D01*
G01*
X101291Y-55388D02*
G03*
X100891Y-55305I-390J-880D01*
G01*
X101244Y-55892D02*
G03*
X101063Y-55875I-172J-810D01*
G01*
X100444Y-55410D02*
G03*
X100133Y-55673I485J-888D01*
G01*
X103290Y-56494D02*
G03*
X103282Y-56757I3724J-243D01*
G01*
X102733Y-57155D02*
G03*
X102786Y-57438I1446J124D01*
G01*
X103422Y-57427D02*
G03*
X103611Y-57583I381J270D01*
G01*
X103282Y-56757D02*
G03*
X103290Y-57019I3706J-20D01*
G01*
X103313Y-56322D02*
G03*
X103290Y-56494I1028J-229D01*
G01*
X103290Y-57019D02*
G03*
X103313Y-57190I1050J57D01*
G01*
X102715Y-56750D02*
G03*
X102733Y-57155I4017J-27D01*
G01*
X102786Y-57438D02*
G03*
X103020Y-57842I1033J329D01*
G01*
X103160Y-57969D02*
G03*
X103345Y-58088I929J1246D01*
G01*
X103020Y-57842D02*
G03*
X103160Y-57969I731J668D01*
G01*
X102733Y-56353D02*
G03*
X102715Y-56750I3876J-371D01*
G01*
X87359Y-61960D02*
G03*
X87390Y-61828I-258J130D01*
G01*
X87265Y-62074D02*
G03*
X87359Y-61960I-231J284D01*
G01*
X87334Y-60570D02*
G03*
X87140Y-60393I-353J-193D01*
G01*
X87362Y-61682D02*
G03*
X87273Y-61577I-243J-114D01*
G01*
X87402Y-61079D02*
G03*
X87014Y-61015I-381J-1102D01*
G01*
X87123Y-61510D02*
G03*
X86911Y-61483I-228J-947D01*
G01*
X87140Y-60393D02*
G03*
X86993Y-60360I-247J-749D01*
G01*
X87682Y-61260D02*
G03*
X87402Y-61079I-517J-492D01*
G01*
X87390Y-61828D02*
G03*
X87362Y-61682I-326J14D01*
G01*
X81098Y-60135D02*
G03*
X80836Y-60515I701J-764D01*
G01*
Y-60515D02*
G03*
X80748Y-61007I1226J-471D01*
G01*
X81913Y-60348D02*
G03*
X81684Y-60391I-7J-603D01*
G01*
X81476Y-59892D02*
G03*
X81098Y-60135I455J-1128D01*
G01*
X82463Y-60725D02*
G03*
X82335Y-60518I-530J-184D01*
G01*
X81496Y-60518D02*
G03*
X81368Y-60725I411J-398D01*
G01*
X81913Y-59812D02*
G03*
X81476Y-59892I-9J-1175D01*
G01*
X82146Y-60391D02*
G03*
X81914Y-60348I-225J-575D01*
G01*
X81684Y-60391D02*
G03*
X81497Y-60518I211J-514D01*
G01*
X82317Y-59891D02*
G03*
X81914Y-59812I-405J-999D01*
G01*
X82335Y-60518D02*
G03*
X82146Y-60391I-398J-388D01*
G01*
X82704Y-60128D02*
G03*
X82317Y-59891I-935J-1090D01*
G01*
X81368Y-60725D02*
G03*
X81317Y-61007I873J-305D01*
G01*
X82512Y-61007D02*
G03*
X82463Y-60725I-905J-11D01*
G01*
X82256Y-62638D02*
G03*
X82672Y-62427I-537J1569D01*
G01*
X82851Y-62249D02*
G03*
X82979Y-61997I-831J580D01*
G01*
X82672Y-62427D02*
G03*
X82851Y-62249I-415J596D01*
G01*
X82979Y-61997D02*
G03*
X83056Y-61671I-1589J546D01*
G01*
X82322Y-62000D02*
G03*
X82464Y-61781I-370J397D01*
G01*
D02*
G03*
X82512Y-61476I-850J288D01*
G01*
X83056Y-61671D02*
G03*
X83081Y-61271I-2849J383D01*
G01*
X82987Y-60572D02*
G03*
X82869Y-60318I-1073J-344D01*
G01*
X82869Y-60318D02*
G03*
X82704Y-60128I-696J-438D01*
G01*
X83058Y-60890D02*
G03*
X82987Y-60572I-1755J-225D01*
G01*
X83081Y-61271D02*
G03*
X83058Y-60890I-2863J15D01*
G01*
X86840Y-59814D02*
G03*
X86375Y-59862I-41J-1893D01*
G01*
X87770Y-60227D02*
G03*
X87379Y-59912I-788J-579D01*
G01*
X87274Y-61577D02*
G03*
X87123Y-61510I-252J-368D01*
G01*
X87852Y-61529D02*
G03*
X87682Y-61260I-758J-290D01*
G01*
X86993Y-60360D02*
G03*
X86813Y-60348I-172J-1330D01*
G01*
X87908Y-61855D02*
G03*
X87852Y-61529I-911J10D01*
G01*
X86813Y-60348D02*
G03*
X86564Y-60367I-37J-1153D01*
G01*
X87379Y-59912D02*
G03*
X87128Y-59836I-443J-1009D01*
G01*
X86375Y-59862D02*
G03*
X86010Y-60016I259J-1122D01*
G01*
X86387Y-60435D02*
G03*
X86281Y-60551I156J-249D01*
G01*
X87128Y-59836D02*
G03*
X86840Y-59814I-255J-1447D01*
G01*
X84129Y-59895D02*
G03*
X83709Y-59812I-402J-920D01*
G01*
X84457Y-60974D02*
G03*
X84414Y-60705I-761J17D01*
G01*
X83906Y-60381D02*
G03*
X83716Y-60416I2J-541D01*
G01*
X84414Y-60705D02*
G03*
X84286Y-60522I-403J-145D01*
G01*
X84446Y-60147D02*
G03*
X84129Y-59895I-672J-522D01*
G01*
X83709Y-59812D02*
G03*
X83406Y-59866I-0J-869D01*
G01*
X83716Y-60416D02*
G03*
X83529Y-60521I266J-693D01*
G01*
X84286Y-60522D02*
G03*
X83906Y-60381I-380J-443D01*
G01*
X83406Y-59866D02*
G03*
X83118Y-60030I381J-1005D01*
G01*
X86281Y-60551D02*
G03*
X86247Y-60715I323J-153D01*
G01*
X86247Y-61692D02*
G03*
X86280Y-61953I874J-24D01*
G01*
X85718Y-60509D02*
G03*
X85696Y-60748I1388J-249D01*
G01*
X86010Y-60016D02*
G03*
X85778Y-60307I386J-547D01*
G01*
X85778Y-60307D02*
G03*
X85718Y-60509I874J-368D01*
G01*
X86564Y-60367D02*
G03*
X86387Y-60435I90J-502D01*
G01*
X86280Y-61953D02*
G03*
X86321Y-62041I332J102D01*
G01*
X86321D02*
G03*
X86378Y-62100I179J117D01*
G01*
X87843Y-62195D02*
G03*
X87908Y-61855I-793J329D01*
G01*
X86572Y-62166D02*
G03*
X86869Y-62185I250J1607D01*
G01*
X86691Y-62702D02*
G03*
X86938Y-62719I236J1559D01*
G01*
X86496Y-62648D02*
G03*
X86691Y-62701I320J793D01*
G01*
X86938Y-62719D02*
G03*
X87350Y-62651I-7J1324D01*
G01*
X86869Y-62185D02*
G03*
X87106Y-62157I16J886D01*
G01*
Y-62157D02*
G03*
X87265Y-62074I-93J371D01*
G01*
X86378Y-62100D02*
G03*
X86572Y-62166I267J464D01*
G01*
X87350Y-62651D02*
G03*
X87647Y-62469I-249J739D01*
G01*
X87647D02*
G03*
X87843Y-62195I-531J588D01*
G01*
X86259Y-62436D02*
G03*
X86496Y-62648I405J215D01*
G01*
X81027Y-62464D02*
G03*
X81277Y-62604I662J888D01*
G01*
X82106Y-62131D02*
G03*
X82322Y-62000I-214J596D01*
G01*
X81277Y-62604D02*
G03*
X81827Y-62709I546J1369D01*
G01*
X81837Y-62175D02*
G03*
X82106Y-62131I10J786D01*
G01*
X81827Y-62709D02*
G03*
X82256Y-62638I-1J1347D01*
G01*
X81216Y-61901D02*
G03*
X81506Y-62106I678J651D01*
G01*
X81506Y-62106D02*
G03*
X81837Y-62175I327J746D01*
G01*
X80803Y-62253D02*
G03*
X81027Y-62464I1042J883D01*
G01*
X87237Y-51515D02*
X88212Y-51920D01*
X82956Y-51130D02*
X84789Y-52963D01*
X84962Y-52980D02*
X87108Y-51529D01*
X101973Y-45845D02*
Y-43253D01*
X98349Y-48812D02*
X99801Y-50957D01*
X98336Y-48683D02*
X99219Y-46552D01*
X99319Y-42628D02*
X101863Y-43119D01*
X99319Y-46470D02*
X101863Y-45980D01*
X98336Y-40416D02*
X99219Y-42546D01*
X82956Y-37968D02*
X84789Y-36135D01*
X84962Y-36119D02*
X87108Y-37570D01*
X82940Y-38142D02*
X84391Y-40287D01*
X92801Y-34057D02*
X93291Y-36600D01*
X87237Y-37583D02*
X89367Y-36701D01*
X90074Y-33946D02*
X92666D01*
X89449Y-36600D02*
X89940Y-34057D01*
X93373Y-36701D02*
X95504Y-37583D01*
X92553Y-47447D02*
X94349Y-51845D01*
X94528Y-51920D02*
X95504Y-51515D01*
X88391Y-51845D02*
X90187Y-47447D01*
X80878Y-43119D02*
X83421Y-42628D01*
X80767Y-45845D02*
Y-43253D01*
X82940Y-50957D02*
X84391Y-48812D01*
X83522Y-42546D02*
X84404Y-40416D01*
X83522Y-46552D02*
X84404Y-48683D01*
X80878Y-45980D02*
X83421Y-46470D01*
X97951Y-36135D02*
X99784Y-37968D01*
X98349Y-40287D02*
X99801Y-38142D01*
X95633Y-37570D02*
X97778Y-36119D01*
X97951Y-52963D02*
X99784Y-51130D01*
X95633Y-51529D02*
X97778Y-52980D01*
X97787Y-61015D02*
X98554D01*
X97787Y-61692D02*
Y-61483D01*
Y-61015D02*
Y-60715D01*
Y-61483D02*
X98451D01*
X97236Y-62687D02*
X97787D01*
X92939Y-62676D02*
Y-62382D01*
X96005Y-62676D02*
X96575D01*
X97787Y-62436D02*
X97799D01*
X97787Y-62687D02*
Y-62436D01*
X96005Y-59844D02*
X96575D01*
X96005Y-62676D02*
Y-60974D01*
X97236Y-62687D02*
Y-60748D01*
X96575Y-62676D02*
Y-59844D01*
X96005Y-60147D02*
Y-59844D01*
X95995Y-60147D02*
X96005D01*
X94666Y-60030D02*
X95077Y-60521D01*
X97739Y-56500D02*
X98934D01*
X97171Y-56969D02*
X98934D01*
X97171D02*
Y-56500D01*
X97226Y-57747D02*
X97638Y-57394D01*
X96093Y-55640D02*
X96104D01*
Y-55338D01*
X94412Y-58169D02*
Y-56287D01*
X96104Y-58169D02*
Y-56483D01*
Y-58169D02*
X96673D01*
X94982D02*
Y-56483D01*
X94412Y-58169D02*
X94982D01*
X96673D02*
Y-55338D01*
X96104D02*
X96673D01*
X89174Y-61828D02*
X89814Y-59844D01*
X88016D02*
X88620D01*
X88016D02*
X88922Y-62676D01*
X89424D01*
X91424Y-59844D02*
X92026D01*
X90017Y-60695D02*
X90027D01*
X90881Y-61828D02*
X91424Y-59844D01*
X90870Y-61828D02*
X90881D01*
X90229Y-59844D02*
X90870Y-61828D01*
X90619Y-62676D02*
X91122D01*
X90027Y-60695D02*
X90619Y-62676D01*
X89424D02*
X90017Y-60695D01*
X92369Y-62676D02*
X92939D01*
X91122D02*
X92026Y-59844D01*
X92939Y-60147D02*
Y-58702D01*
X92369Y-62676D02*
Y-58702D01*
X92939D01*
X91237Y-56483D02*
X91706Y-56451D01*
X89814Y-59844D02*
X90229D01*
X89162Y-61828D02*
X89174D01*
X88620Y-59844D02*
X89162Y-61828D01*
X90484Y-55690D02*
X90836Y-56105D01*
X92437Y-57304D02*
X92835Y-57698D01*
X91333Y-57027D02*
X91834Y-56979D01*
X83735Y-58169D02*
Y-56468D01*
Y-55640D02*
Y-55338D01*
X83725Y-55640D02*
X83735D01*
X85521Y-57870D02*
X85532D01*
X83735Y-58169D02*
X84305D01*
X85521D02*
Y-57870D01*
X84951Y-58169D02*
X85521D01*
X83735Y-55338D02*
X84305D01*
X80149Y-55796D02*
X80569Y-56170D01*
X80149Y-57714D02*
X80569Y-57337D01*
X86642Y-57027D02*
Y-55338D01*
X87212D01*
X84951D02*
X85521D01*
X84951Y-58169D02*
Y-55338D01*
X84305Y-58169D02*
Y-55338D01*
X85521Y-57027D02*
Y-55338D01*
X87212Y-57220D02*
Y-55338D01*
X82396Y-55524D02*
X82807Y-56015D01*
X78217Y-56500D02*
X79412D01*
X77649Y-56969D02*
X79412D01*
X77649D02*
Y-56500D01*
X77704Y-57747D02*
X78116Y-57394D01*
X101612Y-60147D02*
X101622D01*
X100501Y-62676D02*
Y-60990D01*
X99931Y-62676D02*
Y-60794D01*
Y-62676D02*
X100501D01*
X102192D02*
Y-55338D01*
X101622Y-55635D02*
Y-55338D01*
Y-62676D02*
X102192D01*
X101622D02*
Y-60990D01*
Y-60147D02*
Y-57870D01*
Y-55338D02*
X102192D01*
X98874Y-60570D02*
X99310Y-60227D01*
X81317Y-61007D02*
X82512D01*
X86247Y-61483D02*
X86911D01*
X86247Y-61015D02*
X87014D01*
X87334Y-60570D02*
X87770Y-60227D01*
X84446Y-60147D02*
X84457D01*
X85026Y-62676D02*
Y-59844D01*
X84457Y-60147D02*
Y-59844D01*
Y-62676D02*
Y-60974D01*
X83118Y-60030D02*
X83529Y-60521D01*
X84457Y-62676D02*
X85026D01*
X84457Y-59844D02*
X85026D01*
X85696Y-62687D02*
X86247D01*
Y-61015D02*
Y-60715D01*
Y-62687D02*
Y-62436D01*
X85696Y-62687D02*
Y-60748D01*
X86247Y-61692D02*
Y-61483D01*
Y-62436D02*
X86259D01*
X80748Y-61476D02*
Y-61007D01*
X80803Y-62253D02*
X81216Y-61901D01*
X80748Y-61476D02*
X82512D01*
M02*
