G04*
G04 #@! TF.GenerationSoftware,Altium Limited,Altium Designer,21.3.1 (25)*
G04*
G04 Layer_Color=8421504*
%FSLAX25Y25*%
%MOIN*%
G70*
G04*
G04 #@! TF.SameCoordinates,28642905-D900-4296-AB16-E10C3E418D5C*
G04*
G04*
G04 #@! TF.FilePolarity,Positive*
G04*
G01*
G75*
%ADD25R,0.01890X0.01575*%
%ADD26R,0.02362X0.02559*%
%ADD27R,0.06299X0.13780*%
%ADD28O,0.07874X0.03150*%
%ADD29R,0.04528X0.02559*%
%ADD30R,0.04449X0.07087*%
%ADD31R,0.05787X0.04567*%
%ADD32R,0.04567X0.05787*%
%ADD33R,0.03661X0.03858*%
%ADD34R,0.07874X0.07874*%
%ADD35O,0.02756X0.07087*%
%ADD36R,0.03858X0.03661*%
%ADD37R,0.07087X0.04449*%
%ADD38R,0.55100X0.18700*%
D25*
X54303Y-51000D02*
D03*
X59500D02*
D03*
Y-43000D02*
D03*
X54303D02*
D03*
D26*
X299173Y-41500D02*
D03*
X295827D02*
D03*
X262154Y-41000D02*
D03*
X265500D02*
D03*
X299173Y-74000D02*
D03*
X295827D02*
D03*
X299173Y-8500D02*
D03*
X295827D02*
D03*
X262154Y-73500D02*
D03*
X265500D02*
D03*
X262154Y-8000D02*
D03*
X265500D02*
D03*
X23827Y-84000D02*
D03*
X27173D02*
D03*
X58673Y-57000D02*
D03*
X55327D02*
D03*
D27*
X155500Y-7976D02*
D03*
Y-30024D02*
D03*
D28*
X263689Y-13500D02*
D03*
Y-23500D02*
D03*
X287311D02*
D03*
Y-13500D02*
D03*
X263689Y-46500D02*
D03*
Y-56500D02*
D03*
X287311Y-56500D02*
D03*
Y-46500D02*
D03*
X263689Y-79000D02*
D03*
X263689Y-89000D02*
D03*
X287311D02*
D03*
Y-79000D02*
D03*
D29*
X296693Y-48520D02*
D03*
Y-56000D02*
D03*
X308307Y-52260D02*
D03*
X296693Y-81020D02*
D03*
Y-88500D02*
D03*
X308307Y-84760D02*
D03*
X296693Y-15520D02*
D03*
Y-23000D02*
D03*
X308307Y-19260D02*
D03*
D30*
X64366Y-31000D02*
D03*
X52634D02*
D03*
X64366Y-20500D02*
D03*
X52634D02*
D03*
X64366Y-10000D02*
D03*
X52634D02*
D03*
D31*
X34500Y-83996D02*
D03*
Y-91004D02*
D03*
X130661Y-5491D02*
D03*
Y-12499D02*
D03*
X116661Y-5491D02*
D03*
Y-12499D02*
D03*
X102661Y-5491D02*
D03*
Y-12499D02*
D03*
X88661Y-5491D02*
D03*
Y-12499D02*
D03*
D32*
X18996Y-91000D02*
D03*
X26004D02*
D03*
D33*
X123531D02*
D03*
X117469D02*
D03*
X117469Y-83500D02*
D03*
X123531D02*
D03*
D34*
X100268Y-86500D02*
D03*
X83732D02*
D03*
D35*
X44500Y-87236D02*
D03*
X49500D02*
D03*
X54500D02*
D03*
X59500D02*
D03*
X44500Y-66764D02*
D03*
X49500D02*
D03*
X54500D02*
D03*
X59500D02*
D03*
D36*
X35000Y-72531D02*
D03*
Y-66469D02*
D03*
D37*
X70000Y-65134D02*
D03*
Y-76866D02*
D03*
D38*
X109000Y-28300D02*
D03*
Y-64700D02*
D03*
M02*
