M48
;Layer_Color=9474304
;FILE_FORMAT=2:5
INCH,TZ
;TYPE=PLATED
T1F00S00C0.01181
T2F00S00C0.04331
T3F00S00C0.05512
T4F00S00C0.11811
%
T01
X257000Y-92000
X304000Y-94000
X298000Y-75500
X297500Y-51000
X298000Y-26000
X318000Y-36500
X320500Y-57500
X320000Y-80000
X319000Y-11000
T02
X198500Y-85000
Y-75000
X208500
X218500
X228500
Y-85000
X218500
X208500
Y-24000
X218500
Y-14000
X228500
Y-24000
X208500Y-14000
X198500
X198500Y-24000
T03
X137650Y-53890
Y-40110
X346500Y-33000
Y-48000
Y-63000
Y-78000
Y-18000
T04
X134000Y-84500
X243673Y-49213
M30
