M48
;Layer_Color=9474304
;FILE_FORMAT=2:5
INCH,TZ
;TYPE=PLATED
T1F00S00C0.01181
T2F00S00C0.04331
T3F00S00C0.05512
T4F00S00C0.11811
%
T01
X12500Y-91000
X20500Y-84000
X30000Y-71000
X62000Y-57000
X71012Y-47751
X70000Y-31000
Y-20500
Y-10000
X120999Y-48756
X107500Y-83000
X128500Y-91000
X54500Y-93000
X187000Y-76000
X208500Y-67000
X218500Y-65000
X229000Y-63000
X257500Y-38000
X287500Y-32000
X315827Y-80681
X187000Y-43500
X170000Y-30000
X166000
X162524Y-29976
X125000Y-5500
X110500
X97000
X82500
X28310Y-8817
T02
X198500Y-85000
X208500
X218500
Y-75000
X228500
Y-85000
X208500Y-75000
X198500
X198500Y-24000
X208500
X218500
Y-14000
X228500
Y-24000
X208500Y-14000
X198500
T03
X15149Y-54890
Y-41110
X344500Y-39441
Y-53220
Y-67000
Y-25661
T04
X38949Y-49213
X243673
M30
